<svg width="24" height="24" viewBox="0 0 24 24" fill="none" xmlns="http://www.w3.org/2000/svg">
<path fill-rule="evenodd" clip-rule="evenodd" d="M4.54804 0.809066C4.50844 0.814634 4.39312 0.840098 4.29179 0.865658C3.30205 1.11519 2.54032 1.95684 2.38765 2.9695C2.33432 3.32343 2.33432 20.6765 2.38765 21.0305C2.54108 22.0483 3.27676 22.859 4.30379 23.1419L4.50004 23.196H12H19.5L19.6957 23.142C20.7226 22.8591 21.4591 22.0478 21.6124 21.0305C21.6657 20.6765 21.6657 3.32343 21.6124 2.9695C21.4598 1.95689 20.7397 1.15853 19.7086 0.858698L19.524 0.805034L12.072 0.801962C7.97344 0.800282 4.58764 0.803474 4.54804 0.809066ZM4.76084 2.81823C4.61495 2.86387 4.49838 2.96383 4.42921 3.10265L4.36804 3.22541V5.93268V8.63998H12H19.632L19.6315 5.93398C19.631 3.35119 19.629 3.22351 19.5865 3.13003C19.562 3.07618 19.5011 2.99237 19.4511 2.94379C19.2727 2.77051 19.8991 2.78381 11.9897 2.78559C6.22986 2.78688 4.84098 2.79315 4.76084 2.81823ZM14.9831 4.72822C14.5772 4.78752 14.2292 5.13372 14.1594 5.54767C14.069 6.08364 14.4383 6.61003 14.9654 6.69634C15.1539 6.72723 16.7337 6.72677 16.897 6.69579C17.211 6.63624 17.4824 6.42348 17.623 6.12655C17.6945 5.97569 17.7 5.94583 17.7 5.71198C17.7 5.47939 17.6943 5.44776 17.6249 5.30134C17.482 4.99987 17.1926 4.77984 16.872 4.72906C16.6945 4.70093 15.1744 4.70026 14.9831 4.72822ZM4.36804 15.7153V20.7745L4.42921 20.8973C4.5002 21.0398 4.61567 21.1365 4.7703 21.183C4.86188 21.2106 6.03635 21.216 11.9995 21.216C19.8974 21.216 19.2727 21.2294 19.4511 21.0562C19.5011 21.0076 19.562 20.9238 19.5865 20.8699C19.6293 20.7756 19.631 20.5868 19.6315 15.714L19.632 10.656H12H4.36804V15.7153ZM7.5159 12.5796C6.99656 12.6408 6.54484 12.9961 6.3658 13.4845C6.28679 13.6999 6.2673 14.0576 6.3219 14.2893C6.42791 14.739 6.78092 15.1257 7.23767 15.2925C7.44462 15.3681 7.8645 15.3692 8.10104 15.2948C8.50612 15.1674 8.85738 14.8228 9.00277 14.4103C9.07242 14.2128 9.08908 13.8625 9.03894 13.65C8.96418 13.333 8.77201 13.04 8.5126 12.8475C8.21524 12.6269 7.87998 12.5368 7.5159 12.5796ZM11.8358 12.5796C11.4811 12.6214 11.1404 12.8108 10.9139 13.092C10.4246 13.6996 10.5309 14.5972 11.1474 15.0639C11.4388 15.2845 11.6284 15.3476 12 15.3477C12.2258 15.3477 12.3052 15.3376 12.4366 15.2923C12.749 15.1847 13.0348 14.9503 13.2068 14.6608C13.345 14.4281 13.38 14.2879 13.38 13.968C13.38 13.618 13.32 13.4161 13.1421 13.1681C12.8329 12.7368 12.3497 12.5192 11.8358 12.5796ZM16.1558 12.5796C15.8205 12.6191 15.4827 12.7973 15.2674 13.0483C14.8768 13.5037 14.8185 14.1749 15.1255 14.6815C15.2941 14.9597 15.5969 15.1998 15.899 15.2948C16.1356 15.3692 16.5555 15.3681 16.7624 15.2925C17.2191 15.1257 17.5722 14.739 17.6782 14.2893C17.7328 14.0576 17.7133 13.6999 17.6343 13.4845C17.4141 12.8841 16.7939 12.5045 16.1558 12.5796ZM7.46286 16.5122C7.0288 16.5802 6.60964 16.8937 6.42049 17.292C6.32365 17.4959 6.28804 17.6572 6.28804 17.892C6.28804 18.257 6.40876 18.5684 6.65053 18.8268C6.94201 19.1384 7.25596 19.2785 7.66804 19.281C8.07498 19.2834 8.41609 19.1387 8.6876 18.8486C8.86616 18.6578 8.96526 18.4818 9.0244 18.2506C9.11286 17.9047 9.06486 17.5031 8.9002 17.2115C8.7986 17.0317 8.51898 16.7584 8.34004 16.6641C8.0768 16.5254 7.7452 16.468 7.46286 16.5122ZM11.7829 16.5123C11.2786 16.5908 10.8348 16.9718 10.665 17.472C10.5958 17.6758 10.6016 18.1261 10.6762 18.3424C10.8218 18.7644 11.1846 19.1056 11.6293 19.2386C11.821 19.2959 12.179 19.2959 12.3708 19.2386C12.8154 19.1056 13.1781 18.7645 13.3239 18.3424C13.3716 18.2045 13.3798 18.1347 13.3785 17.88C13.3771 17.6213 13.3687 17.5584 13.3175 17.4236C13.0786 16.7947 12.4328 16.4112 11.7829 16.5123ZM16.1029 16.5123C15.804 16.5588 15.5059 16.7222 15.2913 16.957C14.9706 17.3079 14.8553 17.7801 14.9757 18.2506C15.0926 18.7076 15.4573 19.0843 15.924 19.23C16.0518 19.2698 16.1495 19.282 16.332 19.281C16.7441 19.2785 17.0581 19.1384 17.3495 18.8268C17.8411 18.3014 17.8387 17.4875 17.3442 16.954C17.0231 16.6076 16.5567 16.4417 16.1029 16.5123Z" fill="#132930"/>
</svg>
