<svg width="24" height="24" viewBox="0 0 24 24" fill="none" xmlns="http://www.w3.org/2000/svg">
<path d="M20 11H4V17.2002C4 18.0566 4.00035 18.6388 4.03711 19.0889C4.07293 19.5273 4.13809 19.7518 4.21778 19.9082C4.40951 20.2845 4.71555 20.5905 5.0918 20.7822C5.2482 20.8619 5.47272 20.9271 5.91113 20.9629C6.36117 20.9997 6.94342 21 7.79981 21H16.2002C17.0566 21 17.6388 20.9997 18.0889 20.9629C18.5273 20.9271 18.7518 20.8619 18.9082 20.7822C19.2845 20.5905 19.5905 20.2845 19.7822 19.9082C19.8619 19.7518 19.9271 19.5273 19.9629 19.0889C19.9997 18.6388 20 18.0566 20 17.2002V11ZM15 6V5H9V6C9 6.55228 8.55229 7 8 7C7.44772 7 7 6.55228 7 6V5.00293C6.55454 5.00606 6.2047 5.01313 5.91113 5.03711C5.47272 5.07293 5.2482 5.13808 5.0918 5.21777C4.71555 5.40951 4.40951 5.71554 4.21778 6.0918C4.13809 6.2482 4.07293 6.47272 4.03711 6.91113C4.00035 7.36117 4 7.94341 4 8.7998V9H20V8.7998C20 7.94341 19.9997 7.36117 19.9629 6.91113C19.9271 6.47272 19.8619 6.2482 19.7822 6.0918C19.5905 5.71554 19.2845 5.40951 18.9082 5.21777C18.7518 5.13808 18.5273 5.07293 18.0889 5.03711C17.7953 5.01313 17.4455 5.00606 17 5.00293V6C17 6.55228 16.5523 7 16 7C15.4477 7 15 6.55228 15 6ZM22 17.2002C22 18.0237 22.001 18.7016 21.9561 19.252C21.9101 19.814 21.8117 20.3311 21.5645 20.8164C21.181 21.5689 20.5689 22.181 19.8164 22.5645C19.3311 22.8117 18.814 22.9101 18.252 22.9561C17.7016 23.001 17.0237 23 16.2002 23H7.79981C6.97632 23 6.29843 23.001 5.74805 22.9561C5.18599 22.9101 4.6689 22.8117 4.1836 22.5645C3.43109 22.181 2.81902 21.5689 2.43555 20.8164C2.18827 20.3311 2.08988 19.814 2.04395 19.252C1.99898 18.7016 2 18.0237 2 17.2002V8.7998C2 7.97632 1.99898 7.29843 2.04395 6.74805C2.08988 6.18599 2.18827 5.6689 2.43555 5.18359C2.81902 4.43109 3.43109 3.81902 4.1836 3.43555C4.6689 3.18827 5.18599 3.08987 5.74805 3.04395C6.10885 3.01447 6.52454 3.0062 7 3.00293V2C7 1.44772 7.44772 1 8 1C8.55229 1 9 1.44772 9 2V3H15V2C15 1.44772 15.4477 1 16 1C16.5523 1 17 1.44772 17 2V3.00293C17.4755 3.0062 17.8911 3.01447 18.252 3.04395C18.814 3.08987 19.3311 3.18827 19.8164 3.43555C20.5689 3.81902 21.181 4.43109 21.5645 5.18359C21.8117 5.6689 21.9101 6.18599 21.9561 6.74805C22.001 7.29843 22 7.97632 22 8.7998V17.2002Z" fill="#132930"/>
</svg>
