<svg width="24" height="24" viewBox="0 0 24 24" fill="none" xmlns="http://www.w3.org/2000/svg">
<path d="M12 12C14.1847 12 15.959 13.7514 15.998 15.9268L18.7285 18.6572C18.827 18.7557 18.9024 18.8728 18.9521 19H19C19.5523 19 20 18.5523 20 18V4C20 3.44772 19.5523 3 19 3H5C4.44772 3 4 3.44772 4 4V18C4 18.5523 4.44772 19 5 19H5.06934C5.1191 18.8728 5.19452 18.7557 5.29297 18.6572L8.00098 15.9482C8.02869 13.763 9.80814 12 12 12ZM15.3799 18.1367C15.018 18.7079 14.5165 19.1813 13.9219 19.5078L15.1924 20.7783L16.6064 19.3633L15.3799 18.1367ZM7.41406 19.3633L8.82812 20.7773L10.0908 19.5156C9.49488 19.1913 8.99186 18.7192 8.62793 18.1494L7.41406 19.3633ZM12 14C10.8954 14 10 14.8954 10 16C10 17.1046 10.8954 18 12 18C13.1046 18 14 17.1046 14 16C14 14.8954 13.1046 14 12 14ZM17 8.5C17.5523 8.5 18 8.94772 18 9.5C18 10.0523 17.5523 10.5 17 10.5H7C6.44772 10.5 6 10.0523 6 9.5C6 8.94772 6.44772 8.5 7 8.5H17ZM15 5C15.5523 5 16 5.44772 16 6C16 6.55228 15.5523 7 15 7H9C8.44772 7 8 6.55228 8 6C8 5.44772 8.44772 5 9 5H15ZM22 18C22 19.6569 20.6569 21 19 21H17.7998L15.9004 22.8994C15.5099 23.2899 14.8759 23.2899 14.4854 22.8994L12.0107 20.4248L9.53613 22.8994C9.14561 23.2899 8.51162 23.2899 8.12109 22.8994L6.22168 21H5C3.34315 21 2 19.6569 2 18V4C2 2.34315 3.34315 1 5 1H19C20.6569 1 22 2.34315 22 4V18Z" fill="#132930"/>
</svg>
