<svg width="24" height="24" viewBox="0 0 24 24" fill="none" xmlns="http://www.w3.org/2000/svg">
<path fill-rule="evenodd" clip-rule="evenodd" d="M4.22183 4.22183C6.28473 2.15892 9.08262 1 12 1C14.9174 1 17.7152 2.15892 19.7782 4.22183C21.8411 6.28473 23 9.08262 23 12C23 14.9174 21.8411 17.7152 19.7782 19.7782C17.7152 21.8411 14.9174 23 12 23C9.08262 23 6.28473 21.8411 4.22183 19.7782C2.15892 17.7152 1 14.9174 1 12C1 9.08262 2.15892 6.28473 4.22183 4.22183ZM10.9683 17.2669L17.4279 9.19231L15.2806 7.47441L10.7402 13.1498L8.61821 11.0278L6.67366 12.9723L10.9683 17.2669Z" fill="#132930"/>
</svg>
