<svg width="24" height="24" viewBox="0 0 24 24" fill="none" xmlns="http://www.w3.org/2000/svg">
<path d="M15 11.2002C15 10.6236 14.9987 10.2511 14.9756 9.96778C14.9534 9.69619 14.9158 9.59534 14.8906 9.5459C14.7948 9.35793 14.6421 9.20522 14.4541 9.10938C14.4047 9.08419 14.3038 9.04662 14.0322 9.02442C13.7489 9.00127 13.3764 9 12.7998 9H5.2002C4.62365 9 4.25112 9.00127 3.96778 9.02442C3.69619 9.04662 3.59534 9.08419 3.5459 9.10938C3.35793 9.20522 3.20522 9.35793 3.10938 9.5459C3.08419 9.59534 3.04662 9.69619 3.02442 9.96778C3.00127 10.2511 3 10.6236 3 11.2002V18.7998C3 19.3764 3.00127 19.7489 3.02442 20.0322C3.04662 20.3038 3.08419 20.4047 3.10938 20.4541C3.20522 20.6421 3.35793 20.7948 3.5459 20.8906C3.59534 20.9158 3.69619 20.9534 3.96778 20.9756C4.25112 20.9987 4.62365 21 5.2002 21H12.7998C13.3764 21 13.7489 20.9987 14.0322 20.9756C14.3038 20.9534 14.4047 20.9158 14.4541 20.8906C14.6421 20.7948 14.7948 20.6421 14.8906 20.4541C14.9158 20.4047 14.9534 20.3038 14.9756 20.0322C14.9987 19.7489 15 19.3764 15 18.7998V11.2002ZM17 15H18.7998C19.3764 15 19.7489 14.9987 20.0322 14.9756C20.3038 14.9534 20.4047 14.9158 20.4541 14.8906C20.6421 14.7948 20.7948 14.6421 20.8906 14.4541C20.9158 14.4047 20.9534 14.3038 20.9756 14.0322C20.9987 13.7489 21 13.3764 21 12.7998V5.2002C21 4.62365 20.9987 4.25112 20.9756 3.96778C20.9534 3.69619 20.9158 3.59534 20.8906 3.5459C20.7948 3.35793 20.6421 3.20522 20.4541 3.10938C20.4047 3.08419 20.3038 3.04662 20.0322 3.02442C19.7489 3.00127 19.3764 3 18.7998 3H11.2002C10.6236 3 10.2511 3.00127 9.96778 3.02442C9.69619 3.04662 9.59534 3.08419 9.5459 3.10938C9.35793 3.20522 9.20522 3.35793 9.10938 3.5459C9.08419 3.59534 9.04662 3.69619 9.02442 3.96778C9.00127 4.25112 9 4.62365 9 5.2002V7H12.7998C13.3434 7 13.8116 6.99893 14.1953 7.03028C14.5906 7.06259 14.984 7.1344 15.3623 7.32715C15.9265 7.61473 16.3853 8.07348 16.6729 8.6377C16.8656 9.016 16.9374 9.40943 16.9697 9.80469C17.0011 10.1884 17 10.6566 17 11.2002V15ZM23 12.7998C23 13.3434 23.0011 13.8116 22.9697 14.1953C22.9374 14.5906 22.8656 14.984 22.6729 15.3623C22.3853 15.9265 21.9265 16.3853 21.3623 16.6729C20.984 16.8656 20.5906 16.9374 20.1953 16.9697C19.8116 17.0011 19.3434 17 18.7998 17H17V18.7998C17 19.3434 17.0011 19.8116 16.9697 20.1953C16.9374 20.5906 16.8656 20.984 16.6729 21.3623C16.3853 21.9265 15.9265 22.3853 15.3623 22.6729C14.984 22.8656 14.5906 22.9374 14.1953 22.9697C13.8116 23.0011 13.3434 23 12.7998 23H5.2002C4.65665 23 4.18836 23.0011 3.80469 22.9697C3.40943 22.9374 3.016 22.8656 2.6377 22.6729C2.07348 22.3853 1.61473 21.9265 1.32715 21.3623C1.1344 20.984 1.06259 20.5906 1.03028 20.1953C0.998931 19.8116 1 19.3434 1 18.7998V11.2002C1 10.6566 0.998931 10.1884 1.03028 9.80469C1.06259 9.40943 1.1344 9.016 1.32715 8.6377C1.61473 8.07348 2.07348 7.61473 2.6377 7.32715C3.016 7.1344 3.40943 7.06259 3.80469 7.03028C4.18836 6.99893 4.65665 7 5.2002 7H7V5.2002C7 4.65665 6.99893 4.18836 7.03028 3.80469C7.06259 3.40943 7.1344 3.016 7.32715 2.6377C7.61473 2.07348 8.07348 1.61473 8.6377 1.32715C9.016 1.1344 9.40943 1.06259 9.80469 1.03028C10.1884 0.998931 10.6566 1 11.2002 1H18.7998C19.3434 1 19.8116 0.998931 20.1953 1.03028C20.5906 1.06259 20.984 1.1344 21.3623 1.32715C21.9265 1.61473 22.3853 2.07348 22.6729 2.6377C22.8656 3.016 22.9374 3.40943 22.9697 3.80469C23.0011 4.18836 23 4.65665 23 5.2002V12.7998Z" fill="#132930"/>
</svg>
