<svg width="24" height="24" viewBox="0 0 24 24" fill="none" xmlns="http://www.w3.org/2000/svg">
<path d="M19 6.79981C19 5.94342 18.9997 5.36117 18.9629 4.91113C18.9271 4.47272 18.8619 4.2482 18.7822 4.0918C18.5905 3.71555 18.2845 3.40951 17.9082 3.21778C17.7518 3.13809 17.5273 3.07293 17.0889 3.03711C16.6388 3.00035 16.0566 3 15.2002 3H8.79981C7.94342 3 7.36117 3.00035 6.91113 3.03711C6.47272 3.07293 6.2482 3.13809 6.0918 3.21778C5.71555 3.40951 5.40951 3.71555 5.21778 4.0918C5.13809 4.2482 5.07293 4.47272 5.03711 4.91113C5.00035 5.36117 5 5.94342 5 6.79981V17.2002C5 18.0566 5.00035 18.6388 5.03711 19.0889C5.07293 19.5273 5.13809 19.7518 5.21778 19.9082C5.40951 20.2845 5.71555 20.5905 6.0918 20.7822C6.2482 20.8619 6.47272 20.9271 6.91113 20.9629C7.36117 20.9997 7.94342 21 8.79981 21H15.2002C16.0566 21 16.6388 20.9997 17.0889 20.9629C17.5273 20.9271 17.7518 20.8619 17.9082 20.7822C18.2845 20.5905 18.5905 20.2845 18.7822 19.9082C18.8619 19.7518 18.9271 19.5273 18.9629 19.0889C18.9997 18.6388 19 18.0566 19 17.2002V6.79981ZM10 14C10.5523 14 11 14.4477 11 15C11 15.5523 10.5523 16 10 16H8C7.44772 16 7 15.5523 7 15C7 14.4477 7.44772 14 8 14H10ZM14 10C14.5523 10 15 10.4477 15 11C15 11.5523 14.5523 12 14 12H8C7.44772 12 7 11.5523 7 11C7 10.4477 7.44772 10 8 10H14ZM16 6C16.5523 6 17 6.44772 17 7C17 7.55229 16.5523 8 16 8H8C7.44772 8 7 7.55229 7 7C7 6.44772 7.44772 6 8 6H16ZM21 17.2002C21 18.0237 21.001 18.7016 20.9561 19.252C20.9101 19.814 20.8117 20.3311 20.5645 20.8164C20.181 21.5689 19.5689 22.181 18.8164 22.5645C18.3311 22.8117 17.814 22.9101 17.252 22.9561C16.7016 23.001 16.0237 23 15.2002 23H8.79981C7.97632 23 7.29843 23.001 6.74805 22.9561C6.18599 22.9101 5.6689 22.8117 5.1836 22.5645C4.43109 22.181 3.81902 21.5689 3.43555 20.8164C3.18827 20.3311 3.08988 19.814 3.04395 19.252C2.99898 18.7016 3 18.0237 3 17.2002V6.79981C3 5.97632 2.99898 5.29843 3.04395 4.74805C3.08988 4.18599 3.18827 3.6689 3.43555 3.1836C3.81902 2.43109 4.43109 1.81902 5.1836 1.43555C5.6689 1.18827 6.18599 1.08988 6.74805 1.04395C7.29843 0.998979 7.97632 1 8.79981 1H15.2002C16.0237 1 16.7016 0.998979 17.252 1.04395C17.814 1.08988 18.3311 1.18827 18.8164 1.43555C19.5689 1.81902 20.181 2.43109 20.5645 3.1836C20.8117 3.6689 20.9101 4.18599 20.9561 4.74805C21.001 5.29843 21 5.97632 21 6.79981V17.2002Z" fill="#132930"/>
</svg>
