<svg width="24" height="24" viewBox="0 0 24 24" fill="none" xmlns="http://www.w3.org/2000/svg">
<path fill-rule="evenodd" clip-rule="evenodd" d="M4.22183 4.22097C6.28473 2.15807 9.08262 0.999146 12 0.999146C14.9174 0.999146 17.7152 2.15807 19.7782 4.22097C21.8411 6.28388 23 9.08176 23 11.9991C23 14.9165 21.8411 17.7144 19.7782 19.7773C17.7152 21.8402 14.9174 22.9991 12 22.9991C9.08262 22.9991 6.28473 21.8402 4.22183 19.7773C2.15892 17.7144 1 14.9165 1 11.9991C1 9.08176 2.15892 6.28388 4.22183 4.22097ZM11.625 12.9158C11.0727 12.9158 10.625 12.4681 10.625 11.9158V7.49914C10.625 6.94686 11.0727 6.49915 11.625 6.49915H12.375C12.9273 6.49915 13.375 6.94686 13.375 7.49915V11.9158C13.375 12.4681 12.9273 12.9158 12.375 12.9158H11.625ZM11.625 17.4991C11.0727 17.4991 10.625 17.0514 10.625 16.4991V15.7491C10.625 15.1969 11.0727 14.7491 11.625 14.7491H12.375C12.9273 14.7491 13.375 15.1969 13.375 15.7491V16.4991C13.375 17.0514 12.9273 17.4991 12.375 17.4991H11.625Z" fill="#132930"/>
</svg>
