<svg width="24" height="24" viewBox="0 0 24 24" fill="none" xmlns="http://www.w3.org/2000/svg">
<path d="M18 7H6V17.2002C6 18.0566 6.00035 18.6388 6.03711 19.0889C6.07293 19.5273 6.13808 19.7518 6.21777 19.9082C6.40951 20.2845 6.71554 20.5905 7.0918 20.7822C7.2482 20.8619 7.47272 20.9271 7.91113 20.9629C8.36117 20.9997 8.94341 21 9.7998 21H14.2002C15.0566 21 15.6388 20.9997 16.0889 20.9629C16.5273 20.9271 16.7518 20.8619 16.9082 20.7822C17.2845 20.5905 17.5905 20.2845 17.7822 19.9082C17.8619 19.7518 17.9271 19.5273 17.9629 19.0889C17.9997 18.6388 18 18.0566 18 17.2002V7ZM9 16.5V11.5C9 10.9477 9.44772 10.5 10 10.5C10.5523 10.5 11 10.9477 11 11.5V16.5C11 17.0523 10.5523 17.5 10 17.5C9.44772 17.5 9 17.0523 9 16.5ZM13 16.5V11.5C13 10.9477 13.4477 10.5 14 10.5C14.5523 10.5 15 10.9477 15 11.5V16.5C15 17.0523 14.5523 17.5 14 17.5C13.4477 17.5 13 17.0523 13 16.5ZM11.2002 3C10.6236 3 10.2511 3.00127 9.96777 3.02442C9.69619 3.04662 9.59534 3.08419 9.5459 3.10938C9.35793 3.20522 9.20521 3.35793 9.10938 3.5459C9.08419 3.59534 9.04661 3.69619 9.02441 3.96778C9.00406 4.21692 9.00142 4.5349 9.00098 5H14.999C14.9986 4.5349 14.9959 4.21692 14.9756 3.96778C14.9534 3.69619 14.9158 3.59534 14.8906 3.5459C14.7948 3.35793 14.6421 3.20522 14.4541 3.10938C14.4047 3.08419 14.3038 3.04662 14.0322 3.02442C13.7489 3.00127 13.3764 3 12.7998 3H11.2002ZM20 17.2002C20 18.0237 20.001 18.7016 19.9561 19.252C19.9101 19.814 19.8117 20.3311 19.5645 20.8164C19.181 21.5689 18.5689 22.181 17.8164 22.5645C17.3311 22.8117 16.814 22.9101 16.252 22.9561C15.7016 23.001 15.0237 23 14.2002 23H9.7998C8.97632 23 8.29843 23.001 7.74805 22.9561C7.18599 22.9101 6.6689 22.8117 6.18359 22.5645C5.43109 22.181 4.81902 21.5689 4.43555 20.8164C4.18827 20.3311 4.08987 19.814 4.04395 19.252C3.99898 18.7016 4 18.0237 4 17.2002V7H3C2.44772 7 2 6.55229 2 6C2 5.44772 2.44772 5 3 5H7.00098C7.00126 4.54097 7.00284 4.14047 7.03027 3.80469C7.06258 3.40943 7.1344 3.016 7.32715 2.6377C7.61472 2.07348 8.07347 1.61473 8.6377 1.32715C9.01599 1.1344 9.40943 1.06259 9.80469 1.03028C10.1884 0.998931 10.6566 1 11.2002 1H12.7998C13.3434 1 13.8116 0.998931 14.1953 1.03028C14.5906 1.06259 14.984 1.1344 15.3623 1.32715C15.9265 1.61473 16.3853 2.07348 16.6729 2.6377C16.8656 3.016 16.9374 3.40943 16.9697 3.80469C16.9972 4.14047 16.9987 4.54097 16.999 5H21C21.5523 5 22 5.44772 22 6C22 6.55229 21.5523 7 21 7H20V17.2002Z" fill="#132930"/>
</svg>
