<svg width="24" height="24" viewBox="0 0 24 24" fill="none" xmlns="http://www.w3.org/2000/svg">
<path d="M11 12C11 11.4477 11.4477 11 12 11C12.5523 11 13 11.4477 13 12V18.5859L15.293 16.293C15.6835 15.9024 16.3165 15.9024 16.707 16.293C17.0976 16.6835 17.0976 17.3165 16.707 17.707L12.707 21.707C12.3165 22.0976 11.6835 22.0976 11.293 21.707L7.29297 17.707C6.90244 17.3165 6.90244 16.6835 7.29297 16.293C7.68349 15.9024 8.31651 15.9024 8.70703 16.293L11 18.5859V12ZM21 12.5C21 10.6778 19.6068 9.1794 17.8281 9.01465C17.3751 8.97269 17.0074 8.63061 16.9336 8.18164C16.5437 5.80973 14.4822 4 12 4C9.51785 4 7.45634 5.80973 7.06641 8.18164C6.99257 8.63061 6.62494 8.97269 6.17188 9.01465C4.39322 9.1794 3 10.6778 3 12.5C3 13.7125 3.61613 14.7816 4.55664 15.4111C5.01541 15.7184 5.13822 16.3399 4.83105 16.7988C4.52379 17.2576 3.90224 17.3804 3.44336 17.0732C1.97204 16.0883 1 14.4078 1 12.5C1 9.89187 2.81476 7.70852 5.25098 7.14258C6.06524 4.17815 8.77672 2 12 2C15.2232 2 17.9337 4.17828 18.748 7.14258C21.1847 7.70818 23 9.89154 23 12.5C23 14.4078 22.028 16.0883 20.5566 17.0732C20.0978 17.3804 19.4762 17.2576 19.1689 16.7988C18.8618 16.3399 18.9846 15.7184 19.4434 15.4111C20.3839 14.7816 21 13.7125 21 12.5Z" fill="#132930"/>
</svg>
