<svg width="24" height="24" viewBox="0 0 24 24" fill="none" xmlns="http://www.w3.org/2000/svg">
<path d="M15.4004 17C15.4279 17 15.4774 16.9991 15.5371 17.001L15.7344 17.0186L15.8535 17.042C16.399 17.174 16.826 17.601 16.958 18.1465L16.9814 18.2656L16.999 18.4629L17.0029 19.0098C17.0049 19.0905 17.0081 19.1272 17.0127 19.1563C17.0805 19.5841 17.4159 19.9195 17.8438 19.9873C17.9019 19.9965 17.9909 20 18.4004 20H19C19.4796 20 19.7894 19.9996 20.0264 19.9834C20.2543 19.9678 20.3412 19.9411 20.3828 19.9238C20.6277 19.8223 20.8223 19.6277 20.9238 19.3828C20.9411 19.3412 20.9678 19.2543 20.9834 19.0264C20.9996 18.7894 21 18.4796 21 18V14.7998C21 13.9434 20.9997 13.3612 20.9629 12.9111C20.9271 12.4727 20.8619 12.2482 20.7822 12.0918C20.5905 11.7155 20.2845 11.4095 19.9082 11.2178C19.7518 11.1381 19.5273 11.0729 19.0889 11.0371C18.6388 11.0004 18.0566 11 17.2002 11H6.79981C5.94342 11 5.36117 11.0004 4.91113 11.0371C4.47272 11.0729 4.2482 11.1381 4.0918 11.2178C3.71555 11.4095 3.40951 11.7155 3.21778 12.0918C3.13809 12.2482 3.07293 12.4727 3.03711 12.9111C3.00035 13.3612 3 13.9434 3 14.7998V18C3 18.4796 3.00043 18.7894 3.0166 19.0264C3.03216 19.2543 3.05894 19.3412 3.07617 19.3828C3.17767 19.6277 3.37227 19.8223 3.61719 19.9238C3.6588 19.9411 3.74573 19.9678 3.97363 19.9834C4.21061 19.9996 4.52038 20 5 20H5.59961C6.00913 20 6.09811 19.9965 6.15625 19.9873C6.58415 19.9195 6.91954 19.5841 6.98731 19.1563C6.99191 19.1272 6.99515 19.0905 6.99707 19.0098L7.00098 18.4629C7.0029 18.4032 7.00782 18.3335 7.01856 18.2656L7.04199 18.1465C7.18346 17.562 7.66396 17.1139 8.26563 17.0186L8.46289 17.001C8.52257 16.9991 8.57214 17 8.59961 17H15.4004ZM6 12C6.82843 12 7.5 12.6716 7.5 13.5C7.5 14.3284 6.82843 15 6 15C5.17157 15 4.5 14.3284 4.5 13.5C4.5 12.6716 5.17157 12 6 12ZM18 12C18.8284 12 19.5 12.6716 19.5 13.5C19.5 14.3284 18.8284 15 18 15C17.1716 15 16.5 14.3284 16.5 13.5C16.5 12.6716 17.1716 12 18 12ZM18 6.2002C18 5.62365 17.9987 5.25112 17.9756 4.96778C17.9534 4.69619 17.9158 4.59534 17.8906 4.5459C17.7948 4.35793 17.6421 4.20522 17.4541 4.10938C17.4047 4.08419 17.3038 4.04662 17.0322 4.02442C16.7489 4.00127 16.3764 4 15.7998 4H8.2002C7.62364 4 7.25111 4.00127 6.96778 4.02442C6.69619 4.04662 6.59534 4.08419 6.5459 4.10938C6.35793 4.20522 6.20522 4.35793 6.10938 4.5459C6.08419 4.59534 6.04661 4.69619 6.02442 4.96778C6.00127 5.25112 6 5.62365 6 6.2002V9.00293C6.24982 9.00122 6.51616 9 6.79981 9H17.2002C17.4838 9 17.7502 9.00122 18 9.00293V6.2002ZM20 8H21C21 7.44772 21.4477 7 22 7C22.5523 7 23 7.44772 23 8V9C23 9.55229 22.5523 10 22 10H21.6426C22.019 10.3316 22.334 10.7313 22.5645 11.1836C22.8117 11.6689 22.9101 12.186 22.9561 12.7481C23.001 13.2984 23 13.9763 23 14.7998V18C23 18.4521 23.0004 18.8413 22.9785 19.1621C22.956 19.4919 22.9065 19.8225 22.7715 20.1484C22.467 20.8832 21.8832 21.467 21.1484 21.7715C20.8225 21.9065 20.4919 21.956 20.1621 21.9785C19.8413 22.0004 19.4521 22 19 22H18.4004C18.067 22 17.7831 22.0029 17.5303 21.9629C16.247 21.7594 15.2406 20.7531 15.0371 19.4697C15.0141 19.3246 15.0062 19.1689 15.0029 19H8.99707C8.99378 19.169 8.98588 19.3246 8.96289 19.4697C8.75944 20.7531 7.75305 21.7594 6.46973 21.9629C6.21694 22.0029 5.93301 22 5.59961 22H5C4.54787 22 4.15869 22.0004 3.83789 21.9785C3.50806 21.956 3.17749 21.9065 2.85156 21.7715C2.11679 21.467 1.53299 20.8832 1.22852 20.1484C1.09351 19.8225 1.04399 19.4919 1.02149 19.1621C0.999613 18.8413 1 18.4521 1 18V14.7998C1 13.9763 0.998979 13.2984 1.04395 12.7481C1.08988 12.186 1.18827 11.6689 1.43555 11.1836C1.66605 10.7313 1.98096 10.3316 2.35742 10H2C1.44772 10 1 9.55229 1 9V8C1 7.44772 1.44772 7 2 7C2.55229 7 3 7.44772 3 8H4V6.2002C4 5.65665 3.99893 5.18836 4.03028 4.80469C4.06259 4.40943 4.1344 4.016 4.32715 3.6377C4.61472 3.07348 5.07347 2.61473 5.6377 2.32715C6.01599 2.1344 6.40943 2.06259 6.80469 2.03028C7.18836 1.99893 7.65665 2 8.2002 2H15.7998C16.3434 2 16.8116 1.99893 17.1953 2.03028C17.5906 2.06259 17.984 2.1344 18.3623 2.32715C18.9265 2.61473 19.3853 3.07348 19.6729 3.6377C19.8656 4.016 19.9374 4.40943 19.9697 4.80469C20.0011 5.18836 20 5.65665 20 6.2002V8Z" fill="#132930"/>
</svg>
