<svg width="24" height="24" viewBox="0 0 24 24" fill="none" xmlns="http://www.w3.org/2000/svg">
<path d="M21 8.91992L14.4082 13.5352C13.815 13.9504 13.3082 14.3245 12.7256 14.4697C12.2492 14.5885 11.7508 14.5885 11.2744 14.4697C10.6918 14.3245 10.185 13.9504 9.5918 13.5352L3 8.91992V15.2002C3 16.0566 3.00035 16.6388 3.03711 17.0889C3.07293 17.5273 3.13809 17.7518 3.21778 17.9082C3.40951 18.2845 3.71555 18.5905 4.0918 18.7822C4.2482 18.8619 4.47272 18.9271 4.91113 18.9629C5.36117 18.9997 5.94342 19 6.79981 19H17.2002C18.0566 19 18.6388 18.9997 19.0889 18.9629C19.5273 18.9271 19.7518 18.8619 19.9082 18.7822C20.2845 18.5905 20.5905 18.2845 20.7822 17.9082C20.8619 17.7518 20.9271 17.5273 20.9629 17.0889C20.9997 16.6388 21 16.0566 21 15.2002V8.91992ZM6.79981 5C5.94342 5 5.36117 5.00035 4.91113 5.03711C4.47272 5.07293 4.2482 5.13809 4.0918 5.21778C3.71555 5.40951 3.40951 5.71555 3.21778 6.0918C3.16471 6.19594 3.11972 6.33059 3.08399 6.53809L10.7383 11.8965C11.4668 12.4064 11.6215 12.4953 11.7578 12.5293C11.9166 12.5689 12.0834 12.5689 12.2422 12.5293C12.3785 12.4953 12.5332 12.4064 13.2617 11.8965L20.915 6.53809C20.8793 6.33069 20.8353 6.19591 20.7822 6.0918C20.5905 5.71555 20.2845 5.40951 19.9082 5.21778C19.7518 5.13809 19.5273 5.07293 19.0889 5.03711C18.6388 5.00035 18.0566 5 17.2002 5H6.79981ZM23 15.2002C23 16.0237 23.001 16.7016 22.9561 17.252C22.9101 17.814 22.8117 18.3311 22.5645 18.8164C22.181 19.5689 21.5689 20.181 20.8164 20.5645C20.3311 20.8117 19.814 20.9101 19.252 20.9561C18.7016 21.001 18.0237 21 17.2002 21H6.79981C5.97632 21 5.29843 21.001 4.74805 20.9561C4.18599 20.9101 3.6689 20.8117 3.1836 20.5645C2.43109 20.181 1.81902 19.5689 1.43555 18.8164C1.18827 18.3311 1.08988 17.814 1.04395 17.252C0.998979 16.7016 1 16.0237 1 15.2002V8.79981C1 8.18237 0.99982 7.64687 1.01856 7.18555C0.987417 7.02077 0.997515 6.84891 1.05176 6.68555C1.09988 6.1477 1.1975 5.6508 1.43555 5.1836C1.81902 4.43109 2.43109 3.81902 3.1836 3.43555C3.6689 3.18827 4.18599 3.08988 4.74805 3.04395C5.29843 2.99898 5.97632 3 6.79981 3H17.2002C18.0237 3 18.7016 2.99898 19.252 3.04395C19.814 3.08988 20.3311 3.18827 20.8164 3.43555C21.5689 3.81902 22.181 4.43109 22.5645 5.1836C22.8025 5.6508 22.9001 6.1477 22.9482 6.68555C23.0025 6.84891 23.0126 7.02077 22.9814 7.18555C23.0002 7.64687 23 8.18237 23 8.79981V15.2002Z" fill="#132930"/>
</svg>
