<svg width="24" height="24" viewBox="0 0 24 24" fill="none" xmlns="http://www.w3.org/2000/svg">
<path d="M16.2929 2.29268C17.788 0.797777 20.2119 0.797795 21.707 2.29268C23.202 3.78773 23.202 6.21164 21.707 7.70674L8.50095 20.9138C8.23514 21.1796 8.00726 21.4138 7.73337 21.5944C7.50774 21.7432 7.26295 21.8608 7.00583 21.944C6.69374 22.0451 6.36863 22.0764 5.99509 22.1179L2.61032 22.4939C2.30842 22.5274 2.00773 22.4215 1.79294 22.2067C1.57823 21.9919 1.47229 21.6912 1.50583 21.3894L1.8818 18.0056C1.92332 17.6319 1.95457 17.306 2.05563 16.9939C2.13888 16.7367 2.25744 16.4919 2.40622 16.2663C2.58682 15.9926 2.82116 15.7645 3.08688 15.4987L16.2929 2.29268ZM4.50095 16.9138C4.17854 17.2362 4.11815 17.3027 4.07516 17.3679C4.02567 17.443 3.98667 17.5245 3.95895 17.6101C3.9349 17.6844 3.92045 17.773 3.87009 18.2263L3.6318 20.3679L5.77438 20.1306C6.22716 20.0803 6.31536 20.0648 6.38962 20.0407C6.47534 20.013 6.55756 19.9741 6.63278 19.9245C6.69788 19.8815 6.7649 19.8207 7.08688 19.4987L16.5859 9.99971L14 7.41377L4.50095 16.9138ZM20.2929 3.70674C19.5789 2.9929 18.421 2.99289 17.707 3.70674L15.414 5.99971L18 8.58565L20.2929 6.29268C21.0068 5.57862 21.0069 4.42074 20.2929 3.70674Z" fill="#132930"/>
</svg>
