<svg width="24" height="24" viewBox="0 0 24 24" fill="none" xmlns="http://www.w3.org/2000/svg">
<path d="M16.293 2.29268C17.788 0.797777 20.212 0.797795 21.707 2.29268C23.2021 3.78773 23.202 6.21164 21.707 7.70674L8.50098 20.9138C8.23517 21.1796 8.0073 21.4138 7.7334 21.5944C7.50777 21.7432 7.26298 21.8608 7.00586 21.944C6.69377 22.0451 6.36866 22.0764 5.99512 22.1179L2.61035 22.4939C2.30845 22.5274 2.00776 22.4215 1.79297 22.2067C1.57826 21.9919 1.47232 21.6912 1.50586 21.3894L1.88184 18.0056C1.92336 17.6319 1.9546 17.306 2.05566 16.9939C2.13891 16.7367 2.25747 16.4919 2.40625 16.2663C2.58686 15.9926 2.82119 15.7645 3.08691 15.4987L16.293 2.29268ZM4.50098 16.9138C4.17857 17.2362 4.11818 17.3027 4.07519 17.3679C4.0257 17.443 3.9867 17.5245 3.95898 17.6101C3.93493 17.6844 3.92048 17.773 3.87012 18.2263L3.63184 20.3679L5.77441 20.1306C6.22719 20.0803 6.31539 20.0648 6.38965 20.0407C6.47537 20.013 6.55759 19.9741 6.63281 19.9245C6.69791 19.8815 6.76493 19.8207 7.08691 19.4987L16.5859 9.99971L14 7.41377L4.50098 16.9138ZM20.293 3.70674C19.579 2.9929 18.421 2.99289 17.707 3.70674L15.4141 5.99971L18 8.58565L20.293 6.29268C21.0069 5.57862 21.007 4.42074 20.293 3.70674Z" fill="#132930"/>
</svg>
