<svg width="24" height="24" viewBox="0 0 24 24" fill="none" xmlns="http://www.w3.org/2000/svg">
<path d="M18 11.6176L12.8047 14.2153C12.7253 14.255 12.515 14.3707 12.2764 14.4155C12.0937 14.4497 11.9063 14.4497 11.7236 14.4155C11.485 14.3707 11.2747 14.255 11.1953 14.2153L6 11.6176V16.0112C6 16.2027 6.00044 16.3012 6.00488 16.3725C6.00501 16.3745 6.00476 16.3765 6.00488 16.3784C6.00671 16.3795 6.00871 16.3811 6.01074 16.3823C6.07251 16.4181 6.16094 16.4628 6.33203 16.5483L11.7314 19.2475C11.8718 19.3177 11.9433 19.3535 11.9961 19.3764C11.9974 19.377 11.9988 19.3769 12 19.3774C12.0012 19.3769 12.0026 19.377 12.0039 19.3764C12.0567 19.3535 12.1282 19.3177 12.2686 19.2475L17.668 16.5483C17.8391 16.4627 17.9275 16.4181 17.9893 16.3823C17.991 16.3813 17.9925 16.3793 17.9941 16.3784C17.9943 16.3765 17.995 16.3746 17.9951 16.3725C17.9996 16.3012 18 16.2027 18 16.0112V11.6176ZM4.23535 8.49947L12 12.3813L19.7637 8.49947L12 4.61763L4.23535 8.49947ZM20 16.2417C19.9979 16.4865 19.9823 16.7676 19.8906 17.0336C19.794 17.3139 19.6361 17.5699 19.4287 17.7817C19.1662 18.0497 18.8187 18.2083 18.5625 18.3364L13.1631 21.0366C12.9526 21.1418 12.6766 21.2904 12.3691 21.3481C12.1254 21.3938 11.8746 21.3938 11.6309 21.3481C11.3234 21.2904 11.0474 21.1418 10.8369 21.0366L5.4375 18.3364C5.18135 18.2083 4.83383 18.0497 4.57129 17.7817C4.36386 17.5699 4.20604 17.3139 4.10938 17.0336C4.01769 16.7676 4.00205 16.4865 4 16.2417V10.6176L1.55273 9.394C1.2142 9.22463 1.00016 8.87897 1 8.50045C1 8.12174 1.21405 7.77534 1.55273 7.60591L11.1953 2.78463C11.2748 2.74487 11.4851 2.62919 11.7236 2.58443L11.8613 2.56588C11.9536 2.55731 12.0464 2.55731 12.1387 2.56588L12.2764 2.58443L12.4482 2.62935C12.6119 2.68248 12.745 2.75479 12.8047 2.78463L22.4473 7.60591C22.786 7.77534 23 8.12174 23 8.50045C22.9998 8.87897 22.7858 9.22463 22.4473 9.394L20 10.6176V16.2417Z" fill="#132930"/>
</svg>
