<svg width="24" height="24" viewBox="0 0 24 24" fill="none" xmlns="http://www.w3.org/2000/svg">
<path d="M1.78564 20.2498V3.7499C1.78564 3.33313 1.95121 2.93344 2.2459 2.63873C2.54061 2.34403 2.9403 2.17847 3.35707 2.17847H9.15564C9.51461 2.16801 9.86634 2.28082 10.1523 2.49812C10.4382 2.71542 10.641 3.02409 10.7271 3.37276L11.2142 5.32133H20.6428C21.0595 5.32133 21.4593 5.48688 21.7539 5.78159C22.0486 6.07629 22.2142 6.47599 22.2142 6.89276V20.2498C22.2142 20.6667 22.0486 21.0664 21.7539 21.361C21.4593 21.6558 21.0595 21.8213 20.6428 21.8213H3.35707C2.9403 21.8213 2.54061 21.6558 2.2459 21.361C1.95121 21.0664 1.78564 20.6667 1.78564 20.2498Z" fill="#F2F2F2"/>
<path d="M0.785645 20.3748V3.62563C0.785645 2.9334 1.05644 2.26931 1.53857 1.77981C2.02078 1.29033 2.67499 1.01555 3.35693 1.01551H9.15576C9.733 1.0051 10.2972 1.19189 10.7573 1.54685C11.2242 1.90709 11.5555 2.4184 11.6968 2.99615L11.9946 4.20554H20.6431C21.3249 4.20562 21.9792 4.48026 22.4614 4.96984C22.9434 5.45923 23.2143 6.12332 23.2144 6.81566V20.3748C23.2143 21.0672 22.9435 21.7313 22.4614 22.2206L22.4604 22.2196C21.9781 22.7094 21.3247 22.9848 20.6431 22.9849H3.35693C2.6752 22.9849 2.0209 22.7103 1.53857 22.2206C1.05634 21.7312 0.785704 21.0671 0.785645 20.3748ZM2.78564 20.3748C2.7857 20.5285 2.84583 20.6756 2.95264 20.7842L2.95361 20.7852C3.06057 20.8936 3.2055 20.9547 3.35693 20.9547H20.6431C20.7945 20.9546 20.9396 20.8935 21.0464 20.7852L21.1187 20.696C21.1806 20.6015 21.2143 20.4899 21.2144 20.3748V6.81566C21.2143 6.66196 21.1536 6.51412 21.0464 6.40526C20.9395 6.29687 20.7944 6.23582 20.6431 6.23574H11.2144C10.7555 6.23574 10.3549 5.91838 10.2437 5.46649L9.75732 3.48883L9.75635 3.48585C9.72506 3.35716 9.65134 3.2429 9.54736 3.16269C9.44347 3.08254 9.31548 3.04093 9.18506 3.04472C9.17539 3.04501 9.16543 3.04571 9.15576 3.04571H3.35693C3.20543 3.04575 3.05977 3.10647 2.95264 3.21523C2.84556 3.324 2.78564 3.47186 2.78564 3.62563V20.3748Z" fill="#202020"/>
</svg>
