<svg width="24" height="24" viewBox="0 0 24 24" fill="none" xmlns="http://www.w3.org/2000/svg">
<path d="M21 11.7998C21 10.9434 20.9997 10.3611 20.9629 9.9111C20.9271 9.47268 20.8619 9.24816 20.7822 9.09176C20.5905 8.71551 20.2845 8.40947 19.9082 8.21774C19.7518 8.13805 19.5273 8.0729 19.0889 8.03708C18.6388 8.00032 18.0566 7.99997 17.2002 7.99997H3V16.2002C3 17.0566 3.00035 17.6388 3.03711 18.0888C3.07293 18.5273 3.13809 18.7518 3.21778 18.9082C3.40951 19.2844 3.71555 19.5905 4.0918 19.7822C4.2482 19.8619 4.47272 19.927 4.91114 19.9629C5.36117 19.9996 5.94342 20 6.79981 20H17.2002C18.0566 20 18.6388 19.9996 19.0889 19.9629C19.5273 19.927 19.7518 19.8619 19.9082 19.7822C20.2845 19.5905 20.5905 19.2844 20.7822 18.9082C20.8619 18.7518 20.9271 18.5273 20.9629 18.0888C20.9997 17.6388 21 17.0566 21 16.2002V11.7998ZM5.2002 3.99997C4.62365 3.99997 4.25112 4.00123 3.96778 4.02438C3.69619 4.04658 3.59534 4.08415 3.5459 4.10934C3.35793 4.20518 3.20522 4.3579 3.10938 4.54587C3.08419 4.5953 3.04662 4.69615 3.02442 4.96774C3.00406 5.21689 3.00142 5.53486 3.00098 5.99997H11.3818L10.9902 5.21579C10.6368 4.50898 10.555 4.3744 10.4639 4.28512C10.358 4.18146 10.2299 4.10297 10.0898 4.05465C9.96925 4.01309 9.81244 3.99997 9.02247 3.99997H5.2002ZM23 16.2002C23 17.0237 23.001 17.7015 22.9561 18.2519C22.9101 18.814 22.8117 19.3311 22.5645 19.8164C22.181 20.5689 21.5689 21.181 20.8164 21.5644C20.3311 21.8117 19.814 21.9101 19.252 21.956C18.7016 22.001 18.0237 22 17.2002 22H6.79981C5.97632 22 5.29843 22.001 4.74805 21.956C4.186 21.9101 3.6689 21.8117 3.1836 21.5644C2.43109 21.181 1.81902 20.5689 1.43555 19.8164C1.18828 19.3311 1.08988 18.814 1.04395 18.2519C0.998982 17.7015 1 17.0237 1 16.2002V6.20016C1 5.65661 0.998931 5.18833 1.03028 4.80465C1.06259 4.4094 1.1344 4.01596 1.32715 3.63766C1.61473 3.07344 2.07348 2.61469 2.6377 2.32712C3.016 2.13436 3.40943 2.06255 3.80469 2.03024C4.18836 1.99889 4.65665 1.99997 5.2002 1.99997H9.02247C9.66782 1.99996 10.229 1.98703 10.7422 2.16403C11.1625 2.30902 11.5456 2.5453 11.8633 2.85641C12.2511 3.23622 12.4907 3.74405 12.7793 4.32126L13.6182 5.99997H17.2002C18.0237 5.99997 18.7016 5.99894 19.252 6.04391C19.814 6.08984 20.3311 6.18824 20.8164 6.43551C21.5689 6.81898 22.181 7.43105 22.5645 8.18356C22.8117 8.66887 22.9101 9.18596 22.9561 9.74801C23.001 10.2984 23 10.9763 23 11.7998V16.2002Z" fill="#132930"/>
</svg>
