<svg width="24" height="24" viewBox="0 0 24 24" fill="none" xmlns="http://www.w3.org/2000/svg">
<path d="M1.78572 20.2498V3.7499C1.78572 3.33312 1.95128 2.93343 2.24598 2.63872C2.54068 2.34402 2.94038 2.17846 3.35715 2.17846H9.15572C9.51468 2.168 9.86642 2.28081 10.1523 2.49811C10.4382 2.71541 10.6411 3.02409 10.7271 3.37275L11.2143 5.32133H20.6429C21.0596 5.32133 21.4594 5.48688 21.754 5.78158C22.0487 6.07629 22.2143 6.47598 22.2143 6.89275V20.2498C22.2143 20.6667 22.0487 21.0663 21.754 21.361C21.4594 21.6558 21.0596 21.8213 20.6429 21.8213H3.35715C2.94038 21.8213 2.54068 21.6558 2.24598 21.361C1.95128 21.0663 1.78572 20.6667 1.78572 20.2498Z" fill="#F2F2F2"/>
<path d="M0.785645 20.3748V3.6256C0.785645 2.93338 1.05644 2.26929 1.53857 1.77979C2.02078 1.2903 2.67499 1.01553 3.35693 1.01549H9.15576C9.733 1.00508 10.2972 1.19187 10.7573 1.54683C11.2242 1.90706 11.5555 2.41838 11.6968 2.99612L11.9946 4.20552H20.6431C21.3249 4.2056 21.9792 4.48024 22.4614 4.96982C22.9434 5.45921 23.2143 6.12329 23.2144 6.81564V20.3748C23.2143 21.0672 22.9435 21.7312 22.4614 22.2206L22.4604 22.2196C21.9781 22.7094 21.3247 22.9848 20.6431 22.9849H3.35693C2.6752 22.9848 2.0209 22.7103 1.53857 22.2206C1.05634 21.7311 0.785704 21.0671 0.785645 20.3748ZM2.78564 20.3748C2.7857 20.5285 2.84583 20.6756 2.95264 20.7842L2.95361 20.7852C3.06057 20.8935 3.2055 20.9546 3.35693 20.9547H20.6431C20.7945 20.9546 20.9396 20.8935 21.0464 20.7852L21.1187 20.6959C21.1806 20.6015 21.2143 20.4899 21.2144 20.3748V6.81564C21.2143 6.66194 21.1536 6.5141 21.0464 6.40523C20.9395 6.29685 20.7944 6.2358 20.6431 6.23572H11.2144C10.7555 6.23572 10.3549 5.91835 10.2437 5.46646L9.75732 3.4888L9.75635 3.48583C9.72506 3.35714 9.65134 3.24288 9.54736 3.16266C9.44347 3.08252 9.31548 3.04091 9.18506 3.0447C9.17539 3.04498 9.16543 3.04569 9.15576 3.04569H3.35693C3.20543 3.04573 3.05977 3.10645 2.95264 3.2152C2.84556 3.32398 2.78564 3.47184 2.78564 3.6256V20.3748Z" fill="#202020"/>
</svg>
