<svg width="24" height="24" viewBox="0 0 24 24" fill="none" xmlns="http://www.w3.org/2000/svg">
<path d="M1.78572 19.9486V3.6941C1.78572 3.28353 1.95128 2.88978 2.24598 2.59946C2.54068 2.30914 2.94038 2.14604 3.35715 2.14604H9.15572C9.51468 2.13574 9.86642 2.24687 10.1523 2.46094C10.4382 2.675 10.6411 2.97909 10.7271 3.32257L11.2143 5.24215H20.6429C21.0596 5.24215 21.4594 5.40524 21.754 5.69556C22.0487 5.98588 22.2143 6.37963 22.2143 6.79021V19.9486C22.2143 20.3593 22.0487 20.753 21.754 21.0432C21.4594 21.3336 21.0596 21.4966 20.6429 21.4966H3.35715C2.94038 21.4966 2.54068 21.3336 2.24598 21.0432C1.95128 20.753 1.78572 20.3593 1.78572 19.9486Z" fill="#F2F2F2"/>
<path d="M0.785645 20.0717V3.5717C0.785645 2.88977 1.05644 2.23556 1.53857 1.75334C2.02078 1.27113 2.67499 1.00044 3.35693 1.00041H9.15576C9.733 0.990148 10.2972 1.17416 10.7573 1.52384C11.2242 1.87872 11.5555 2.38243 11.6968 2.95158L11.9946 4.14298H20.6431C21.3249 4.14306 21.9792 4.41361 22.4614 4.89591C22.9434 5.37802 23.2143 6.03223 23.2144 6.71427V20.0717C23.2143 20.7538 22.9435 21.408 22.4614 21.8901L22.4604 21.8891C21.9781 22.3716 21.3247 22.6429 20.6431 22.643H3.35693C2.6752 22.6429 2.0209 22.3725 1.53857 21.8901C1.05634 21.4079 0.785704 20.7537 0.785645 20.0717ZM2.78564 20.0717C2.7857 20.2231 2.84583 20.368 2.95264 20.475L2.95361 20.476C3.06057 20.5828 3.2055 20.6429 3.35693 20.643H20.6431C20.7945 20.6429 20.9396 20.5827 21.0464 20.476L21.1187 20.3881C21.1806 20.2951 21.2143 20.1851 21.2144 20.0717V6.71427C21.2143 6.56286 21.1536 6.41722 21.0464 6.30998C20.9395 6.2032 20.7944 6.14306 20.6431 6.14298H11.2144C10.7555 6.14298 10.3549 5.83034 10.2437 5.38517L9.75732 3.43693L9.75635 3.434C9.72506 3.30722 9.65134 3.19467 9.54736 3.11564C9.44347 3.03669 9.31548 2.9957 9.18506 2.99943C9.17539 2.99971 9.16543 3.00041 9.15576 3.00041H3.35693C3.20543 3.00044 3.05977 3.06027 2.95264 3.1674C2.84556 3.27456 2.78564 3.42022 2.78564 3.5717V20.0717Z" fill="#202020"/>
</svg>
