<svg width="24" height="24" viewBox="0 0 24 24" fill="none" xmlns="http://www.w3.org/2000/svg">
<path d="M1.78572 20.2499V3.74996C1.78572 3.33318 1.95128 2.93349 2.24598 2.63879C2.54068 2.34408 2.94038 2.17852 3.35715 2.17852H9.15572C9.51468 2.16807 9.86642 2.28088 10.1523 2.49817C10.4382 2.71547 10.6411 3.02415 10.7271 3.37282L11.2143 5.32139H20.6429C21.0596 5.32139 21.4594 5.48694 21.754 5.78164C22.0487 6.07635 22.2143 6.47604 22.2143 6.89282V20.2499C22.2143 20.6668 22.0487 21.0664 21.754 21.3611C21.4594 21.6559 21.0596 21.8213 20.6429 21.8213H3.35715C2.94038 21.8213 2.54068 21.6559 2.24598 21.3611C1.95128 21.0664 1.78572 20.6668 1.78572 20.2499Z" fill="#FDF2F9"/>
<path d="M0.785721 20.25V3.75004C0.785721 3.06811 1.05652 2.4139 1.53865 1.93168C2.02085 1.44948 2.67507 1.17879 3.35701 1.17875H9.15584C9.73308 1.16849 10.2973 1.3525 10.7574 1.70219C11.2243 2.05706 11.5556 2.56077 11.6969 3.12992L11.9947 4.32133H20.6431C21.3249 4.3214 21.9793 4.59196 22.4615 5.07426C22.9435 5.55637 23.2144 6.21057 23.2144 6.89262V20.25C23.2144 20.9322 22.9435 21.5863 22.4615 22.0684L22.4605 22.0674C21.9782 22.5499 21.3247 22.8213 20.6431 22.8213H3.35701C2.67527 22.8213 2.02098 22.5508 1.53865 22.0684C1.05641 21.5862 0.78578 20.9321 0.785721 20.25ZM2.78572 20.25C2.78578 20.4015 2.8459 20.5464 2.95271 20.6534L2.95369 20.6543C3.06064 20.7611 3.20558 20.8213 3.35701 20.8213H20.6431C20.7946 20.8213 20.9397 20.7611 21.0465 20.6543L21.1187 20.5664C21.1806 20.4734 21.2144 20.3635 21.2144 20.25V6.89262C21.2144 6.7412 21.1537 6.59557 21.0465 6.48832C20.9395 6.38155 20.7945 6.3214 20.6431 6.32133H11.2144C10.7556 6.32133 10.355 6.00868 10.2437 5.56352L9.7574 3.61527L9.75642 3.61235C9.72514 3.48557 9.65141 3.37301 9.54744 3.29399C9.44355 3.21504 9.31556 3.17404 9.18513 3.17778C9.17547 3.17806 9.16551 3.17875 9.15584 3.17875H3.35701C3.20551 3.17879 3.05985 3.23861 2.95271 3.34574C2.84564 3.4529 2.78572 3.59856 2.78572 3.75004V20.25Z" fill="#8D005E"/>
</svg>
