<svg width="24" height="24" viewBox="0 0 24 24" fill="none" xmlns="http://www.w3.org/2000/svg">
<path fill-rule="evenodd" clip-rule="evenodd" d="M23 12C23 18.0751 18.0751 23 12 23C5.92487 23 1 18.0751 1 12C0.999999 5.92487 5.92487 1 12 1C18.0751 0.999999 23 5.92487 23 12ZM12 11C12.8284 11 13.5 11.6716 13.5 12.5V16.5C13.5 17.3284 12.8284 18 12 18C11.1716 18 10.5 17.3284 10.5 16.5L10.5 12.5C10.5 11.6716 11.1716 11 12 11ZM12 6C12.8284 6 13.5 6.67157 13.5 7.5C13.5 8.32843 12.8284 9 12 9C11.1716 9 10.5 8.32843 10.5 7.5C10.5 6.67157 11.1716 6 12 6Z" fill="#132930"/>
</svg>
