<svg width="24" height="24" viewBox="0 0 24 24" fill="none" xmlns="http://www.w3.org/2000/svg">
<path d="M11 22V20C11 19.4477 11.4477 19 12 19C12.5523 19 13 19.4477 13 20V22C13 22.5523 12.5523 23 12 23C11.4477 23 11 22.5523 11 22ZM5.60742 16.9824C5.99795 16.5924 6.6311 16.5921 7.02148 16.9824C7.41201 17.3729 7.41201 18.0069 7.02148 18.3975L5.60742 19.8115C5.2169 20.202 4.58291 20.202 4.19238 19.8115C3.80209 19.4211 3.80228 18.788 4.19238 18.3975L5.60742 16.9824ZM16.9785 16.9824C17.3689 16.5921 18.0021 16.5924 18.3926 16.9824L19.8076 18.3975C20.1977 18.788 20.1979 19.4211 19.8076 19.8115C19.4171 20.202 18.7831 20.202 18.3926 19.8115L16.9785 18.3975C16.588 18.0069 16.588 17.3729 16.9785 16.9824ZM16 12C16 9.79086 14.2091 8 12 8C9.79086 8 8 9.79086 8 12C8 14.2091 9.79086 16 12 16C14.2091 16 16 14.2091 16 12ZM4 11C4.55228 11 5 11.4477 5 12C5 12.5523 4.55228 13 4 13H2C1.44772 13 1 12.5523 1 12C1 11.4477 1.44772 11 2 11H4ZM22 11C22.5523 11 23 11.4477 23 12C23 12.5523 22.5523 13 22 13H20C19.4477 13 19 12.5523 19 12C19 11.4477 19.4477 11 20 11H22ZM4.19238 4.19238C4.58291 3.80186 5.2169 3.80186 5.60742 4.19238L7.02148 5.60742C7.41167 5.99797 7.4119 6.63107 7.02148 7.02148C6.63107 7.4119 5.99797 7.41167 5.60742 7.02148L4.19238 5.60742C3.80186 5.2169 3.80186 4.58291 4.19238 4.19238ZM18.3926 4.19238C18.7831 3.80186 19.4171 3.80186 19.8076 4.19238C20.1981 4.58291 20.1981 5.2169 19.8076 5.60742L18.3926 7.02148C18.002 7.41167 17.3689 7.4119 16.9785 7.02148C16.5881 6.63107 16.5883 5.99797 16.9785 5.60742L18.3926 4.19238ZM11 4V2C11 1.44772 11.4477 1 12 1C12.5523 1 13 1.44772 13 2V4C13 4.55228 12.5523 5 12 5C11.4477 5 11 4.55228 11 4ZM18 12C18 15.3137 15.3137 18 12 18C8.68629 18 6 15.3137 6 12C6 8.68629 8.68629 6 12 6C15.3137 6 18 8.68629 18 12Z" fill="#132930"/>
</svg>
