<svg width="24" height="24" viewBox="0 0 24 24" fill="none" xmlns="http://www.w3.org/2000/svg">
<path d="M19 14.7998C19 13.9434 18.9997 13.3612 18.9629 12.9111C18.9271 12.4727 18.8619 12.2482 18.7822 12.0918C18.5905 11.7155 18.2845 11.4095 17.9082 11.2178C17.7518 11.1381 17.5273 11.0729 17.0889 11.0371C16.6388 11.0003 16.0566 11 15.2002 11H8.79981C7.94342 11 7.36117 11.0003 6.91113 11.0371C6.47272 11.0729 6.2482 11.1381 6.0918 11.2178C5.71555 11.4095 5.40951 11.7155 5.21778 12.0918C5.13809 12.2482 5.07293 12.4727 5.03711 12.9111C5.00035 13.3612 5 13.9434 5 14.7998V16.2002L5.00488 17.2969C5.00967 17.6057 5.01873 17.8638 5.03711 18.0889C5.07293 18.5273 5.13809 18.7518 5.21778 18.9082C5.40951 19.2845 5.71555 19.5905 6.0918 19.7822C6.2482 19.8619 6.47272 19.9271 6.91113 19.9629C7.36117 19.9997 7.94342 20 8.79981 20H15.2002C16.0566 20 16.6388 19.9997 17.0889 19.9629C17.5273 19.9271 17.7518 19.8619 17.9082 19.7822C18.2845 19.5905 18.5905 19.2845 18.7822 18.9082C18.8619 18.7518 18.9271 18.5273 18.9629 18.0889C18.9997 17.6388 19 17.0566 19 16.2002V14.7998ZM11 16.5V14.5C11 13.9477 11.4477 13.5 12 13.5C12.5523 13.5 13 13.9477 13 14.5V16.5C13 17.0523 12.5523 17.5 12 17.5C11.4477 17.5 11 17.0523 11 16.5ZM16 8C16 5.79086 14.2091 4 12 4C9.79086 4 8 5.79086 8 8V9.00293C8.24982 9.00121 8.51616 9 8.79981 9H15.2002C15.4838 9 15.7502 9.00121 16 9.00293V8ZM18 9.15137C18.2825 9.2133 18.5544 9.30203 18.8164 9.43555C19.5689 9.81902 20.181 10.4311 20.5645 11.1836C20.8117 11.6689 20.9101 12.186 20.9561 12.748C21.001 13.2984 21 13.9763 21 14.7998V16.2002C21 17.0237 21.001 17.7016 20.9561 18.252C20.9101 18.814 20.8117 19.3311 20.5645 19.8164C20.181 20.5689 19.5689 21.181 18.8164 21.5645C18.3311 21.8117 17.814 21.9101 17.252 21.9561C16.7016 22.001 16.0237 22 15.2002 22H8.79981C7.97632 22 7.29843 22.001 6.74805 21.9561C6.18599 21.9101 5.6689 21.8117 5.1836 21.5645C4.43109 21.181 3.81902 20.5689 3.43555 19.8164C3.18827 19.3311 3.08988 18.814 3.04395 18.252C3.02146 17.9767 3.01031 17.6694 3.00488 17.3281L3 16.2002V14.7998C3 13.9763 2.99898 13.2984 3.04395 12.748C3.08988 12.186 3.18827 11.6689 3.43555 11.1836C3.81902 10.4311 4.43109 9.81902 5.1836 9.43555C5.44563 9.30203 5.71747 9.2133 6 9.15137V8C6 4.68629 8.68629 2 12 2C15.3137 2 18 4.68629 18 8V9.15137Z" fill="#132930"/>
</svg>
