<svg width="24" height="24" viewBox="0 0 24 24" fill="none" xmlns="http://www.w3.org/2000/svg">
<path d="M2 16.2002V7.79981C2 6.97632 1.99898 6.29843 2.04395 5.74805C2.08988 5.18599 2.18827 4.6689 2.43555 4.1836C2.81902 3.43109 3.43109 2.81902 4.1836 2.43555C4.6689 2.18827 5.18599 2.08988 5.74805 2.04395C6.29843 1.99898 6.97632 2 7.79981 2H9C9.55229 2 10 2.44772 10 3C10 3.55229 9.55229 4 9 4H7.79981C6.94342 4 6.36117 4.00035 5.91113 4.03711C5.47272 4.07293 5.2482 4.13809 5.0918 4.21778C4.71555 4.40951 4.40951 4.71555 4.21778 5.0918C4.13809 5.2482 4.07293 5.47272 4.03711 5.91113C4.00035 6.36117 4 6.94342 4 7.79981V16.2002C4 17.0566 4.00035 17.6388 4.03711 18.0889C4.07293 18.5273 4.13809 18.7518 4.21778 18.9082C4.40951 19.2845 4.71554 19.5905 5.0918 19.7822C5.2482 19.8619 5.47272 19.9271 5.91113 19.9629C6.36117 19.9997 6.94342 20 7.79981 20H9C9.55229 20 10 20.4477 10 21C10 21.5523 9.55229 22 9 22H7.79981C6.97632 22 6.29843 22.001 5.74805 21.9561C5.18599 21.9101 4.6689 21.8117 4.1836 21.5645C3.43109 21.181 2.81902 20.5689 2.43555 19.8164C2.18827 19.3311 2.08988 18.814 2.04395 18.252C1.99898 17.7016 2 17.0237 2 16.2002ZM15.293 6.29297C15.6835 5.90245 16.3165 5.90245 16.707 6.29297L21.707 11.293C22.0976 11.6835 22.0976 12.3165 21.707 12.707L16.707 17.707C16.3165 18.0976 15.6835 18.0976 15.293 17.707C14.9024 17.3165 14.9024 16.6835 15.293 16.293L18.5859 13H9C8.44772 13 8 12.5523 8 12C8 11.4477 8.44772 11 9 11H18.5859L15.293 7.70703C14.9024 7.31651 14.9024 6.68349 15.293 6.29297Z" fill="#132930"/>
</svg>
