<svg width="24" height="24" viewBox="0 0 24 24" fill="none" xmlns="http://www.w3.org/2000/svg">
<path d="M11.293 7.29305C11.6835 6.90253 12.3165 6.90253 12.707 7.29305L16.707 11.2931C17.0976 11.6836 17.0976 12.3166 16.707 12.7071L12.707 16.7071C12.3165 17.0976 11.6835 17.0976 11.293 16.7071C10.9024 16.3166 10.9024 15.6836 11.293 15.2931L13.5859 13.0001H3C2.44772 13.0001 2 12.5524 2 12.0001C2 11.4478 2.44772 11.0001 3 11.0001H13.5859L11.293 8.70712C10.9024 8.31659 10.9024 7.68358 11.293 7.29305ZM5 7.00008C5 6.1345 4.99183 5.50565 5.13672 4.96493C5.50659 3.58456 6.58448 2.50667 7.96484 2.1368C8.50556 1.99192 9.13441 2.00008 10 2.00008H16.2002C17.0237 2.00008 17.7016 1.99906 18.252 2.04403C18.814 2.08996 19.3311 2.18836 19.8164 2.43563C20.5689 2.8191 21.181 3.43117 21.5645 4.18368C21.8117 4.66898 21.9101 5.18607 21.9561 5.74813C22.001 6.29851 22 6.9764 22 7.79989V16.2003C22 17.0238 22.001 17.7017 21.9561 18.252C21.9101 18.8141 21.8117 19.3312 21.5645 19.8165C21.181 20.569 20.5689 21.1811 19.8164 21.5645C19.3311 21.8118 18.814 21.9102 18.252 21.9561C17.7016 22.0011 17.0237 22.0001 16.2002 22.0001H10C9.13441 22.0001 8.50556 22.0082 7.96484 21.8634C6.58448 21.4935 5.50659 20.4156 5.13672 19.0352C4.99183 18.4945 5 17.8657 5 17.0001C5 16.4478 5.44772 16.0001 6 16.0001C6.55228 16.0001 7 16.4478 7 17.0001C7 17.9944 7.0088 18.2954 7.06836 18.5177C7.25329 19.2078 7.79224 19.7468 8.48242 19.9317C8.7047 19.9913 9.00565 20.0001 10 20.0001H16.2002C17.0566 20.0001 17.6388 19.9997 18.0889 19.963C18.5273 19.9272 18.7518 19.862 18.9082 19.7823C19.2845 19.5906 19.5905 19.2845 19.7822 18.9083C19.8619 18.7519 19.9271 18.5274 19.9629 18.089C19.9997 17.6389 20 17.0567 20 16.2003V7.79989C20 6.9435 19.9997 6.36125 19.9629 5.91122C19.9271 5.4728 19.8619 5.24828 19.7822 5.09188C19.5905 4.71563 19.2845 4.40959 18.9082 4.21786C18.7518 4.13817 18.5273 4.07301 18.0889 4.03719C17.6388 4.00043 17.0566 4.00008 16.2002 4.00008H10C9.00565 4.00008 8.7047 4.00888 8.48242 4.06844C7.79224 4.25338 7.25329 4.79232 7.06836 5.48251C7.0088 5.70478 7 6.00573 7 7.00008C7 7.55237 6.55228 8.00008 6 8.00008C5.44772 8.00008 5 7.55237 5 7.00008Z" fill="#132930"/>
</svg>
