<svg width="24" height="24" viewBox="0 0 24 24" fill="none" xmlns="http://www.w3.org/2000/svg">
<path fill-rule="evenodd" clip-rule="evenodd" d="M22.8047 5.26094C23.5266 5.9875 23.7609 7.64219 23.7609 7.64219C23.7609 7.64219 24 9.5875 24 11.5281V13.3469C24 15.2922 23.7609 17.2328 23.7609 17.2328C23.7609 17.2328 23.5266 18.8875 22.8047 19.6141C21.981 20.4757 21.0698 20.5648 20.5547 20.6151C20.4981 20.6206 20.4464 20.6257 20.4 20.6313C17.0438 20.8703 12 20.8797 12 20.8797C12 20.8797 5.76094 20.8234 3.83906 20.6406C3.74559 20.6226 3.63174 20.6087 3.50262 20.593C2.89361 20.5187 1.94479 20.403 1.19062 19.6141C0.473437 18.8875 0.239062 17.2328 0.239062 17.2328C0.239062 17.2328 0 15.2875 0 13.3469V11.5281C0 9.5875 0.24375 7.64219 0.24375 7.64219C0.24375 7.64219 0.473438 5.9875 1.19531 5.26094C2.01896 4.39927 2.93015 4.31024 3.44531 4.2599C3.50186 4.25437 3.55363 4.24931 3.6 4.24375C6.95625 4 11.9953 4 11.9953 4H12.0047C12.0047 4 17.0438 4 20.4 4.24375C20.4464 4.24931 20.4981 4.25437 20.5547 4.2599C21.0698 4.31024 21.981 4.39927 22.8047 5.26094ZM15.8421 12L9.56934 8.4314V15.5687L15.8421 12Z" fill="#132930"/>
</svg>
