<svg width="24" height="24" viewBox="0 0 24 24" fill="none" xmlns="http://www.w3.org/2000/svg">
<path fill-rule="evenodd" clip-rule="evenodd" d="M2.66303 2.01536C2.44675 2.06162 2.26107 2.18742 2.14003 2.3697C1.97196 2.62279 1.95427 2.93215 2.09191 3.21093C2.11331 3.2543 2.22286 3.40663 2.44303 3.6992C2.61903 3.93307 4.31103 6.17924 6.20303 8.69068C8.09503 11.2021 9.64303 13.2602 9.64303 13.2642C9.64303 13.2682 8.16883 14.8523 6.36703 16.7844C4.56523 18.7166 3.03204 20.3609 2.95995 20.4386C2.77466 20.6381 2.71932 20.7259 2.67328 20.8934C2.65422 20.9628 2.65174 20.9862 2.6514 21.0997C2.65099 21.2401 2.66043 21.2961 2.70326 21.4069C2.79603 21.6471 3.00355 21.8343 3.25903 21.9084C3.3464 21.9337 3.52179 21.9437 3.61167 21.9284C3.77021 21.9014 3.9189 21.8309 4.03247 21.7289C4.05525 21.7084 5.55658 20.1014 7.36875 18.1577C9.18091 16.214 10.6662 14.6239 10.6693 14.6242C10.6725 14.6245 11.8612 16.1997 13.311 18.1247C14.7608 20.0497 15.9658 21.6456 15.9887 21.6711C16.0701 21.7617 16.2067 21.8508 16.3271 21.8917C16.4647 21.9385 16.3002 21.9357 18.8859 21.9356C21.1716 21.9355 21.2617 21.9349 21.331 21.9205C21.6514 21.8541 21.8966 21.6177 21.9768 21.2981C22.0028 21.1945 22.0024 21.0091 21.976 20.9082C21.9508 20.812 21.9125 20.7236 21.8658 20.6536C21.8445 20.6217 20.1447 18.3626 18.0885 15.6333L14.35 10.6709L14.3959 10.6213C14.4212 10.594 15.9505 8.95392 17.7945 6.97664C19.6384 4.99936 21.165 3.35776 21.1871 3.32864C21.4072 3.03741 21.4063 2.62821 21.1851 2.33142C21.0755 2.18453 20.9091 2.0717 20.731 2.02354C20.6345 1.99744 20.4527 1.99286 20.351 2.01398C20.2045 2.0444 20.0662 2.11338 19.9656 2.20608C19.9384 2.23116 18.4353 3.84019 16.6253 5.78169C14.8153 7.72319 13.3318 9.31146 13.3287 9.31118C13.3256 9.3109 12.1368 7.73568 10.687 5.81069C9.23723 3.88569 8.03227 2.28981 8.00934 2.26427C7.92798 2.17369 7.79137 2.08462 7.671 2.04368C7.53328 1.99683 7.69865 1.99964 5.10815 2.00025C2.84184 2.00078 2.72786 2.00149 2.66303 2.01536ZM4.51103 3.66799C4.51103 3.67036 7.32478 7.40716 10.7638 11.972L17.0166 20.2717H18.2518C18.9312 20.2717 19.487 20.2698 19.487 20.2674C19.487 20.2651 17.996 18.2842 16.1737 15.8654C14.3513 13.4467 11.5375 9.71179 9.92072 7.56569L6.98117 3.66369H5.7461C5.06681 3.66369 4.51103 3.66562 4.51103 3.66799Z" fill="#132930"/>
</svg>
