<svg width="24" height="24" viewBox="0 0 24 24" fill="none" xmlns="http://www.w3.org/2000/svg">
<path fill-rule="evenodd" clip-rule="evenodd" d="M16.6027 6.54843C15.3638 5.36678 13.7103 4.72304 11.9996 4.74949C8.86906 4.74949 6.21033 6.86147 5.26235 9.70537V9.70543C4.75971 11.1957 4.75971 12.8095 5.26235 14.2998H5.26675C6.21913 17.1393 8.87346 19.2513 12.004 19.2513C13.6199 19.2513 15.0073 18.838 16.0825 18.1079V18.1049C17.3479 17.2672 18.2121 15.9488 18.4811 14.4585H11.9996V9.83772H23.318C23.459 10.6402 23.5252 11.4603 23.5252 12.276C23.5252 15.9257 22.2208 19.0114 19.9514 21.1013L19.9537 21.1031C17.9652 22.9374 15.2359 24 11.9996 24C7.46252 24 3.31348 21.4426 1.27644 17.3906V17.3906C-0.425485 14 -0.425481 10.0052 1.27646 6.6146H1.27648L1.27644 6.61457C3.31348 2.55813 7.46252 0.000808637 11.9996 0.000808637C14.9802 -0.0344648 17.8594 1.08547 20.0287 3.12251L16.6027 6.54843Z" fill="#132930"/>
</svg>
