<svg width="24" height="24" viewBox="0 0 24 24" fill="none" xmlns="http://www.w3.org/2000/svg">
<path d="M23.9992 12.2761C23.9992 11.4604 23.9317 10.6403 23.7878 9.8378H12.2413V14.4586H18.8534C18.5791 15.9489 17.6974 17.2673 16.4065 18.105V21.1033H20.3513C22.6678 19.0133 23.9992 15.9269 23.9992 12.2761Z" fill="#4285F4"/>
<path d="M12.2415 24C15.543 24 18.3273 22.9374 20.3559 21.1032L16.4111 18.1049C15.3136 18.8369 13.8967 19.2513 12.246 19.2513C9.05237 19.2513 6.34457 17.1393 5.373 14.2998H1.30229V17.3906C3.38038 21.4427 7.61301 24 12.2415 24Z" fill="#34A853"/>
<path d="M5.36838 14.2997C4.85561 12.8094 4.85561 11.1957 5.36838 9.70536V6.61452H1.30217C-0.434058 10.0052 -0.434058 13.9999 1.30217 17.3906L5.36838 14.2997Z" fill="#FBBC04"/>
<path d="M12.2415 4.7495C13.9867 4.72304 15.6734 5.36678 16.9374 6.54844L20.4323 3.12251C18.2193 1.08547 15.2821 -0.0344648 12.2415 0.000808638C7.61301 0.000808638 3.38038 2.55813 1.30229 6.61458L5.3685 9.70542C6.33557 6.8615 9.04787 4.7495 12.2415 4.7495Z" fill="#EA4335"/>
</svg>
