<svg width="24" height="24" viewBox="0 0 24 24" fill="none" xmlns="http://www.w3.org/2000/svg">
<path d="M23.9991 12.2761C23.9991 11.4604 23.9316 10.6403 23.7877 9.8378H12.2413V14.4586H18.8534C18.579 15.9489 17.6974 17.2673 16.4064 18.105V21.1033H20.3512C22.6677 19.0133 23.9991 15.9269 23.9991 12.2761Z" fill="#4285F4"/>
<path d="M12.2414 24C15.5429 24 18.3272 22.9374 20.3558 21.1032L16.411 18.1049C15.3135 18.8369 13.8966 19.2513 12.2459 19.2513C9.05228 19.2513 6.34448 17.1393 5.3729 14.2998H1.3022V17.3906C3.38028 21.4427 7.61292 24 12.2414 24Z" fill="#34A853"/>
<path d="M5.36838 14.2997C4.85561 12.8094 4.85561 11.1957 5.36838 9.70536V6.61452H1.30217C-0.434058 10.0052 -0.434058 13.9999 1.30217 17.3906L5.36838 14.2997Z" fill="#FBBC04"/>
<path d="M12.2414 4.7495C13.9866 4.72304 15.6734 5.36678 16.9373 6.54844L20.4323 3.12251C18.2192 1.08547 15.282 -0.0344648 12.2414 0.000808638C7.61291 0.000808638 3.38028 2.55813 1.3022 6.61458L5.36841 9.70542C6.33548 6.8615 9.04778 4.7495 12.2414 4.7495Z" fill="#EA4335"/>
</svg>
