<svg width="24" height="24" viewBox="0 0 24 24" fill="none" xmlns="http://www.w3.org/2000/svg">
<path d="M20.8428 18.1449C20.5101 18.9135 20.1163 19.6211 19.66 20.2715C19.0381 21.1583 18.5288 21.7721 18.1364 22.113C17.528 22.6724 16.8762 22.959 16.1782 22.9753C15.6771 22.9753 15.0728 22.8327 14.3693 22.5434C13.6636 22.2555 13.015 22.113 12.422 22.113C11.8 22.113 11.133 22.2555 10.4195 22.5434C9.70493 22.8327 9.12928 22.9834 8.68916 22.9984C8.01981 23.0269 7.35264 22.7322 6.68668 22.113C6.26164 21.7422 5.72999 21.1067 5.09309 20.2063C4.40976 19.2449 3.84796 18.13 3.40784 16.8589C2.93648 15.486 2.7002 14.1565 2.7002 12.8694C2.7002 11.3951 3.01878 10.1235 3.65689 9.05784C4.1584 8.20191 4.82557 7.52672 5.66059 7.03105C6.49562 6.53539 7.39786 6.2828 8.36949 6.26664C8.90114 6.26664 9.59833 6.43109 10.4647 6.75429C11.3287 7.07858 11.8834 7.24303 12.1266 7.24303C12.3085 7.24303 12.9247 7.05074 13.9694 6.66738C14.9573 6.31186 15.7911 6.16466 16.4742 6.22264C18.3251 6.37202 19.7157 7.10167 20.6405 8.41619C18.9851 9.4192 18.1662 10.824 18.1825 12.6262C18.1975 14.03 18.7067 15.1981 19.7076 16.1256C20.1611 16.5561 20.6676 16.8888 21.2312 17.1251C21.109 17.4795 20.98 17.819 20.8428 18.1449ZM16.5978 1.44037C16.5978 2.54062 16.1958 3.56792 15.3946 4.51878C14.4277 5.64917 13.2582 6.30236 11.99 6.19929C11.9738 6.06729 11.9645 5.92837 11.9645 5.78239C11.9645 4.72615 12.4243 3.59576 13.2408 2.67152C13.6485 2.20356 14.167 1.81445 14.7957 1.50406C15.4231 1.19829 16.0166 1.0292 16.5747 1.00024C16.591 1.14733 16.5978 1.29443 16.5978 1.44036V1.44037Z" fill="#0A0B0D"/>
</svg>
