<svg width="24" height="24" viewBox="0 0 24 24" fill="none" xmlns="http://www.w3.org/2000/svg">
<path d="M21 6.2002C21 5.62365 20.9987 5.25112 20.9756 4.96778C20.9534 4.69619 20.9158 4.59534 20.8906 4.5459C20.7948 4.35793 20.6421 4.20522 20.4541 4.10938C20.4047 4.08419 20.3038 4.04662 20.0322 4.02442C19.7489 4.00127 19.3764 4 18.7998 4H18.4004C17.264 4 16.4713 4.00041 15.8545 4.05079C15.2493 4.10023 14.9011 4.19297 14.6377 4.32715C14.0735 4.61473 13.6147 5.07348 13.3272 5.6377C13.193 5.90106 13.1002 6.24933 13.0508 6.8545C13.0256 7.16295 13.0133 7.51531 13.0068 7.93262L13 9.40039V18.1104C13.4999 17.7067 14.0725 17.4026 14.6875 17.2158C15.4314 16.9899 16.235 17 17.4248 17H18.7998C19.3764 17 19.7489 16.9987 20.0322 16.9756C20.3038 16.9534 20.4047 16.9158 20.4541 16.8906C20.6421 16.7948 20.7948 16.6421 20.8906 16.4541C20.9158 16.4047 20.9534 16.3038 20.9756 16.0322C20.9987 15.7489 21 15.3764 21 14.7998V6.2002ZM3 14.7998C3 15.3764 3.00127 15.7489 3.02442 16.0322C3.04662 16.3038 3.08419 16.4047 3.10938 16.4541C3.20522 16.6421 3.35793 16.7948 3.5459 16.8906C3.59534 16.9158 3.69619 16.9534 3.96778 16.9756C4.25112 16.9987 4.62365 17 5.2002 17H6.5752C7.76501 17 8.5686 16.9899 9.3125 17.2158C9.92749 17.4026 10.5001 17.7067 11 18.1104V9.40039C11 8.26396 10.9996 7.4713 10.9492 6.8545C10.8998 6.24933 10.807 5.90106 10.6729 5.6377C10.3853 5.07348 9.92653 4.61473 9.36231 4.32715C9.09895 4.19297 8.75068 4.10023 8.14551 4.05079C7.52871 4.00041 6.73605 4 5.59961 4H5.2002C4.62365 4 4.25112 4.00127 3.96778 4.02442C3.69619 4.04662 3.59534 4.08419 3.5459 4.10938C3.35793 4.20522 3.20522 4.35793 3.10938 4.5459C3.08419 4.59534 3.04662 4.69619 3.02442 4.96778C3.00127 5.25112 3 5.62365 3 6.2002V14.7998ZM23 14.7998C23 15.3434 23.0011 15.8116 22.9697 16.1953C22.9374 16.5906 22.8656 16.984 22.6729 17.3623C22.3853 17.9265 21.9265 18.3853 21.3623 18.6729C20.984 18.8656 20.5906 18.9374 20.1953 18.9697C19.8116 19.0011 19.3434 19 18.7998 19H17.4248C16.1105 19 15.6612 19.0106 15.2686 19.1299C14.8914 19.2445 14.5408 19.4324 14.2363 19.6826C13.9193 19.9432 13.6608 20.3105 12.9316 21.4043L12.832 21.5547C12.6466 21.8329 12.3344 22 12 22C11.6657 22 11.3534 21.8329 11.168 21.5547L11.0684 21.4043C10.3392 20.3105 10.0808 19.9432 9.76368 19.6826C9.45917 19.4324 9.10856 19.2445 8.73145 19.1299C8.33876 19.0106 7.88946 19 6.5752 19H5.2002C4.65665 19 4.18836 19.0011 3.80469 18.9697C3.40943 18.9374 3.016 18.8656 2.6377 18.6729C2.07348 18.3853 1.61473 17.9265 1.32715 17.3623C1.1344 16.984 1.06259 16.5906 1.03028 16.1953C0.998931 15.8116 1 15.3434 1 14.7998V6.2002C1 5.65665 0.998931 5.18836 1.03028 4.80469C1.06259 4.40943 1.1344 4.016 1.32715 3.6377C1.61473 3.07348 2.07348 2.61473 2.6377 2.32715C3.016 2.1344 3.40943 2.06259 3.80469 2.03028C4.18836 1.99893 4.65665 2 5.2002 2H5.59961C6.70319 2 7.59143 1.99903 8.3086 2.05762C9.0373 2.11716 9.67734 2.24327 10.2695 2.54493C10.9533 2.89334 11.5442 3.39299 12 4.00098C12.4559 3.39299 13.0467 2.89334 13.7305 2.54493C14.3227 2.24327 14.9627 2.11716 15.6914 2.05762C16.4086 1.99903 17.2968 2 18.4004 2H18.7998C19.3434 2 19.8116 1.99893 20.1953 2.03028C20.5906 2.06259 20.984 2.1344 21.3623 2.32715C21.9265 2.61473 22.3853 3.07348 22.6729 3.6377C22.8656 4.016 22.9374 4.40943 22.9697 4.80469C23.0011 5.18836 23 5.65665 23 6.2002V14.7998Z" fill="#132930"/>
</svg>
