<svg width="24" height="24" viewBox="0 0 24 24" fill="none" xmlns="http://www.w3.org/2000/svg">
<path d="M13.9844 20.25C14.3983 19.8848 15.03 19.9242 15.3955 20.3379C15.761 20.752 15.7217 21.3845 15.3076 21.75C14.4268 22.5273 13.2673 23 12 23C10.7327 22.9999 9.57314 22.5274 8.69238 21.75C8.27835 21.3845 8.23904 20.7519 8.60449 20.3379C8.96997 19.9239 9.60257 19.8846 10.0166 20.25C10.546 20.7172 11.2386 20.9999 12 21C12.7615 21 13.4549 20.7173 13.9844 20.25ZM17 8C17 6.67409 16.4736 5.40249 15.5361 4.46484C14.5984 3.52716 13.3261 3 12 3C10.674 3.00007 9.40247 3.52722 8.46484 4.46484C7.52724 5.40251 7 6.67398 7 8C7 11.2676 6.17343 13.5681 5.19922 15.1338C4.98663 15.4754 4.8091 15.7608 4.66406 15.998C4.87037 15.9992 5.11031 16 5.38867 16H18.6113C18.8892 16 19.1289 15.9992 19.335 15.998C19.19 15.7609 19.0141 15.4751 18.8018 15.1338C17.8275 13.5681 17 11.2677 17 8ZM3.83496 1.42871C4.31593 1.15745 4.9259 1.32765 5.19726 1.80859C5.46866 2.28959 5.29838 2.8995 4.81738 3.1709C3.87091 3.70508 3.28336 4.72282 3.29394 5.80957C3.2994 6.36183 2.85597 6.81485 2.30371 6.82031C1.7517 6.8256 1.29956 6.38209 1.29394 5.83008C1.276 4.01441 2.25357 2.321 3.83496 1.42871ZM18.7988 1.80859C19.0701 1.32776 19.6802 1.15771 20.1611 1.42871C21.7425 2.321 22.7201 4.01441 22.7021 5.83008C22.6965 6.3822 22.2445 6.82577 21.6924 6.82031C21.1402 6.81479 20.6967 6.36179 20.7021 5.80957C20.7127 4.72271 20.1253 3.70503 19.1787 3.1709C18.6978 2.89952 18.5276 2.28955 18.7988 1.80859ZM19 8C19 10.9127 19.7326 12.8439 20.5 14.0771C20.8628 14.6603 21.1493 15.1211 21.3418 15.4551C21.4371 15.6205 21.5236 15.7802 21.5879 15.9219C21.62 15.9925 21.6565 16.0788 21.6846 16.1729C21.7079 16.2511 21.752 16.4186 21.7353 16.6221C21.7242 16.7589 21.6966 16.9929 21.5625 17.2344C21.4283 17.4759 21.244 17.6233 21.1338 17.7051C20.8796 17.8934 20.5872 17.9338 20.4961 17.9473C20.3487 17.9691 20.1814 17.9807 20.0127 17.9873C19.6727 18.0006 19.2 18 18.6113 18H5.38867C4.80018 18 4.32725 18.0006 3.9873 17.9873C3.8187 17.9807 3.65118 17.9691 3.50391 17.9473C3.41217 17.9337 3.12001 17.8933 2.86621 17.7051C2.756 17.6233 2.57262 17.4757 2.43848 17.2344C2.30432 16.9929 2.27584 16.7589 2.26465 16.6221C2.24805 16.4186 2.29311 16.2511 2.31641 16.1729C2.34443 16.0789 2.38008 15.9924 2.41211 15.9219C2.47645 15.7802 2.5638 15.6206 2.65918 15.4551C2.8517 15.121 3.13807 14.6604 3.50098 14.0771C4.22035 12.9211 4.90889 11.1516 4.99219 8.53516L5 8C5 6.14348 5.73803 4.36256 7.05078 3.0498C8.36344 1.73734 10.1437 1.00007 12 1C13.8565 1 15.6375 1.73713 16.9502 3.0498C18.2629 4.36256 19 6.14349 19 8Z" fill="#132930"/>
</svg>
