<svg width="24" height="24" viewBox="0 0 24 24" fill="none" xmlns="http://www.w3.org/2000/svg">
<path d="M13.9836 20.25C14.3977 19.8846 15.0303 19.9239 15.3957 20.3379C15.7612 20.7519 15.7219 21.3845 15.3079 21.75C14.4271 22.5274 13.2675 22.9999 12.0002 23C10.733 23 9.5734 22.5273 8.69262 21.75C8.27855 21.3845 8.23926 20.752 8.60473 20.3379C8.97019 19.9242 9.6019 19.8848 10.0159 20.25C10.5453 20.7173 11.2387 21 12.0002 21C12.7616 20.9999 13.4542 20.7172 13.9836 20.25ZM17.0002 8C17.0002 6.67397 16.473 5.40251 15.5354 4.46484C14.5978 3.52722 13.3262 3.00006 12.0002 3C10.6742 3 9.40178 3.52716 8.4641 4.46484C7.52665 5.40249 7.00023 6.67409 7.00023 8C7.00023 11.2677 6.17271 13.5681 5.19848 15.1338C4.986 15.4753 4.80929 15.7608 4.6643 15.998C4.8706 15.9992 5.11057 16 5.38891 16H18.6116C18.8895 16 19.1291 15.9992 19.3352 15.998C19.1902 15.7609 19.0135 15.4752 18.801 15.1338C17.8268 13.5681 17.0002 11.2676 17.0002 8ZM19.0002 8C19.0002 10.9127 19.7319 12.8439 20.4993 14.0771C20.8622 14.6604 21.1485 15.121 21.3411 15.4551C21.4364 15.6206 21.5238 15.7802 21.5881 15.9219C21.6202 15.9924 21.6558 16.0789 21.6838 16.1729C21.7071 16.2511 21.7522 16.4186 21.7356 16.6221C21.7244 16.7589 21.6959 16.9929 21.5618 17.2344C21.4276 17.4757 21.2442 17.6233 21.134 17.7051C20.8802 17.8933 20.588 17.9337 20.4963 17.9473C20.349 17.9691 20.1815 17.9807 20.0129 17.9873C19.673 18.0006 19.2001 18 18.6116 18H5.38891C4.80022 18 4.32756 18.0006 3.98754 17.9873C3.81878 17.9807 3.65155 17.9691 3.50414 17.9473C3.41297 17.9338 3.1206 17.8934 2.86644 17.7051C2.7562 17.6233 2.57189 17.4759 2.43773 17.2344C2.30359 16.9929 2.27607 16.7589 2.26488 16.6221C2.24828 16.4186 2.29236 16.2511 2.31566 16.1729C2.34372 16.0788 2.38028 15.9925 2.41234 15.9219C2.47666 15.7802 2.5631 15.6205 2.65844 15.4551C2.85093 15.1211 3.13739 14.6603 3.50023 14.0771C4.21961 12.9211 4.90815 11.1516 4.99144 8.53516L5.00023 8C5.00023 6.14348 5.73728 4.36256 7.05004 3.0498C8.36278 1.73712 10.1438 1 12.0002 1C13.8565 1.00006 15.6368 1.73734 16.9495 3.0498C18.2622 4.36256 19.0002 6.14349 19.0002 8Z" fill="#132930"/>
</svg>
