<svg width="24" height="24" viewBox="0 0 24 24" fill="none" xmlns="http://www.w3.org/2000/svg">
<path d="M14.7999 13C15.3434 13 15.8117 12.9989 16.1954 13.0303C16.5907 13.0626 16.9841 13.1344 17.3624 13.3272C17.9266 13.6147 18.3854 14.0735 18.6729 14.6377C18.8657 15.016 18.9375 15.4094 18.9698 15.8047C18.997 16.1378 18.9978 16.5347 18.9981 16.9893C19.2569 16.9801 19.3986 16.9636 19.5177 16.9316C20.2078 16.7467 20.7468 16.2078 20.9317 15.5176C20.9913 15.2953 21.0001 14.9944 21.0001 14V11.7998C21.0001 10.9434 20.9997 10.3612 20.963 9.91114C20.9272 9.47272 20.862 9.2482 20.7823 9.0918C20.5906 8.71555 20.2845 8.40951 19.9083 8.21778C19.7519 8.13809 19.5274 8.07293 19.089 8.03711C18.6389 8.00035 18.0567 8 17.2003 8H6.79989C5.9435 8 5.36125 8.00035 4.91122 8.03711C4.4728 8.07293 4.24828 8.13809 4.09188 8.21778C3.71563 8.40951 3.40959 8.71555 3.21786 9.0918C3.13817 9.2482 3.07301 9.47272 3.03719 9.91114C3.00043 10.3612 3.00008 10.9434 3.00008 11.7998V14C3.00008 14.9944 3.00888 15.2953 3.06844 15.5176C3.25338 16.2078 3.79232 16.7467 4.48251 16.9316C4.60144 16.9635 4.74289 16.9801 5.00106 16.9893C5.00138 16.5347 5.00314 16.1378 5.03036 15.8047C5.06267 15.4094 5.13448 15.016 5.32723 14.6377C5.61481 14.0735 6.07356 13.6147 6.63778 13.3272C7.01608 13.1344 7.40951 13.0626 7.80477 13.0303C8.18844 12.9989 8.65673 13 9.20028 13H14.7999ZM9.20028 15C8.62373 15 8.25119 15.0013 7.96786 15.0244C7.69627 15.0466 7.59542 15.0842 7.54598 15.1094C7.35801 15.2052 7.2053 15.3579 7.10946 15.5459C7.08427 15.5953 7.04669 15.6962 7.0245 15.9678C7.00135 16.2511 7.00008 16.6236 7.00008 17.2002V18.7998C7.00008 19.3764 7.00135 19.7489 7.0245 20.0322C7.04669 20.3038 7.08427 20.4047 7.10946 20.4541C7.2053 20.6421 7.35801 20.7948 7.54598 20.8906C7.59542 20.9158 7.69627 20.9534 7.96786 20.9756C8.25119 20.9987 8.62373 21 9.20028 21H14.7999C15.3764 21 15.749 20.9987 16.0323 20.9756C16.3039 20.9534 16.4047 20.9158 16.4542 20.8906C16.6422 20.7948 16.7949 20.6421 16.8907 20.4541C16.9159 20.4047 16.9535 20.3038 16.9757 20.0322C16.9988 19.7489 17.0001 19.3764 17.0001 18.7998V17.2002C17.0001 16.6236 16.9988 16.2511 16.9757 15.9678C16.9535 15.6962 16.9159 15.5953 16.8907 15.5459C16.7949 15.3579 16.6422 15.2052 16.4542 15.1094C16.4047 15.0842 16.3039 15.0466 16.0323 15.0244C15.749 15.0013 15.3764 15 14.7999 15H9.20028ZM18.0001 9.5C18.5524 9.5 19.0001 9.94772 19.0001 10.5C19.0001 11.0523 18.5524 11.5 18.0001 11.5H15.0001C14.4478 11.5 14.0001 11.0523 14.0001 10.5C14.0001 9.94772 14.4478 9.5 15.0001 9.5H18.0001ZM17.0001 5.2002C17.0001 4.62365 16.9988 4.25112 16.9757 3.96778C16.9535 3.69619 16.9159 3.59534 16.8907 3.5459C16.7949 3.35793 16.6422 3.20522 16.4542 3.10938C16.4047 3.08419 16.3039 3.04662 16.0323 3.02442C15.749 3.00127 15.3764 3 14.7999 3H9.20028C8.62373 3 8.25119 3.00127 7.96786 3.02442C7.69627 3.04662 7.59542 3.08419 7.54598 3.10938C7.35801 3.20522 7.2053 3.35793 7.10946 3.5459C7.08427 3.59534 7.04669 3.69619 7.0245 3.96778C7.00135 4.25112 7.00008 4.62365 7.00008 5.2002V6H17.0001V5.2002ZM19.0001 6.0293C19.0868 6.03409 19.1709 6.03732 19.252 6.04395C19.8141 6.08988 20.3312 6.18828 20.8165 6.43555C21.569 6.81902 22.1811 7.43109 22.5645 8.1836C22.8118 8.6689 22.9102 9.186 22.9561 9.74805C23.0011 10.2984 23.0001 10.9763 23.0001 11.7998V14C23.0001 14.8656 23.0082 15.4944 22.8634 16.0352C22.4935 17.4155 21.4156 18.4934 20.0352 18.8633C19.7273 18.9458 19.3907 18.9764 18.9981 18.9893C18.9979 19.4528 18.9975 19.8569 18.9698 20.1953C18.9375 20.5906 18.8657 20.984 18.6729 21.3623C18.3854 21.9265 17.9266 22.3853 17.3624 22.6729C16.9841 22.8656 16.5907 22.9374 16.1954 22.9697C15.8117 23.0011 15.3434 23 14.7999 23H9.20028C8.65673 23 8.18844 23.0011 7.80477 22.9697C7.40951 22.9374 7.01608 22.8656 6.63778 22.6729C6.07356 22.3853 5.61481 21.9265 5.32723 21.3623C5.13448 20.984 5.06267 20.5906 5.03036 20.1953C5.00271 19.8569 5.0013 19.4528 5.00106 18.9893C4.60887 18.9763 4.27263 18.9457 3.96493 18.8633C2.58456 18.4934 1.50667 17.4155 1.1368 16.0352C0.991918 15.4944 1.00008 14.8656 1.00008 14V11.7998C1.00008 10.9763 0.999061 10.2984 1.04403 9.74805C1.08996 9.186 1.18836 8.6689 1.43563 8.1836C1.8191 7.43109 2.43117 6.81902 3.18368 6.43555C3.66898 6.18828 4.18607 6.08988 4.74813 6.04395C4.82925 6.03732 4.91338 6.03409 5.00008 6.0293V5.2002C5.00008 4.65665 4.99901 4.18836 5.03036 3.80469C5.06267 3.40943 5.13448 3.016 5.32723 2.6377C5.61481 2.07348 6.07356 1.61473 6.63778 1.32715C7.01608 1.1344 7.40951 1.06259 7.80477 1.03028C8.18844 0.998931 8.65673 1 9.20028 1H14.7999C15.3434 1 15.8117 0.998931 16.1954 1.03028C16.5907 1.06259 16.9841 1.1344 17.3624 1.32715C17.9266 1.61473 18.3854 2.07348 18.6729 2.6377C18.8657 3.016 18.9375 3.40943 18.9698 3.80469C19.0012 4.18836 19.0001 4.65665 19.0001 5.2002V6.0293Z" fill="#132930"/>
</svg>
