<svg width="24" height="24" viewBox="0 0 24 24" fill="none" xmlns="http://www.w3.org/2000/svg">
<path d="M19.0001 20.9991C19.0001 19.5308 18.9895 19.0181 18.8712 18.6281C18.5803 17.6694 17.8299 16.9189 16.8712 16.6281C16.4811 16.5097 15.9684 16.4991 14.5001 16.4991H9.50009C8.03177 16.4991 7.51906 16.5097 7.129 16.6281C6.17031 16.9189 5.41986 17.6694 5.129 18.6281C5.01067 19.0181 5.00009 19.5308 5.00009 20.9991C5.00009 21.5514 4.55238 21.9991 4.00009 21.9991C3.44781 21.9991 3.00009 21.5514 3.00009 20.9991C3.00009 19.6765 2.98889 18.7934 3.21493 18.048C3.69969 16.45 4.95092 15.1987 6.54892 14.714C7.29437 14.4879 8.17749 14.4991 9.50009 14.4991H14.5001C15.8227 14.4991 16.7058 14.4879 17.4513 14.714C19.0493 15.1987 20.3005 16.45 20.7852 18.048C21.0113 18.7934 21.0001 19.6765 21.0001 20.9991C21.0001 21.5514 20.5524 21.9991 20.0001 21.9991C19.4478 21.9991 19.0001 21.5514 19.0001 20.9991ZM15.5001 7.49915C15.5001 5.56615 13.9331 3.99915 12.0001 3.99915C10.0671 3.99915 8.50009 5.56615 8.50009 7.49915C8.50009 9.43214 10.0671 10.9991 12.0001 10.9991C13.9331 10.9991 15.5001 9.43214 15.5001 7.49915ZM17.5001 7.49915C17.5001 10.5367 15.0377 12.9991 12.0001 12.9991C8.96252 12.9991 6.50009 10.5367 6.50009 7.49915C6.50009 4.46158 8.96252 1.99915 12.0001 1.99915C15.0377 1.99915 17.5001 4.46158 17.5001 7.49915Z" fill="#132930"/>
</svg>
