<svg width="24" height="24" viewBox="0 0 24 24" fill="none" xmlns="https://www.w3.org/2000/svg">
<path d="M12 5.99994V7.78994C12 8.23994 12.54 8.45994 12.85 8.13994L15.64 5.34994C15.84 5.14994 15.84 4.83994 15.64 4.63994L12.85 1.84994C12.54 1.53994 12 1.75994 12 2.20994V3.99994C7.58 3.99994 4 7.57994 4 11.9999C4 13.0399 4.2 14.0399 4.57 14.9499C4.84 15.6199 5.7 15.7999 6.21 15.2899C6.48 15.0199 6.59 14.6099 6.44 14.2499C6.15 13.5599 6 12.7899 6 11.9999C6 8.68994 8.69 5.99994 12 5.99994ZM17.79 8.70994C17.52 8.97994 17.41 9.39994 17.56 9.74994C17.84 10.4499 18 11.2099 18 11.9999C18 15.3099 15.31 17.9999 12 17.9999V16.2099C12 15.7599 11.46 15.5399 11.15 15.8599L8.36 18.6499C8.16 18.8499 8.16 19.1599 8.36 19.3599L11.15 22.1499C11.46 22.4599 12 22.2399 12 21.7999V19.9999C16.42 19.9999 20 16.4199 20 11.9999C20 10.9599 19.8 9.95994 19.43 9.04994C19.16 8.37994 18.3 8.19994 17.79 8.70994Z" fill="#132930"/>
</svg>
