<svg width="24" height="24" viewBox="0 0 24 24" fill="none" xmlns="http://www.w3.org/2000/svg">
<path d="M19.9951 7.59703C19.995 7.59499 19.9943 7.59303 19.9941 7.59117C19.9928 7.59032 19.9917 7.58914 19.9902 7.58824C19.933 7.55175 19.8512 7.50613 19.6914 7.41734L12.291 3.30601C12.1396 3.22189 12.0626 3.17856 12.0049 3.15074C12.0031 3.14988 12.0016 3.14858 12 3.14781C11.9984 3.14858 11.9969 3.14988 11.9951 3.15074C11.9374 3.17856 11.8604 3.22189 11.709 3.30601L4.30859 7.41734C4.14878 7.50613 4.06704 7.55175 4.00977 7.58824C4.00809 7.5893 4.00641 7.59018 4.00488 7.59117C4.00476 7.59301 4.005 7.59501 4.00488 7.59703C4.0008 7.66483 4 7.75883 4 7.94175V16.0589C4 16.2414 4.00081 16.335 4.00488 16.4027C4.00498 16.4043 4.00479 16.4061 4.00488 16.4076C4.00654 16.4086 4.00793 16.4103 4.00977 16.4115C4.06706 16.448 4.14864 16.4945 4.30859 16.5834L11.709 20.6937C11.8605 20.7779 11.9374 20.8212 11.9951 20.849C11.9968 20.8498 11.9985 20.8502 12 20.8509C12.0015 20.8502 12.0032 20.8498 12.0049 20.849C12.0626 20.8212 12.1396 20.7779 12.291 20.6937L19.6914 16.5834C19.8514 16.4945 19.9329 16.448 19.9902 16.4115C19.9918 16.4105 19.9927 16.4085 19.9941 16.4076C19.9942 16.4061 19.995 16.4043 19.9951 16.4027C19.9992 16.335 20 16.2414 20 16.0589V7.94175C20 7.75883 19.9992 7.66484 19.9951 7.59703ZM12.0098 15.0003C12.5621 15.0003 13.0098 15.4481 13.0098 16.0003C13.0095 16.5524 12.5619 17.0003 12.0098 17.0003H12C11.4479 17.0003 11.0002 16.5524 11 16.0003C11 15.4481 11.4477 15.0003 12 15.0003H12.0098ZM11 12.0003V8.00035C11 7.44806 11.4477 7.00035 12 7.00035C12.5523 7.00035 13 7.44806 13 8.00035V12.0003C12.9998 12.5524 12.5521 13.0003 12 13.0003C11.4479 13.0003 11.0002 12.5524 11 12.0003ZM22 16.2787C21.9981 16.5129 21.9842 16.7828 21.8994 17.0394C21.8101 17.3097 21.6636 17.5576 21.4707 17.7669C21.2268 18.0316 20.9024 18.1985 20.6631 18.3314L13.2627 22.4427C13.0358 22.5688 12.739 22.7457 12.4033 22.8148C12.1375 22.8695 11.8625 22.8695 11.5967 22.8148C11.261 22.7457 10.9642 22.5688 10.7373 22.4427L3.33691 18.3314C3.09759 18.1985 2.77323 18.0316 2.5293 17.7669C2.33641 17.5576 2.18992 17.3097 2.10059 17.0394C2.0158 16.7828 2.0019 16.5129 2 16.2787V7.72105C2.00191 7.48699 2.01595 7.2177 2.10059 6.96128C2.18991 6.69093 2.33635 6.44215 2.5293 6.23277C2.77324 5.96812 3.09761 5.80125 3.33691 5.66832L10.7373 1.55699C10.9642 1.43094 11.261 1.25404 11.5967 1.18492C11.796 1.14392 12.0005 1.13318 12.2021 1.15367L12.4033 1.18492L12.5273 1.21519C12.8121 1.29714 13.0642 1.44669 13.2627 1.55699L20.6631 5.66832C20.9024 5.80125 21.2268 5.96812 21.4707 6.23277C21.6155 6.38988 21.7335 6.56926 21.8213 6.76304L21.8994 6.96128L21.9355 7.09019C21.988 7.30641 21.9984 7.52591 22 7.72105V16.2787Z" fill="#132930"/>
</svg>
