<svg width="24" height="24" viewBox="0 0 24 24" fill="none" xmlns="http://www.w3.org/2000/svg">
<path d="M20 9C20 8.44772 19.5523 8 19 8H5C4.64888 8 4.31314 7.93604 4 7.8252V19L4.00488 19.1025C4.05621 19.6067 4.48232 20 5 20H19C19.5523 20 20 19.5523 20 19V9ZM16.5 12.5C17.3284 12.5 18 13.1716 18 14C18 14.8284 17.3284 15.5 16.5 15.5C15.6716 15.5 15 14.8284 15 14C15 13.1716 15.6716 12.5 16.5 12.5ZM22 19C22 20.6569 20.6569 22 19 22H5C3.39489 22 2.08421 20.7394 2.00391 19.1543L2 19V5C2 3.34315 3.34315 2 5 2H17C17.5523 2 18 2.44772 18 3C18 3.55228 17.5523 4 17 4H5C4.44772 4 4 4.44772 4 5C4 5.55228 4.44772 6 5 6H19C20.6569 6 22 7.34315 22 9V19Z" fill="#132930"/>
</svg>
