<svg width="24" height="24" viewBox="0 0 24 24" fill="none" xmlns="http://www.w3.org/2000/svg">
<path d="M12.8184 3.81836C12.8184 3.60136 12.7316 3.3927 12.5781 3.23926C12.4247 3.08607 12.2168 3 12 3C11.7832 3 11.5753 3.08607 11.4219 3.23926C11.2684 3.3927 11.1816 3.60136 11.1816 3.81836V3.97656C11.1797 4.46392 11.0356 4.94029 10.7666 5.34668C10.4974 5.7531 10.115 6.07257 9.66699 6.26465C9.58678 6.29903 9.50197 6.32054 9.41602 6.33301C9.01001 6.47438 8.57369 6.50972 8.14844 6.43262C7.65693 6.3435 7.20279 6.11004 6.8457 5.76074L6.83789 5.75293L6.78418 5.69824L6.7832 5.69727C6.70727 5.62133 6.61678 5.56163 6.51758 5.52051C6.41827 5.47935 6.3116 5.45801 6.2041 5.45801C6.09678 5.45807 5.99075 5.47943 5.8916 5.52051C5.79242 5.56162 5.7019 5.62135 5.62598 5.69727L5.625 5.69824C5.54895 5.77421 5.48844 5.86457 5.44727 5.96387C5.40609 6.06319 5.38477 6.16982 5.38477 6.27734C5.38478 6.38484 5.4061 6.49152 5.44727 6.59082C5.47821 6.66541 5.52018 6.73473 5.57129 6.79688L5.625 6.85645L5.6875 6.91895C6.03672 7.27595 6.27119 7.72933 6.36035 8.2207C6.44947 8.71221 6.38919 9.21976 6.1875 9.67676L6.18652 9.67578C6.00967 10.1217 5.7102 10.5085 5.31934 10.7881C4.91144 11.0798 4.42517 11.2421 3.92383 11.2539C3.91616 11.2541 3.90806 11.2549 3.90039 11.2549H3.81836C3.60136 11.2549 3.3927 11.3407 3.23926 11.4941C3.08603 11.6475 3.00012 11.8555 3 12.0723C3 12.2892 3.08591 12.4979 3.23926 12.6514C3.3927 12.8048 3.60136 12.8906 3.81836 12.8906H3.97656C4.46402 12.8926 4.94024 13.0375 5.34668 13.3066C5.7502 13.5739 6.06726 13.9526 6.25977 14.3965H6.26074C6.4623 14.8534 6.52171 15.3602 6.43262 15.8516C6.3435 16.3431 6.11004 16.7972 5.76074 17.1543L5.75293 17.1621L5.69824 17.2158L5.69727 17.2168C5.62133 17.2927 5.56163 17.3832 5.52051 17.4824C5.47935 17.5817 5.45801 17.6884 5.45801 17.7959C5.45807 17.9032 5.47943 18.0093 5.52051 18.1084C5.56162 18.2076 5.62135 18.2981 5.69727 18.374L5.69824 18.375C5.77421 18.4511 5.86457 18.5116 5.96387 18.5527C6.06319 18.5939 6.16982 18.6152 6.27734 18.6152C6.38484 18.6152 6.49152 18.5939 6.59082 18.5527C6.69007 18.5116 6.78051 18.451 6.85645 18.375L6.91895 18.3125C7.27595 17.9633 7.72932 17.7288 8.2207 17.6396C8.71221 17.5505 9.21976 17.6108 9.67676 17.8125H9.67578C10.1218 17.9893 10.5084 18.2897 10.7881 18.6807C11.0798 19.0886 11.2421 19.5748 11.2539 20.0762C11.2541 20.0838 11.2549 20.0919 11.2549 20.0996V20.1816C11.2549 20.3986 11.3407 20.6073 11.4941 20.7607C11.6475 20.914 11.8555 20.9999 12.0723 21C12.2892 21 12.4979 20.9141 12.6514 20.7607C12.8048 20.6073 12.8906 20.3986 12.8906 20.1816V20.0234C12.8926 19.536 13.0375 19.0598 13.3066 18.6533C13.5739 18.2497 13.9524 17.9317 14.3965 17.7393L14.5693 17.6709C14.9794 17.5253 15.4213 17.4894 15.8516 17.5674C16.2817 17.6454 16.6828 17.8341 17.0156 18.1143L17.1543 18.2393L17.1621 18.2471L17.2158 18.3018L17.2168 18.3027C17.2927 18.3787 17.3832 18.4384 17.4824 18.4795C17.5817 18.5206 17.6884 18.542 17.7959 18.542C17.9032 18.5419 18.0093 18.5206 18.1084 18.4795C18.2076 18.4384 18.2981 18.3787 18.374 18.3027L18.375 18.3018C18.4511 18.2258 18.5116 18.1354 18.5527 18.0361C18.5939 17.9368 18.6152 17.8302 18.6152 17.7227C18.6152 17.6152 18.5939 17.5085 18.5527 17.4092C18.5218 17.3346 18.4798 17.2653 18.4287 17.2031L18.375 17.1436L18.3125 17.0811C17.9633 16.724 17.7288 16.2707 17.6396 15.7793C17.5617 15.3493 17.5978 14.907 17.7432 14.4971L17.8125 14.3232C18.005 13.8795 18.3221 13.5006 18.7256 13.2334C19.132 12.9643 19.6083 12.8204 20.0957 12.8184H20.1816C20.3986 12.8184 20.6073 12.7316 20.7607 12.5781C20.9139 12.4247 21 12.2168 21 12C21 11.7832 20.9139 11.5753 20.7607 11.4219C20.6073 11.2684 20.3986 11.1816 20.1816 11.1816H20.0234C19.5361 11.1797 19.0597 11.0356 18.6533 10.7666C18.2469 10.4974 17.9274 10.115 17.7354 9.66699C17.701 9.58674 17.6785 9.50202 17.666 9.41602C17.5247 9.01009 17.4903 8.57358 17.5674 8.14844C17.6565 7.65693 17.89 7.20279 18.2393 6.8457L18.2471 6.83789L18.3018 6.78418L18.3027 6.7832C18.3787 6.70727 18.4384 6.61678 18.4795 6.51758C18.5206 6.41827 18.542 6.3116 18.542 6.2041C18.5419 6.09678 18.5206 5.99075 18.4795 5.8916C18.4384 5.79242 18.3787 5.7019 18.3027 5.62598L18.3018 5.625C18.2258 5.54894 18.1354 5.48844 18.0361 5.44727C17.9368 5.40609 17.8302 5.38477 17.7227 5.38477C17.6152 5.38478 17.5085 5.4061 17.4092 5.44727C17.3346 5.47821 17.2653 5.52018 17.2031 5.57129L17.1436 5.625L17.0811 5.6875C16.724 6.03672 16.2707 6.27119 15.7793 6.36035C15.2878 6.44947 14.7802 6.38919 14.3232 6.1875V6.18652C13.8796 5.994 13.5005 5.67775 13.2334 5.27441C12.9643 4.86804 12.8204 4.39168 12.8184 3.9043V3.81836ZM14 12C14 10.8954 13.1046 10 12 10C10.8954 10 10 10.8954 10 12C10 13.1046 10.8954 14 12 14C13.1046 14 14 13.1046 14 12ZM16 12C16 14.2091 14.2091 16 12 16C9.79086 16 8 14.2091 8 12C8 9.79086 9.79086 8 12 8C14.2091 8 16 9.79086 16 12ZM14.8184 3.89648L14.8242 3.96875C14.8351 4.04036 14.8611 4.10905 14.9014 4.16992C14.9552 4.25119 15.0315 4.3151 15.1211 4.35352L15.1309 4.35742C15.2222 4.39772 15.3237 4.41033 15.4219 4.39258C15.5202 4.37475 15.6112 4.32767 15.6826 4.25781L15.7295 4.21094C15.9911 3.94918 16.3017 3.74133 16.6436 3.59961C16.9856 3.45781 17.3524 3.38477 17.7227 3.38477C18.0929 3.38477 18.4597 3.45784 18.8018 3.59961C19.1436 3.74132 19.4542 3.94922 19.7158 4.21094L19.9023 4.41602C20.0778 4.62971 20.2208 4.86867 20.3271 5.125C20.4689 5.46699 20.5419 5.8339 20.542 6.2041C20.542 6.57445 20.469 6.94206 20.3271 7.28418C20.2208 7.54051 20.0778 7.77948 19.9023 7.99316L19.7158 8.19824L19.6621 8.25293C19.5965 8.323 19.5524 8.4103 19.5352 8.50488C19.5174 8.60308 19.5291 8.70458 19.5693 8.7959C19.594 8.85186 19.6119 8.91053 19.626 8.96973C19.6615 9.01997 19.7051 9.0643 19.7568 9.09863C19.8381 9.15247 19.9337 9.18125 20.0312 9.18164H20.1816C20.929 9.18164 21.6463 9.47838 22.1748 10.0068C22.7033 10.5353 23 11.2526 23 12C23 12.7474 22.7033 13.4647 22.1748 13.9932C21.6463 14.5216 20.929 14.8184 20.1816 14.8184H20.1035L20.0312 14.8242C19.9596 14.8351 19.891 14.8611 19.8301 14.9014C19.7488 14.9552 19.6849 15.0315 19.6465 15.1211L19.6426 15.1309C19.6023 15.2222 19.5897 15.3237 19.6074 15.4219C19.6252 15.5202 19.6723 15.6112 19.7422 15.6826L19.7881 15.7285C20.0501 15.9903 20.2586 16.3014 20.4004 16.6436C20.5422 16.9856 20.6152 17.3524 20.6152 17.7227C20.6152 18.0929 20.5422 18.4597 20.4004 18.8018C20.2587 19.1436 20.0498 19.4532 19.7881 19.7148L19.7891 19.7158C19.5275 19.9777 19.2169 20.1854 18.875 20.3271C18.533 20.4689 18.1661 20.5419 17.7959 20.542C17.4255 20.542 17.0579 20.469 16.7158 20.3271C16.4595 20.2208 16.2205 20.0778 16.0068 19.9023L15.8018 19.7158L15.7471 19.6621H15.7461C15.6761 19.5968 15.5895 19.5523 15.4951 19.5352C15.3969 19.5174 15.2954 19.5291 15.2041 19.5693L15.1943 19.5742V19.5732C15.1047 19.6116 15.0275 19.6756 14.9736 19.7568C14.9198 19.8381 14.891 19.9337 14.8906 20.0312V20.1816C14.8906 20.9291 14.5939 21.6463 14.0654 22.1748C13.5369 22.7032 12.8196 23 12.0723 23C11.3251 22.9999 10.6085 22.7031 10.0801 22.1748C9.55157 21.6463 9.25488 20.9291 9.25488 20.1816V20.123L9.24707 20.0488C9.2342 19.9754 9.20585 19.9049 9.16211 19.8438C9.1038 19.7623 9.02177 19.7007 8.92773 19.666C8.90807 19.6588 8.88831 19.651 8.86914 19.6426C8.77783 19.6023 8.67634 19.5897 8.57812 19.6074C8.47982 19.6252 8.3888 19.6723 8.31738 19.7422L8.27051 19.7891C8.00889 20.0508 7.69831 20.2587 7.35645 20.4004C7.01436 20.5422 6.64764 20.6152 6.27734 20.6152C5.90706 20.6152 5.54031 20.5422 5.19824 20.4004C4.85612 20.2586 4.54494 20.0501 4.2832 19.7881V19.7871C4.02204 19.5258 3.81438 19.2163 3.67285 18.875C3.53109 18.533 3.45807 18.1661 3.45801 17.7959C3.45801 17.4255 3.53103 17.0579 3.67285 16.7158C3.81465 16.3739 4.02233 16.0633 4.28418 15.8018L4.33789 15.7471C4.40348 15.677 4.44763 15.5897 4.46484 15.4951C4.48265 15.3969 4.47089 15.2954 4.43066 15.2041L4.42578 15.1943V15.1934C4.38735 15.104 4.32423 15.0273 4.24316 14.9736C4.18212 14.9332 4.11285 14.9073 4.04102 14.8965L3.96875 14.8906H3.81836C3.07093 14.8906 2.35371 14.5939 1.8252 14.0654C1.29677 13.5369 1 12.8196 1 12.0723C1.00012 11.3251 1.2969 10.6085 1.8252 10.0801C2.35371 9.55157 3.07093 9.25488 3.81836 9.25488H3.87695C3.97714 9.25247 4.07474 9.22041 4.15625 9.16211C4.23775 9.1038 4.29935 9.02177 4.33398 8.92773L4.35742 8.86914C4.39772 8.77783 4.41033 8.67634 4.39258 8.57812C4.37475 8.47982 4.32767 8.3888 4.25781 8.31738L4.21094 8.27051V8.26953C3.94942 8.00802 3.74124 7.6981 3.59961 7.35645C3.45781 7.01437 3.38477 6.64765 3.38477 6.27734C3.38477 5.90706 3.45784 5.54031 3.59961 5.19824C3.74143 4.85612 3.94989 4.54494 4.21191 4.2832C4.47331 4.02181 4.78353 3.81447 5.125 3.67285C5.46699 3.53109 5.8339 3.45807 6.2041 3.45801C6.57445 3.45801 6.94206 3.53103 7.28418 3.67285C7.62606 3.81465 7.93666 4.02233 8.19824 4.28418L8.25098 4.33594C8.32138 4.40258 8.4094 4.44747 8.50488 4.46484C8.60307 4.48265 8.70458 4.47089 8.7959 4.43066L8.89355 4.39355C8.91862 4.38549 8.94414 4.37911 8.96973 4.37305C9.01977 4.33759 9.0644 4.29478 9.09863 4.24316C9.15175 4.16295 9.1805 4.0688 9.18164 3.97266V3.81836C9.18164 3.07097 9.47838 2.3537 10.0068 1.8252C10.5353 1.29668 11.2526 1 12 1C12.7474 1 13.4647 1.29668 13.9932 1.8252C14.5216 2.3537 14.8184 3.07097 14.8184 3.81836V3.89648Z" fill="#132930"/>
</svg>
