<svg width="24" height="24" viewBox="0 0 24 24" fill="none" xmlns="http://www.w3.org/2000/svg">
<path d="M2 16.2002V9.7998C2 8.97632 1.99898 8.29843 2.04395 7.74805C2.08988 7.18599 2.18827 6.6689 2.43555 6.18359C2.81902 5.43109 3.43109 4.81902 4.1836 4.43555C4.6689 4.18827 5.18599 4.08987 5.74805 4.04395C6.29843 3.99898 6.97632 4 7.79981 4H10C10.5523 4 11 4.44772 11 5C11 5.55228 10.5523 6 10 6H7.79981C6.94342 6 6.36117 6.00035 5.91113 6.03711C5.47272 6.07293 5.2482 6.13808 5.0918 6.21777C4.71555 6.40951 4.40951 6.71554 4.21778 7.0918C4.13809 7.2482 4.07293 7.47272 4.03711 7.91113C4.00035 8.36117 4 8.94341 4 9.7998V16.2002C4 17.0566 4.00035 17.6388 4.03711 18.0889C4.07293 18.5273 4.13809 18.7518 4.21778 18.9082C4.40951 19.2845 4.71555 19.5905 5.0918 19.7822C5.2482 19.8619 5.47272 19.9271 5.91113 19.9629C6.36117 19.9997 6.94342 20 7.79981 20H14.2002C15.0566 20 15.6388 19.9997 16.0889 19.9629C16.5273 19.9271 16.7518 19.8619 16.9082 19.7822C17.2845 19.5905 17.5905 19.2845 17.7822 18.9082C17.8619 18.7518 17.9271 18.5273 17.9629 18.0889C17.9997 17.6388 18 17.0566 18 16.2002V14C18 13.4477 18.4477 13 19 13C19.5523 13 20 13.4477 20 14V16.2002C20 17.0237 20.001 17.7016 19.9561 18.252C19.9101 18.814 19.8117 19.3311 19.5645 19.8164C19.181 20.5689 18.5689 21.181 17.8164 21.5645C17.3311 21.8117 16.814 21.9101 16.252 21.9561C15.7016 22.001 15.0237 22 14.2002 22H7.79981C6.97632 22 6.29843 22.001 5.74805 21.9561C5.18599 21.9101 4.6689 21.8117 4.1836 21.5645C3.43109 21.181 2.81902 20.5689 2.43555 19.8164C2.18827 19.3311 2.08988 18.814 2.04395 18.252C1.99898 17.7016 2 17.0237 2 16.2002ZM22 9C22 9.55228 21.5523 10 21 10C20.4477 10 20 9.55228 20 9V5.41406L13.707 11.707C13.3165 12.0976 12.6835 12.0976 12.293 11.707C11.9024 11.3165 11.9024 10.6835 12.293 10.293L18.5859 4H15C14.4477 4 14 3.55228 14 3C14 2.44772 14.4477 2 15 2H21C21.5523 2 22 2.44772 22 3V9Z" fill="#132930"/>
</svg>
