<svg width="24" height="24" viewBox="0 0 24 24" fill="none" xmlns="http://www.w3.org/2000/svg">
<g clip-path="url(#clip0_32935_1174)">
<path d="M12.5555 22.0312C12.1945 22.1706 11.7945 22.1706 11.4334 22.0312C8.61608 20.9496 6.19314 19.0387 4.48463 16.5511C2.77611 14.0635 1.86243 11.1161 1.86426 8.09824V3.42276C1.86426 3.00941 2.02846 2.613 2.32073 2.32073C2.61301 2.02846 3.00942 1.86426 3.42276 1.86426H20.5662C20.9796 1.86426 21.3759 2.02846 21.6682 2.32073C21.9605 2.613 22.1247 3.00941 22.1247 3.42276V8.09824C22.1266 11.1161 21.2128 14.0635 19.5043 16.5511C17.7959 19.0387 15.3729 20.9496 12.5555 22.0312Z" fill="#F2F2F2"/>
<path d="M21.125 3.42285C21.125 3.27481 21.0656 3.13305 20.9609 3.02832C20.8562 2.9236 20.7145 2.86432 20.5664 2.86426H3.42285C3.27474 2.86426 3.1321 2.92357 3.02735 3.02832C2.92292 3.133 2.86426 3.27494 2.86426 3.42285V8.09863L2.87403 8.62598C2.97212 11.2564 3.81427 13.8096 5.3086 15.9854C6.80298 18.1612 8.88368 19.8636 11.3037 20.8994L11.792 21.0977L11.7939 21.0986C11.9231 21.1484 12.0662 21.1484 12.1953 21.0986L12.1973 21.0977C14.8255 20.0886 17.0858 18.3059 18.6797 15.9854C20.2736 13.6645 21.1268 10.9141 21.125 8.09863V3.42285ZM23.125 8.09766L23.1133 8.7002C23.0012 11.7088 22.0381 14.6287 20.3291 17.1172C18.5061 19.7716 15.9203 21.8107 12.9141 22.9648L12.9131 22.9639C12.3214 23.1917 11.6669 23.1918 11.0752 22.9639C8.06894 21.8097 5.48321 19.7716 3.66016 17.1172C1.83714 14.4628 0.862314 11.3178 0.864261 8.09766V3.42285C0.864261 2.7443 1.13347 2.09309 1.61328 1.61328C2.0931 1.13348 2.7443 0.864258 3.42285 0.864258H20.5664C21.2449 0.864322 21.8953 1.13376 22.375 1.61328C22.8548 2.09308 23.125 2.74426 23.125 3.42285V8.09766Z" fill="#202020"/>
</g>
<defs>
<clipPath id="clip0_32935_1174">
<rect width="24" height="24" fill="white"/>
</clipPath>
</defs>
</svg>
