<svg width="24" height="24" viewBox="0 0 24 24" fill="none" xmlns="http://www.w3.org/2000/svg">
<path d="M12.5555 22.0312C12.1945 22.1706 11.7945 22.1706 11.4334 22.0312C8.61608 20.9496 6.19314 19.0387 4.48463 16.5511C2.77611 14.0635 1.86243 11.1161 1.86426 8.09825V3.42276C1.86426 3.00942 2.02846 2.61301 2.32073 2.32074C2.61301 2.02846 3.00942 1.86427 3.42276 1.86427H20.5662C20.9796 1.86427 21.3759 2.02846 21.6682 2.32074C21.9605 2.61301 22.1247 3.00942 22.1247 3.42276V8.09825C22.1266 11.1161 21.2128 14.0635 19.5043 16.5511C17.7959 19.0387 15.3729 20.9496 12.5555 22.0312Z" fill="#F2F2F2"/>
<path d="M21.2607 3.51893C21.2607 3.37253 21.2013 3.23235 21.0967 3.12879C20.992 3.02525 20.8503 2.96662 20.7022 2.96656H3.5586C3.41049 2.96656 3.26784 3.02521 3.16309 3.12879C3.05866 3.23231 3 3.37267 3 3.51893V8.14259L3.00977 8.66406C3.10787 11.2652 3.95001 13.7899 5.44434 15.9414C6.93872 18.093 9.01942 19.7764 11.4395 20.8007L11.9277 20.9967L11.9297 20.9977C12.0588 21.0469 12.2019 21.0469 12.3311 20.9977L12.333 20.9967C14.9612 19.9989 17.2216 18.2361 18.8154 15.9414C20.4094 13.6464 21.2625 10.9267 21.2607 8.14259V3.51893ZM23.2607 8.14163L23.249 8.73745C23.1369 11.7125 22.1738 14.5999 20.4648 17.0606C18.6418 19.6855 16.056 21.7018 13.0498 22.8431L13.0488 22.8421C12.4571 23.0674 11.8026 23.0676 11.2109 22.8421C8.20468 21.7009 5.61895 19.6855 3.7959 17.0606C1.97288 14.4358 0.998057 11.3259 1 8.14163V3.51893C1 2.84794 1.26921 2.20399 1.74903 1.72953C2.22884 1.25508 2.88004 0.988853 3.5586 0.988853H20.7022C21.3806 0.988917 22.031 1.25535 22.5107 1.72953C22.9906 2.20398 23.2607 2.8479 23.2607 3.51893V8.14163Z" fill="#202020"/>
</svg>
