<svg width="24" height="24" viewBox="0 0 24 24" fill="none" xmlns="http://www.w3.org/2000/svg">
<path d="M12.5556 22.0312C12.1945 22.1706 11.7945 22.1706 11.4334 22.0312C8.61609 20.9496 6.19315 19.0387 4.48465 16.5511C2.77613 14.0635 1.86245 11.1161 1.86428 8.09824V3.42276C1.86428 3.00941 2.02847 2.613 2.32075 2.32073C2.61303 2.02846 3.00944 1.86426 3.42277 1.86426H20.5662C20.9796 1.86426 21.3759 2.02846 21.6682 2.32073C21.9605 2.613 22.1247 3.00941 22.1247 3.42276V8.09824C22.1266 11.1161 21.2128 14.0635 19.5044 16.5511C17.7959 19.0387 15.3729 20.9496 12.5556 22.0312Z" fill="#F2F2F2"/>
<path d="M21.2607 3.51891C21.2607 3.37251 21.2013 3.23233 21.0967 3.12877C20.992 3.02522 20.8503 2.9666 20.7022 2.96654H3.5586C3.41049 2.96654 3.26784 3.02519 3.16309 3.12877C3.05866 3.23228 3 3.37264 3 3.51891V8.14257L3.00977 8.66404C3.10787 11.2652 3.95001 13.7899 5.44434 15.9414C6.93872 18.093 9.01942 19.7764 11.4395 20.8007L11.9277 20.9967L11.9297 20.9977C12.0588 21.0468 12.2019 21.0469 12.3311 20.9977L12.333 20.9967C14.9612 19.9989 17.2216 18.2361 18.8154 15.9414C20.4094 13.6464 21.2625 10.9266 21.2607 8.14257V3.51891ZM23.2607 8.1416L23.249 8.73743C23.1369 11.7125 22.1738 14.5998 20.4648 17.0606C18.6418 19.6854 16.056 21.7018 13.0498 22.8431L13.0488 22.8421C12.4571 23.0674 11.8026 23.0675 11.2109 22.8421C8.20468 21.7008 5.61895 19.6854 3.7959 17.0606C1.97288 14.4358 0.998057 11.3258 1 8.1416V3.51891C1 2.84791 1.26921 2.20397 1.74903 1.72951C2.22884 1.25506 2.88004 0.988831 3.5586 0.988831H20.7022C21.3806 0.988894 22.031 1.25533 22.5107 1.72951C22.9906 2.20396 23.2607 2.84788 23.2607 3.51891V8.1416Z" fill="#202020"/>
</svg>
