<svg width="24" height="25" viewBox="0 0 24 25" fill="none" xmlns="http://www.w3.org/2000/svg">
<path d="M12.5556 22.2795C12.1945 22.4205 11.7945 22.4205 11.4334 22.2795C8.61609 21.1857 6.19315 19.2533 4.48465 16.7376C2.77613 14.222 1.86245 11.2414 1.86428 8.18951V3.46132C1.86428 3.04331 2.02847 2.64244 2.32075 2.34687C2.61303 2.0513 3.00944 1.88525 3.42277 1.88525H20.5662C20.9796 1.88525 21.3759 2.0513 21.6682 2.34687C21.9605 2.64244 22.1247 3.04331 22.1247 3.46132V8.18951C22.1266 11.2414 21.2128 14.222 19.5044 16.7376C17.7959 19.2533 15.3729 21.1857 12.5556 22.2795Z" fill="#F2F2F2"/>
<path d="M21.2607 3.55859C21.2607 3.41055 21.2013 3.26879 21.0967 3.16406C20.992 3.05935 20.8503 3.00006 20.7022 3H3.5586C3.41049 3 3.26784 3.05931 3.16309 3.16406C3.05866 3.26874 3 3.41068 3 3.55859V8.23438L3.00977 8.76172C3.10787 11.3922 3.95001 13.9453 5.44434 16.1211C6.93872 18.2969 9.01942 19.9994 11.4395 21.0352L11.9277 21.2334L11.9297 21.2344C12.0588 21.2841 12.2019 21.2842 12.3311 21.2344L12.333 21.2334C14.9612 20.2244 17.2216 18.4417 18.8154 16.1211C20.4094 13.8002 21.2625 11.0498 21.2607 8.23438V3.55859ZM23.2607 8.2334L23.249 8.83594C23.1369 11.8445 22.1738 14.7644 20.4648 17.2529C18.6418 19.9073 16.056 21.9464 13.0498 23.1006L13.0488 23.0996C12.4571 23.3274 11.8026 23.3276 11.2109 23.0996C8.20468 21.9455 5.61895 19.9073 3.7959 17.2529C1.97288 14.5985 0.998057 11.4535 1 8.2334V3.55859C1 2.88004 1.26921 2.22884 1.74903 1.74902C2.22884 1.26923 2.88004 1 3.5586 1H20.7022C21.3806 1.00006 22.031 1.2695 22.5107 1.74902C22.9906 2.22882 23.2607 2.88001 23.2607 3.55859V8.2334Z" fill="#202020"/>
</svg>
