<svg width="24" height="24" viewBox="0 0 24 24" fill="none" xmlns="http://www.w3.org/2000/svg">
<path fill-rule="evenodd" clip-rule="evenodd" d="M12 3C7.02944 3 3 7.02944 3 12C3 16.9706 7.02944 21 12 21C16.9706 21 21 16.9706 21 12C21 7.02944 16.9706 3 12 3ZM1 12C1 5.92487 5.92487 1 12 1C18.0751 1 23 5.92487 23 12C23 18.0751 18.0751 23 12 23C5.92487 23 1 18.0751 1 12ZM7.5 9C7.5 8.17157 8.17157 7.5 9 7.5C9.82843 7.5 10.5 8.17157 10.5 9C10.5 9.82843 9.82843 10.5 9 10.5C8.17157 10.5 7.5 9.82843 7.5 9ZM13.5 9C13.5 8.17157 14.1716 7.5 15 7.5C15.8284 7.5 16.5 8.17157 16.5 9C16.5 9.82843 15.8284 10.5 15 10.5C14.1716 10.5 13.5 9.82843 13.5 9ZM7 15C7 14.4477 7.44772 14 8 14H16C16.5523 14 17 14.4477 17 15C17 15.5523 16.5523 16 16 16H8C7.44772 16 7 15.5523 7 15Z" fill="#132930"/>
</svg>
