<svg width="24" height="24" viewBox="0 0 24 24" fill="none" xmlns="http://www.w3.org/2000/svg">
<path fill-rule="evenodd" clip-rule="evenodd" d="M7.50006 8.5C7.50006 7.67157 8.17163 7 9.00006 7C9.82849 7 10.5001 7.67157 10.5001 8.5C10.5001 9.32843 9.82849 10 9.00006 10C8.17163 10 7.50006 9.32843 7.50006 8.5ZM13.5 8.5C13.5 7.67157 14.1716 7 15 7C15.8285 7 16.5 7.67157 16.5 8.5C16.5 9.32843 15.8285 10 15 10C14.1716 10 13.5 9.32843 13.5 8.5ZM7.40006 12.7C7.8405 12.3697 8.46474 12.4576 8.79692 12.8958L8.80156 12.9018C8.80751 12.9093 8.81883 12.9234 8.83537 12.9431C8.86852 12.9826 8.92225 13.0442 8.99548 13.1206C9.14278 13.2743 9.36413 13.4828 9.65073 13.6913C10.2278 14.1109 11.0256 14.5 12.0001 14.5C12.9745 14.5 13.7723 14.1109 14.3494 13.6913C14.636 13.4828 14.8573 13.2743 15.0046 13.1206C15.0779 13.0442 15.1316 12.9826 15.1647 12.9431C15.1813 12.9234 15.1926 12.9093 15.1985 12.9018L15.2032 12.8958C15.5354 12.4576 16.1596 12.3697 16.6 12.7C17.0419 13.0314 17.1314 13.6582 16.8 14.1L16 13.5C16.8 14.1 16.8003 14.0997 16.8 14.1L16.799 14.1013L16.7979 14.1029L16.7951 14.1065L16.7879 14.1159L16.7666 14.1432C16.7494 14.1649 16.726 14.1938 16.6967 14.2288C16.638 14.2987 16.555 14.3933 16.4486 14.5044C16.2365 14.7257 15.9266 15.0172 15.5257 15.3087C14.7278 15.8891 13.5256 16.5 12.0001 16.5C10.4745 16.5 9.27232 15.8891 8.47438 15.3087C8.07349 15.0172 7.76358 14.7257 7.55151 14.5044C7.44506 14.3933 7.36206 14.2987 7.30342 14.2288C7.27407 14.1938 7.25071 14.1649 7.23347 14.1432L7.21217 14.1159L7.20496 14.1065L7.20222 14.1029L7.20107 14.1013C7.20082 14.101 7.20006 14.1 8.00006 13.5L7.20006 14.1C6.86869 13.6582 6.95823 13.0314 7.40006 12.7Z" fill="#132930"/>
<path fill-rule="evenodd" clip-rule="evenodd" d="M12 3C7.02944 3 3 7.02944 3 12C3 16.9706 7.02944 21 12 21C16.9706 21 21 16.9706 21 12C21 7.02944 16.9706 3 12 3ZM1 12C1 5.92487 5.92487 1 12 1C18.0751 1 23 5.92487 23 12C23 18.0751 18.0751 23 12 23C5.92487 23 1 18.0751 1 12Z" fill="#132930"/>
</svg>
