<svg width="24" height="24" viewBox="0 0 24 24" fill="none" xmlns="http://www.w3.org/2000/svg">
<path d="M11.5107 1.71173C11.8806 1.58408 12.2883 1.60587 12.6455 1.77619C12.9981 1.94438 13.1928 2.23592 13.291 2.3963C13.3976 2.57049 13.5078 2.795 13.6142 3.01056L15.7539 7.34552L20.542 8.04669C20.7796 8.08143 21.0271 8.11616 21.2256 8.16388C21.4084 8.20787 21.7459 8.30314 22.0146 8.58673C22.3257 8.9151 22.4723 9.36681 22.4131 9.81525C22.3618 10.2026 22.1436 10.4781 22.0215 10.6209C21.8887 10.776 21.7091 10.9494 21.5371 11.117L18.0742 14.4891L18.8916 19.2527C18.9322 19.4898 18.9751 19.7366 18.9912 19.9402C19.006 20.1278 19.0205 20.4786 18.834 20.8221C18.618 21.2196 18.2338 21.4984 17.789 21.5809C17.4045 21.6521 17.0749 21.5299 16.9013 21.4578C16.7127 21.3795 16.492 21.2621 16.2793 21.1502L12 18.8992L7.72067 21.1502C7.50796 21.2621 7.28722 21.3795 7.0986 21.4578C6.925 21.5299 6.59541 21.6521 6.21091 21.5809C5.7661 21.4984 5.38196 21.2196 5.16598 20.8221C4.97941 20.4786 4.99393 20.1278 5.00876 19.9402C5.02488 19.7366 5.06771 19.4898 5.10837 19.2527L5.92477 14.4891L2.46286 11.117C2.29081 10.9494 2.11122 10.776 1.97848 10.6209C1.85633 10.4781 1.63818 10.2026 1.58688 9.81525C1.52766 9.36681 1.67423 8.9151 1.98532 8.58673C2.25401 8.30314 2.59152 8.20787 2.77438 8.16388C2.97281 8.11617 3.22031 8.08143 3.45798 8.04669L8.24509 7.34552L10.3857 3.01056C10.4921 2.79499 10.6023 2.57049 10.709 2.3963C10.8072 2.23593 11.0018 1.94438 11.3545 1.77619L11.5107 1.71173ZM9.99313 8.32599C9.95211 8.40909 9.84926 8.63828 9.67673 8.82404C9.54466 8.96618 9.38587 9.08206 9.20993 9.16388C8.98013 9.27061 8.73029 9.29697 8.63864 9.31037L4.14743 9.96662L7.39645 13.1297C7.44634 13.1783 7.564 13.2855 7.67184 13.4295L7.77341 13.5848L7.83786 13.7156C7.87651 13.8044 7.90682 13.8965 7.9277 13.991L7.95212 14.1346L7.96091 14.3201C7.95835 14.4996 7.92584 14.6547 7.91403 14.7235L7.14841 19.1912L11.1621 17.0809C11.2442 17.0377 11.4619 16.912 11.7109 16.8631L11.8554 16.8416C11.9515 16.8323 12.0484 16.8323 12.1445 16.8416L12.289 16.8631L12.4677 16.9119C12.638 16.9699 12.7762 17.0485 12.8379 17.0809L16.8506 19.1912L16.0859 14.7235C16.0702 14.6318 16.0174 14.3862 16.0478 14.1346L16.0722 13.991C16.1036 13.8492 16.1556 13.7122 16.2265 13.5848C16.3501 13.363 16.537 13.1944 16.6035 13.1297L19.8515 9.96662L15.3613 9.31037C15.2696 9.29697 15.0198 9.27062 14.79 9.16388C14.6141 9.08206 14.4553 8.96618 14.3232 8.82404C14.1508 8.63843 14.0489 8.40925 14.0078 8.32599L12 4.25958L9.99313 8.32599Z" fill="#132930"/>
</svg>
