<svg width="24" height="24" viewBox="0 0 24 24" fill="none" xmlns="http://www.w3.org/2000/svg">
<path fill-rule="evenodd" clip-rule="evenodd" d="M12 22C17.5229 22 22 17.5229 22 12C22 6.47716 17.5229 2 12 2C6.47716 2 2 6.47716 2 12C2 17.5229 6.47716 22 12 22ZM17.004 9.45503C17.3736 8.99296 17.2987 8.31873 16.8366 7.94907C16.3746 7.57941 15.7003 7.65433 15.3307 8.1164L10.2651 14.4483L8.23873 12.9286C7.76534 12.5735 7.09377 12.6695 6.73873 13.1429C6.3837 13.6162 6.47963 14.2878 6.95301 14.6429L9.81016 16.7857C10.2731 17.133 10.9282 17.0497 11.2897 16.5979L17.004 9.45503Z" fill="#132930"/>
</svg>
