<svg width="24" height="24" viewBox="0 0 24 24" fill="none" xmlns="http://www.w3.org/2000/svg">
<path d="M13 4.46582C13 3.69443 12.404 3.06375 11.6475 3.00586L8.17773 10.8125C8.12801 10.9244 8.06749 11.0292 8 11.1279V21H17.4258C18.4129 21 19.2532 20.2794 19.4033 19.3037L20.4795 12.3037C20.6657 11.0923 19.7286 10 18.5029 10H15C13.8954 10 13 9.10457 13 8V4.46582ZM3 20C3 20.5523 3.44772 21 4 21H6V12H4C3.44772 12 3 12.4477 3 13V20ZM15 8H18.5029C20.9545 8 22.8298 10.1854 22.457 12.6084L21.3799 19.6084C21.0796 21.5597 19.4 23 17.4258 23H4C2.34315 23 1 21.6569 1 20V13C1 11.3431 2.34315 10 4 10H6.35059L9.86914 2.08203L9.92773 1.96094C10.243 1.37231 10.8592 1 11.5342 1L11.7129 1.00488C13.5439 1.09791 15 2.61165 15 4.46582V8Z" fill="#132930"/>
</svg>
