<svg width="24" height="24" viewBox="0 0 24 24" fill="none" xmlns="http://www.w3.org/2000/svg">
<path d="M21 5.2002C21 4.62365 20.9997 4.25112 20.9766 3.96778C20.9544 3.69613 20.9158 3.59535 20.8907 3.5459C20.7948 3.35793 20.6421 3.20521 20.4541 3.10938C20.4047 3.08419 20.3039 3.04661 20.0323 3.02442C19.7489 3.00127 19.3764 3 18.7998 3H18V12H18.7998C19.3764 12 19.7489 11.9987 20.0323 11.9756C20.3039 11.9534 20.4047 11.9158 20.4541 11.8906C20.6421 11.7948 20.7948 11.6421 20.8907 11.4541C20.9158 11.4047 20.9544 11.3039 20.9766 11.0322C20.9997 10.7489 21 10.3764 21 9.79981V5.2002ZM11 19.5342C11 20.3052 11.5956 20.9347 12.3516 20.9932L15.6641 13.544C15.7507 13.349 15.8518 13.1052 16 12.8789V3H8.11819C7.3723 3 6.86805 3.00041 6.47562 3.03028C6.09597 3.05921 5.8947 3.11228 5.74808 3.17872C5.40147 3.33587 5.10642 3.5885 4.89847 3.90723C4.81057 4.04203 4.72888 4.23292 4.64261 4.60352C4.55341 4.98684 4.47575 5.48544 4.36233 6.22266L3.8389 9.62208C3.68967 10.5921 3.58815 11.2566 3.55374 11.7725C3.51998 12.2787 3.56072 12.5366 3.62796 12.7129C3.79332 13.1464 4.10457 13.5088 4.50784 13.7383C4.67182 13.8315 4.92055 13.9115 5.42581 13.9551C5.94085 13.9995 6.61339 14 7.59476 14H8.40042C8.66383 14 8.92188 13.9989 9.1387 14.0166C9.36722 14.0353 9.63695 14.0796 9.90823 14.2178C10.2375 14.3855 10.513 14.6409 10.7051 14.9541L10.7823 15.0918L10.8692 15.2949C10.9407 15.4958 10.9694 15.6901 10.9834 15.8613C11.0011 16.0781 11 16.3362 11 16.5996V19.5342ZM23 9.79981C23 10.3434 23.0011 10.8116 22.9698 11.1953C22.9374 11.5906 22.8656 11.984 22.6729 12.3623C22.3853 12.9265 21.9266 13.3853 21.3623 13.6729C20.984 13.8656 20.5906 13.9374 20.1953 13.9697C19.8117 14.0011 19.3434 14 18.7998 14H18.0401C17.8393 14 17.7352 14 17.6602 14.0049C17.6578 14.005 17.6555 14.0047 17.6534 14.0049C17.6523 14.0069 17.6516 14.0095 17.6504 14.0117C17.6155 14.0783 17.5727 14.1731 17.4912 14.3565L14.1309 21.918C13.8385 22.5759 13.1859 23 12.4659 23C10.5518 23 9.00004 21.4483 9.00003 19.5342V16.5996C9.00003 16.3033 8.99979 16.141 8.99026 16.0244C8.9899 16.0199 8.98868 16.0157 8.98831 16.0117C8.98431 16.0114 8.98007 16.0111 8.97562 16.0107C8.85908 16.0012 8.69673 16 8.40042 16H7.59476C6.64878 16 5.875 16.0009 5.25394 15.9473C4.62341 15.8928 4.04503 15.7763 3.51956 15.4775C2.71263 15.0187 2.09068 14.2931 1.7598 13.4258C1.54433 12.8609 1.51651 12.2713 1.55862 11.6397C1.6001 11.0177 1.7185 10.2533 1.86233 9.31836L2.38577 5.91797C2.49457 5.21076 2.58394 4.62496 2.69437 4.1504C2.80762 3.66375 2.95771 3.22215 3.22366 2.81446C3.63974 2.17673 4.22931 1.67072 4.92288 1.35645C5.36641 1.15548 5.82588 1.07407 6.32425 1.03614C6.81011 0.999153 7.40261 1 8.11819 1H18.7998C19.3434 1 19.8117 0.998931 20.1953 1.03028C20.5906 1.06259 20.984 1.13439 21.3623 1.32715C21.9266 1.61472 22.3853 2.07347 22.6729 2.6377C22.8656 3.016 22.9374 3.40944 22.9698 3.80469C23.0011 4.18836 23 4.65665 23 5.2002V9.79981Z" fill="#132930"/>
</svg>
