<svg width="24" height="24" viewBox="0 0 24 24" fill="none" xmlns="http://www.w3.org/2000/svg">
<path d="M11 20.9991V14.4132L8.70703 16.7062C8.31651 17.0967 7.68349 17.0967 7.29297 16.7062C6.90244 16.3157 6.90244 15.6826 7.29297 15.2921L11.293 11.2921L11.3691 11.2238C11.7619 10.9034 12.3409 10.926 12.707 11.2921L16.707 15.2921L16.7754 15.3683C17.0957 15.7611 17.0731 16.3401 16.707 16.7062C16.3409 17.0723 15.7619 17.0949 15.3691 16.7745L15.293 16.7062L13 14.4132V20.9991C13 21.5514 12.5523 21.9991 12 21.9991C11.4477 21.9991 11 21.5514 11 20.9991ZM21 12.4991C21 10.6769 19.6068 9.17855 17.8281 9.01379C17.3751 8.97183 17.0074 8.62975 16.9336 8.18079C16.5437 5.80888 14.4822 3.99915 12 3.99915C9.51785 3.99915 7.45634 5.80887 7.06641 8.18079C6.99257 8.62975 6.62494 8.97183 6.17188 9.01379C4.39322 9.17855 3 10.6769 3 12.4991C3 13.6359 3.54119 14.6466 4.38379 15.2872L4.55664 15.4103L4.63867 15.4718C5.02895 15.7949 5.11899 16.3678 4.83105 16.798C4.54296 17.2281 3.97873 17.3632 3.53125 17.1251L3.44336 17.0724L3.17383 16.88C1.85446 15.8768 1 14.2879 1 12.4991C1 9.89101 2.81476 7.70766 5.25098 7.14172C6.06524 4.1773 8.77672 1.99915 12 1.99915C15.2232 1.99915 17.9337 4.17743 18.748 7.14172C21.1847 7.70733 23 9.89068 23 12.4991C23 14.4069 22.028 16.0874 20.5566 17.0724C20.0978 17.3796 19.4762 17.2568 19.1689 16.798C18.8618 16.3391 18.9846 15.7175 19.4434 15.4103C20.3839 14.7807 21 13.7117 21 12.4991Z" fill="#132930"/>
</svg>
