<svg width="24" height="24" viewBox="0 0 24 24" fill="none" xmlns="http://www.w3.org/2000/svg">
<path d="M12.3752 3.06244C12.2585 3.02077 12.1335 2.99994 12.0002 2.99994C11.8669 2.99994 11.7419 3.02077 11.6252 3.06244C11.5085 3.10411 11.4002 3.17494 11.3002 3.27494L6.7002 7.87494C6.51686 8.05827 6.4252 8.29161 6.4252 8.57494C6.4252 8.85827 6.51686 9.09161 6.7002 9.27494C6.88353 9.45827 7.12103 9.5541 7.4127 9.56244C7.70436 9.57077 7.94186 9.48327 8.1252 9.29994L11.0002 6.42494L11.0002 15.5749C11.0002 15.8583 11.096 16.0958 11.2877 16.2874C11.4794 16.4791 11.7169 16.5749 12.0002 16.5749C12.2835 16.5749 12.521 16.4791 12.7127 16.2874C12.9044 16.0958 13.0002 15.8583 13.0002 15.5749L13.0002 6.42494L15.8752 9.29994C16.0585 9.48327 16.296 9.57077 16.5877 9.56244C16.8794 9.55411 17.1169 9.45827 17.3002 9.27494C17.4835 9.09161 17.5752 8.85827 17.5752 8.57494C17.5752 8.29161 17.4835 8.05827 17.3002 7.87494L12.7002 3.27494C12.6002 3.17494 12.4919 3.10411 12.3752 3.06244Z" fill="#132930"/>
<path d="M3.5875 20.4125C3.97917 20.8042 4.45 21 5 21H19C19.55 21 20.0208 20.8042 20.4125 20.4125C20.8042 20.0208 21 19.55 21 19V17C21 16.7167 20.9042 16.4792 20.7125 16.2875C20.5208 16.0958 20.2833 16 20 16C19.7167 16 19.4792 16.0958 19.2875 16.2875C19.0958 16.4792 19 16.7167 19 17V19H5V17C5 16.7167 4.90417 16.4792 4.7125 16.2875C4.52083 16.0958 4.28333 16 4 16C3.71667 16 3.47917 16.0958 3.2875 16.2875C3.09583 16.4792 3 16.7167 3 17V19C3 19.55 3.19583 20.0208 3.5875 20.4125Z" fill="#132930"/>
</svg>
