<svg width="24" height="24" viewBox="0 0 24 24" fill="none" xmlns="http://www.w3.org/2000/svg">
<path d="M12.375 3.063A1.107 1.107 0 0 0 12 3c-.133 0-.258.02-.375.063a.877.877 0 0 0-.325.212l-4.6 4.6a.948.948 0 0 0-.275.7c0 .283.092.517.275.7.184.183.421.28.713.287.291.009.529-.079.712-.262L11 6.425v9.15c0 .283.096.52.288.713.191.191.429.287.712.287.284 0 .521-.096.713-.287a.968.968 0 0 0 .287-.713v-9.15L15.875 9.3c.183.183.421.27.713.262.291-.008.529-.104.712-.287a.948.948 0 0 0 .275-.7.948.948 0 0 0-.275-.7l-4.6-4.6a.877.877 0 0 0-.325-.212Z" fill="#132930"/>
<path d="M3.587 20.413C3.98 20.803 4.45 21 5 21h14c.55 0 1.02-.196 1.413-.587.391-.392.587-.863.587-1.413v-2a.968.968 0 0 0-.288-.712A.968.968 0 0 0 20 16a.968.968 0 0 0-.712.288A.968.968 0 0 0 19 17v2H5v-2a.968.968 0 0 0-.287-.712A.968.968 0 0 0 4 16a.968.968 0 0 0-.712.288A.968.968 0 0 0 3 17v2c0 .55.196 1.02.587 1.413Z" fill="#132930"/>
</svg>
