<svg width="24" height="24" viewBox="0 0 24 24" fill="none" xmlns="http://www.w3.org/2000/svg">
<path d="M11.9999 3.99915C14.8615 3.99915 17.1951 5.2635 18.9237 6.70618C20.6499 8.14686 21.8329 9.81349 22.4257 10.7521C22.5306 10.9183 22.6732 11.1303 22.7626 11.422L22.7977 11.5519L22.8329 11.7687C22.8562 11.9945 22.8445 12.2425 22.7977 12.4464C22.7151 12.8065 22.5456 13.0563 22.4257 13.2462C21.8329 14.1848 20.6499 15.8514 18.9237 17.2921C17.1951 18.7348 14.8615 19.9991 11.9999 19.9991C9.1385 19.999 6.80552 18.7347 5.07702 17.2921C3.35077 15.8514 2.16684 14.1848 1.57409 13.2462C1.45414 13.0563 1.28559 12.8064 1.203 12.4464C1.14067 12.1745 1.14067 11.8238 1.203 11.5519C1.28559 11.1919 1.45414 10.942 1.57409 10.7521C2.16684 9.81351 3.35077 8.14693 5.07702 6.70618C6.80552 5.2636 9.1385 3.99926 11.9999 3.99915ZM11.9999 5.99915C9.75672 5.99926 7.86212 6.98718 6.35827 8.24231C4.85235 9.49925 3.7982 10.976 3.2655 11.8195C3.23016 11.8754 3.20511 11.9153 3.18445 11.9493C3.17084 11.9717 3.16212 11.9874 3.15613 11.9982V11.9991C3.16212 12.01 3.17053 12.026 3.18445 12.049C3.20511 12.083 3.23016 12.1229 3.2655 12.1788C3.7982 13.0223 4.85235 14.499 6.35827 15.756C7.86212 17.0111 9.75672 17.999 11.9999 17.9991C14.2432 17.9991 16.1385 17.0112 17.6425 15.756C19.1484 14.499 20.2026 13.0222 20.7352 12.1788C20.7706 12.1229 20.7947 12.083 20.8153 12.049C20.8292 12.0261 20.8376 12.01 20.8436 11.9991C20.8376 11.9883 20.8292 11.9722 20.8153 11.9493C20.7947 11.9153 20.7706 11.8754 20.7352 11.8195C20.2026 10.9761 19.1484 9.49927 17.6425 8.24231C16.1385 6.9871 14.2432 5.99915 11.9999 5.99915ZM13.9999 11.9991C13.9999 10.8946 13.1044 9.99915 11.9999 9.99915C10.8955 9.99936 9.99988 10.8947 9.99988 11.9991C9.99988 13.1036 10.8955 13.9989 11.9999 13.9991C13.1044 13.9991 13.9999 13.1037 13.9999 11.9991ZM3.1571 12.0236V12.0216L3.15613 12.0197C3.15624 12.0213 3.15701 12.0226 3.1571 12.0236ZM15.9999 11.9991C15.9999 14.2083 14.209 15.9991 11.9999 15.9991C9.79092 15.9989 7.99988 14.2081 7.99988 11.9991C7.99988 9.79014 9.79092 7.99936 11.9999 7.99915C14.209 7.99915 15.9999 9.79001 15.9999 11.9991Z" fill="#132930"/>
</svg>
