<svg width="24" height="24" viewBox="0 0 24 24" fill="none" xmlns="http://www.w3.org/2000/svg">
<path d="M2.29305 2.29215C2.65927 1.92593 3.23914 1.90316 3.63192 2.22379L3.70809 2.29215L7.34774 5.9318C7.40283 5.97572 7.45319 6.02666 7.4991 6.08317L17.9005 16.4845C17.9634 16.5332 18.0202 16.5907 18.0714 16.6554L21.7081 20.2922C22.0982 20.6826 22.0982 21.3158 21.7081 21.7062C21.3176 22.0967 20.6836 22.0967 20.2931 21.7062L17.1378 18.5509C15.6931 19.3961 13.9714 19.9992 12.0001 19.9992C9.1387 19.9991 6.80573 18.7347 5.07723 17.2922C3.35098 15.8514 2.16705 14.1848 1.5743 13.2463C1.45428 13.0562 1.28576 12.8057 1.20321 12.4455C1.14097 12.1736 1.14088 11.8237 1.20321 11.5519C1.28589 11.1915 1.45496 10.9406 1.57528 10.7502C2.17765 9.7966 3.40289 8.07622 5.19735 6.61051L2.29305 3.70622C1.9028 3.31574 1.9028 2.68262 2.29305 2.29215ZM6.61825 8.03141C4.97917 9.32548 3.83419 10.9202 3.26668 11.8185C3.23122 11.8747 3.20642 11.9142 3.18563 11.9484C3.17168 11.9714 3.16243 11.9872 3.15633 11.9982C3.16232 12.009 3.17073 12.0261 3.18465 12.049C3.20531 12.083 3.23036 12.1229 3.26571 12.1789C3.7984 13.0223 4.85255 14.4991 6.35848 15.756C7.86233 17.0111 9.75693 17.9991 12.0001 17.9992C13.3529 17.9992 14.5775 17.6404 15.6671 17.0802L14.0313 15.4445C13.436 15.796 12.7413 15.9992 12.0001 15.9992C9.79113 15.999 8.00008 14.2082 8.00008 11.9992C8.00008 11.2579 8.2032 10.5633 8.55477 9.96793L6.61825 8.03141ZM20.9835 15.2218C20.6289 15.6452 19.9977 15.7013 19.5743 15.3468C19.1509 14.9923 19.0957 14.3611 19.4503 13.9377L20.9835 15.2218ZM12.0001 3.99918C14.8617 3.99918 17.1953 5.26354 18.9239 6.70622C20.6501 8.1469 21.8331 9.81353 22.4259 10.7521C22.5308 10.9183 22.6734 11.1304 22.7628 11.422L22.7979 11.5529L22.8331 11.7687C22.8564 11.9946 22.8447 12.2425 22.7979 12.4465C22.7152 12.807 22.5454 13.0584 22.4249 13.2492C22.1065 13.753 21.6234 14.4575 20.9835 15.2218L19.4503 13.9377C20.0214 13.2556 20.4522 12.6261 20.7335 12.1808C20.7691 12.1245 20.7946 12.0843 20.8155 12.05C20.8298 12.0265 20.8387 12.0102 20.8448 11.9992C20.8388 11.9884 20.8301 11.9718 20.8165 11.9494C20.7958 11.9154 20.7708 11.8755 20.7354 11.8195C20.2028 10.9761 19.1486 9.49931 17.6427 8.24235C16.1387 6.98714 14.2434 5.99918 12.0001 5.99918C11.6185 5.99921 11.2485 6.02819 10.8897 6.08122C10.3434 6.16199 9.83477 5.78381 9.75399 5.23747C9.67337 4.69124 10.0505 4.1835 10.5968 4.1027C11.0505 4.03562 11.5185 3.99921 12.0001 3.99918ZM3.15731 12.0236V12.0216L3.15633 12.0197C3.15644 12.0214 3.15722 12.0226 3.15731 12.0236ZM10.0001 11.9992C10.0001 13.1036 10.8957 13.999 12.0001 13.9992C12.1787 13.9992 12.3512 13.9726 12.5157 13.9289L10.0694 11.4826C10.0255 11.6474 10.0001 11.8203 10.0001 11.9992Z" fill="#132930"/>
</svg>
