<svg width="24" height="24" viewBox="0 0 24 24" fill="none" xmlns="http://www.w3.org/2000/svg">
<path d="M12 3.99915C14.8616 3.99915 17.1952 5.2635 18.9238 6.70618C20.65 8.14686 21.833 9.81349 22.4258 10.7521C22.5307 10.9183 22.6734 11.1303 22.7627 11.422L22.7978 11.5519L22.833 11.7687C22.8563 11.9945 22.8446 12.2425 22.7978 12.4464C22.7152 12.8065 22.5457 13.0563 22.4258 13.2462C21.833 14.1848 20.65 15.8514 18.9238 17.2921C17.1952 18.7348 14.8616 19.9991 12 19.9991C9.13862 19.999 6.80564 18.7347 5.07715 17.2921C3.3509 15.8514 2.16696 14.1848 1.57422 13.2462C1.45426 13.0563 1.28572 12.8064 1.20312 12.4464C1.14079 12.1745 1.14079 11.8238 1.20312 11.5519C1.28572 11.1919 1.45426 10.942 1.57422 10.7521C2.16696 9.81351 3.3509 8.14693 5.07715 6.70618C6.80564 5.2636 9.13862 3.99926 12 3.99915ZM12 5.99915C9.75684 5.99926 7.86225 6.98718 6.3584 8.24231C4.85247 9.49925 3.79832 10.976 3.26562 11.8195C3.23028 11.8754 3.20523 11.9153 3.18457 11.9493C3.17097 11.9717 3.16224 11.9874 3.15625 11.9982V11.9991C3.16224 12.01 3.17065 12.026 3.18457 12.049C3.20523 12.083 3.23028 12.1229 3.26562 12.1788C3.79832 13.0223 4.85247 14.499 6.3584 15.756C7.86225 17.0111 9.75684 17.999 12 17.9991C14.2433 17.9991 16.1386 17.0112 17.6426 15.756C19.1485 14.499 20.2027 13.0222 20.7353 12.1788C20.7707 12.1229 20.7948 12.083 20.8154 12.049C20.8293 12.0261 20.8377 12.01 20.8437 11.9991C20.8377 11.9883 20.8293 11.9722 20.8154 11.9493C20.7948 11.9153 20.7707 11.8754 20.7353 11.8195C20.2027 10.9761 19.1485 9.49927 17.6426 8.24231C16.1386 6.9871 14.2433 5.99915 12 5.99915ZM14 11.9991C14 10.8946 13.1046 9.99915 12 9.99915C10.8956 9.99936 10 10.8947 10 11.9991C10 13.1036 10.8956 13.9989 12 13.9991C13.1046 13.9991 14 13.1037 14 11.9991ZM3.15722 12.0236V12.0216L3.15625 12.0197C3.15636 12.0213 3.15714 12.0226 3.15722 12.0236ZM16 11.9991C16 14.2083 14.2091 15.9991 12 15.9991C9.79104 15.9989 8 14.2081 8 11.9991C8 9.79014 9.79104 7.99936 12 7.99915C14.2091 7.99915 16 9.79001 16 11.9991Z" fill="#132930"/>
</svg>
