<svg width="24" height="24" viewBox="0 0 24 24" fill="none" xmlns="http://www.w3.org/2000/svg">
<path d="M2.29299 2.29215C2.65921 1.92593 3.23908 1.90316 3.63186 2.22379L3.70803 2.29215L7.34768 5.9318C7.40277 5.97572 7.45312 6.02666 7.49904 6.08317L17.9004 16.4845C17.9633 16.5332 18.0201 16.5907 18.0713 16.6554L21.708 20.2922C22.0982 20.6826 22.0982 21.3158 21.708 21.7062C21.3175 22.0967 20.6835 22.0967 20.293 21.7062L17.1377 18.5509C15.693 19.3961 13.9713 19.9992 12 19.9992C9.13864 19.9991 6.80567 18.7347 5.07717 17.2922C3.35092 15.8514 2.16699 14.1848 1.57424 13.2463C1.45422 13.0562 1.2857 12.8057 1.20315 12.4455C1.14091 12.1736 1.14082 11.8237 1.20315 11.5519C1.28583 11.1915 1.4549 10.9406 1.57522 10.7502C2.17759 9.7966 3.40283 8.07622 5.19729 6.61051L2.29299 3.70622C1.90274 3.31574 1.90274 2.68262 2.29299 2.29215ZM6.61818 8.03141C4.97911 9.32548 3.83413 10.9202 3.26662 11.8185C3.23115 11.8747 3.20636 11.9142 3.18557 11.9484C3.17162 11.9714 3.16237 11.9872 3.15627 11.9982C3.16226 12.009 3.17067 12.0261 3.18459 12.049C3.20525 12.083 3.2303 12.1229 3.26565 12.1789C3.79834 13.0223 4.85249 14.4991 6.35842 15.756C7.86227 17.0111 9.75687 17.9991 12 17.9992C13.3528 17.9992 14.5775 17.6404 15.667 17.0802L14.0313 15.4445C13.4359 15.796 12.7412 15.9992 12 15.9992C9.79107 15.999 8.00002 14.2082 8.00002 11.9992C8.00002 11.2579 8.20314 10.5633 8.55471 9.96793L6.61818 8.03141ZM20.9834 15.2218C20.6289 15.6452 19.9977 15.7013 19.5742 15.3468C19.1508 14.9923 19.0957 14.3611 19.4502 13.9377L20.9834 15.2218ZM12 3.99918C14.8616 3.99918 17.1953 5.26354 18.9238 6.70622C20.65 8.1469 21.833 9.81353 22.4258 10.7521C22.5308 10.9183 22.6734 11.1304 22.7627 11.422L22.7979 11.5529L22.833 11.7687C22.8564 11.9946 22.8446 12.2425 22.7979 12.4465C22.7151 12.807 22.5453 13.0584 22.4248 13.2492C22.1065 13.753 21.6234 14.4575 20.9834 15.2218L19.4502 13.9377C20.0213 13.2556 20.4521 12.6261 20.7334 12.1808C20.769 12.1245 20.7946 12.0843 20.8155 12.05C20.8297 12.0265 20.8386 12.0102 20.8447 11.9992C20.8388 11.9884 20.83 11.9718 20.8164 11.9494C20.7958 11.9154 20.7707 11.8755 20.7354 11.8195C20.2027 10.9761 19.1485 9.49931 17.6426 8.24235C16.1387 6.98714 14.2434 5.99918 12 5.99918C11.6184 5.99921 11.2484 6.02819 10.8897 6.08122C10.3433 6.16199 9.8347 5.78381 9.75393 5.23747C9.67331 4.69124 10.0505 4.1835 10.5967 4.1027C11.0504 4.03562 11.5184 3.99921 12 3.99918ZM3.15725 12.0236V12.0216L3.15627 12.0197C3.15638 12.0214 3.15716 12.0226 3.15725 12.0236ZM10 11.9992C10 13.1036 10.8956 13.999 12 13.9992C12.1786 13.9992 12.3511 13.9726 12.5156 13.9289L10.0694 11.4826C10.0254 11.6474 10 11.8203 10 11.9992Z" fill="#132930"/>
</svg>
