<svg width="24" height="24" viewBox="0 0 24 24" fill="none" xmlns="http://www.w3.org/2000/svg">
<path d="M2.73041 21.0001H21.2604C22.0304 21.0001 22.5104 20.1701 22.1304 19.5001L12.8604 3.50006C12.4704 2.83006 11.5104 2.83006 11.1304 3.50006L1.86041 19.5001C1.48041 20.1701 1.96041 21.0001 2.73041 21.0001ZM13.0004 18.0001H11.0004V16.0001H13.0004V18.0001ZM12.0004 14.0001C11.4504 14.0001 11.0004 13.5501 11.0004 13.0001V11.0001C11.0004 10.4501 11.4504 10.0001 12.0004 10.0001C12.5504 10.0001 13.0004 10.4501 13.0004 11.0001V13.0001C13.0004 13.5501 12.5504 14.0001 12.0004 14.0001Z" fill="#132930"/>
</svg>
