<svg width="24" height="24" viewBox="0 0 24 24" fill="none" xmlns="http://www.w3.org/2000/svg">
<path fill-rule="evenodd" clip-rule="evenodd" d="M1 4.99915C1 2.79001 2.79086 0.999146 5 0.999146H19C21.2091 0.999146 23 2.79001 23 4.99915V18.9991C23 21.2083 21.2091 22.9991 19 22.9991H5C2.79086 22.9991 1 21.2083 1 18.9991V4.99915ZM12 12.9991C11.1716 12.9991 10.5 12.3276 10.5 11.4991V7.49915C10.5 6.67072 11.1716 5.99915 12 5.99915C12.8284 5.99915 13.5 6.67072 13.5 7.49915V11.4991C13.5 12.3276 12.8284 12.9991 12 12.9991ZM12 17.9991C11.1716 17.9991 10.5 17.3276 10.5 16.4991C10.5 15.6707 11.1716 14.9991 12 14.9991C12.8284 14.9991 13.5 15.6707 13.5 16.4991C13.5 17.3276 12.8284 17.9991 12 17.9991Z" fill="#132930"/>
</svg>
