<svg width="24" height="24" viewBox="0 0 24 24" fill="none" xmlns="http://www.w3.org/2000/svg">
<path d="M21 10.2002C21 9.6236 20.9987 9.25107 20.9756 8.96774C20.9534 8.69615 20.9158 8.5953 20.8906 8.54586C20.7948 8.35789 20.6421 8.20518 20.4541 8.10934C20.4047 8.08415 20.3038 8.04657 20.0322 8.02438C19.7489 8.00123 19.3764 7.99996 18.7998 7.99996H5.2002C4.62365 7.99996 4.25112 8.00123 3.96778 8.02438C3.69619 8.04657 3.59534 8.08415 3.5459 8.10934C3.35793 8.20518 3.20522 8.35789 3.10938 8.54586C3.08419 8.5953 3.04662 8.69615 3.02442 8.96774C3.00127 9.25107 3 9.6236 3 10.2002V17.7998C3 18.3763 3.00127 18.7489 3.02442 19.0322C3.04662 19.3038 3.08419 19.4046 3.10938 19.4541C3.20522 19.642 3.35793 19.7947 3.5459 19.8906C3.59534 19.9158 3.69619 19.9534 3.96778 19.9755C4.25112 19.9987 4.62365 20 5.2002 20H18.7998C19.3764 20 19.7489 19.9987 20.0322 19.9755C20.3038 19.9534 20.4047 19.9158 20.4541 19.8906C20.6421 19.7947 20.7948 19.642 20.8906 19.4541C20.9158 19.4046 20.9534 19.3038 20.9756 19.0322C20.9987 18.7489 21 18.3763 21 17.7998V10.2002ZM12 3.99996C11.0057 3.99996 10.7047 4.00876 10.4824 4.06832C9.79224 4.25326 9.2533 4.7922 9.06836 5.48238C9.03654 5.60117 9.01993 5.74241 9.01075 5.99996H14.9893C14.9801 5.74241 14.9635 5.60117 14.9316 5.48238C14.7467 4.7922 14.2078 4.25326 13.5176 4.06832C13.2953 4.00876 12.9944 3.99996 12 3.99996ZM23 17.7998C23 18.3433 23.0011 18.8116 22.9697 19.1953C22.9374 19.5905 22.8656 19.984 22.6729 20.3623C22.3853 20.9265 21.9265 21.3852 21.3623 21.6728C20.984 21.8656 20.5906 21.9374 20.1953 21.9697C19.8116 22.001 19.3434 22 18.7998 22H5.2002C4.65665 22 4.18836 22.001 3.80469 21.9697C3.40943 21.9374 3.016 21.8656 2.6377 21.6728C2.07348 21.3852 1.61473 20.9265 1.32715 20.3623C1.1344 19.984 1.06259 19.5905 1.03028 19.1953C0.998931 18.8116 1 18.3433 1 17.7998V10.2002C1 9.65661 0.998931 9.18832 1.03028 8.80465C1.06259 8.40939 1.1344 8.01595 1.32715 7.63766C1.61473 7.07343 2.07348 6.61468 2.6377 6.32711C3.016 6.13436 3.40943 6.06255 3.80469 6.03024C4.18836 5.99889 4.65665 5.99996 5.2002 5.99996H7.01075C7.02368 5.60819 7.05434 5.27225 7.13672 4.96481C7.50659 3.58444 8.58448 2.50655 9.96485 2.13668C10.5056 1.9918 11.1344 1.99996 12 1.99996C12.8656 1.99996 13.4944 1.9918 14.0352 2.13668C15.4155 2.50655 16.4934 3.58444 16.8633 4.96481C16.9457 5.27225 16.9763 5.60819 16.9893 5.99996H18.7998C19.3434 5.99996 19.8116 5.99889 20.1953 6.03024C20.5906 6.06255 20.984 6.13436 21.3623 6.32711C21.9265 6.61469 22.3853 7.07343 22.6729 7.63766C22.8656 8.01595 22.9374 8.40939 22.9697 8.80465C23.0011 9.18832 23 9.65661 23 10.2002V17.7998Z" fill="#132930"/>
</svg>
