<svg enable-background="new 0 0 275.74 101.72" viewBox="0 0 275.74 101.72" xmlns="http://www.w3.org/2000/svg"><path d="m0 0h275.74v101.72h-275.74z" fill="#132930"/><g fill="#fff"><path d="m29.74 50.46-13.4-23c.4-2.2 1.2-4.3 2.3-6.1 1.8-3 4.4-5.3 7.7-7 3.3-1.8 7.1-2.7 11.3-2.9 5.5 0 10.1.7 13.5 2 3.5 1.3 6.6 2.9 9.4 4.7l.3.2-5.5 11.1-.4-.2c-2.6-1.4-5.2-2.6-7.9-3.5-2.6-.9-5.1-1.4-7.4-1.4-2.9 0-5.1.6-6.6 1.7s-2.3 2.7-2.3 5c0 1.5.6 2.8 1.7 4.1 1.3 1.2 2.9 2.3 4.8 3.3 2 1 4.1 1.9 6.3 2.7 2 .8 4 1.7 5.9 2.7 2 1 3.8 2.3 5.4 3.9 1.6 1.5 2.9 3.5 3.8 5.8 1 2.3 1.4 5.1 1.4 8.4 0 3.6-.9 6.9-2.8 9.9-1.8 3.1-4.5 5.5-8.1 7.4-.8.4-1.6.7-2.4 1.1l-6.8-11.8c1.5-.5 2.7-1.2 3.6-2.2 1-1 1.6-2.5 1.6-4.4 0-1.3-.4-2.4-1.3-3.5-.8-1.1-2-2.1-3.5-3s-3.1-1.7-4.9-2.4c-1.7-.8-3.7-1.7-5.7-2.6z"/><path clip-rule="evenodd" d="m102.34 57.26c3.2-1.5 5.7-3.3 7.5-5.7 1.9-2.3 3.3-4.9 4.1-7.8.9-2.9 1.3-5.8 1.3-8.6 0-4.8-1-8.9-3.1-12.4s-5.1-6.3-9.1-8.2c-4-2-8.8-2.9-14.5-2.9h-21.2v69.3h14.3v-21.7h9.3c4.4.1 8.3-.6 11.4-2zm-3.6-15.4c-.7 1-1.7 1.9-3 2.6-1.3.6-2.9 1-4.9 1h-9.2v-19.8h9.3c2.3 0 4.1.4 5.4 1.2 1.4.8 2.4 1.7 3 2.8.7 1.1 1.1 2.3 1.3 3.4s.4 2 .4 2.6c0 .8-.2 1.8-.5 2.9-.5 1.1-1 2.2-1.8 3.3z" fill-rule="evenodd"/><path d="m136.34 11.76h-14.3v69.3h14.3z"/><path clip-rule="evenodd" d="m162.54 59.26h8.3l14.5 21.8h16.7l-16.1-25.1c2-1.2 3.8-2.7 5.2-4.4 2-2.3 3.3-4.9 4.2-7.8.9-2.8 1.3-5.7 1.3-8.5 0-3.6-.6-6.8-1.8-9.7s-3-5.4-5.3-7.4c-2.3-2.1-5.1-3.7-8.5-4.7-3.4-1.1-7.3-1.7-11.6-1.7h-21.2v69.3h14.3zm17.1-17.3c-.7 1-1.7 1.8-3 2.5-1.3.6-2.9 1-4.9 1h-9.2v-19.8h9.3c2.3 0 4.1.4 5.4 1.2 1.4.8 2.4 1.7 3 2.8.7 1.1 1.1 2.3 1.3 3.4s.4 2 .4 2.7c0 .9-.2 2-.5 3.1-.4 1.1-1 2.1-1.8 3.1z" fill-rule="evenodd"/><path d="m221.44 11.76h-14.3v69.3h14.3z"/><path d="m275.74 11.76h-47v13.9h16v55.5l14.3-.1v-55.4h16.7z"/></g><path clip-rule="evenodd" d="m.24.06c.2-.1.5-.1.6.2l58.2 100.8c.1.2.1.5-.2.6-.2.1-.5.1-.6-.2l-58.2-100.8c-.1-.2 0-.5.2-.6z" fill="#77a6c0" fill-rule="evenodd"/><path d="m9.84 78.76h-2.5v3.2h-3.2v2.5h3.2v3.2h2.5v-3.2h3.2v-2.5h-3.2z" fill="#77a6c0"/></svg>