<svg width="24" height="24" viewBox="0 0 24 24" fill="none" xmlns="http://www.w3.org/2000/svg">
<path d="M23.9991 12.2761C23.9991 11.4604 23.9317 10.6403 23.7877 9.83778H12.2413V14.4586H18.8534C18.579 15.9489 17.6974 17.2672 16.4065 18.105V21.1032H20.3512C22.6677 19.0133 23.9991 15.9269 23.9991 12.2761Z" fill="#4285F4"/>
<path d="M12.2414 24C15.543 24 18.3272 22.9374 20.3558 21.1031L16.4111 18.1049C15.3136 18.8368 13.8967 19.2513 12.2459 19.2513C9.05233 19.2513 6.34453 17.1393 5.37296 14.2998H1.30226V17.3906C3.38034 21.4426 7.61297 24 12.2414 24Z" fill="#34A853"/>
<path d="M5.36837 14.2997C4.8556 12.8094 4.8556 11.1956 5.36837 9.70534V6.61451H1.30217C-0.434058 10.0052 -0.434058 13.9999 1.30217 17.3905L5.36837 14.2997Z" fill="#FBBC04"/>
<path d="M12.2414 4.74949C13.9866 4.72304 15.6734 5.36678 16.9373 6.54843L20.4323 3.12251C18.2193 1.08547 15.2821 -0.0344648 12.2414 0.000808637C7.61297 0.000808637 3.38034 2.55813 1.30226 6.61457L5.36846 9.7054C6.33553 6.86149 9.04783 4.74949 12.2414 4.74949Z" fill="#EA4335"/>
</svg>
