<svg xmlns="http://www.w3.org/2000/svg" style="display: none;">
<symbol id="add" viewBox="0 0 24 24">
<path d="M18 13H13V18C13 18.55 12.55 19 12 19C11.45 19 11 18.55 11 18V13H6C5.45 13 5 12.55 5 12C5 11.45 5.45 11 6 11H11V6C11 5.45 11.45 5 12 5C12.55 5 13 5.45 13 6V11H18C18.55 11 19 11.45 19 12C19 12.55 18.55 13 18 13Z" fill="currentColor"/>
</symbol>
<symbol id="check-checked" viewBox="0 0 24 24">
<path d="M19 3H5C3.9 3 3 3.9 3 5V19C3 20.1 3.9 21 5 21H19C20.1 21 21 20.1 21 19V5C21 3.9 20.1 3 19 3ZM10.71 16.29C10.32 16.68 9.69 16.68 9.3 16.29L5.71 12.7C5.32 12.31 5.32 11.68 5.71 11.29C6.1 10.9 6.73 10.9 7.12 11.29L10 14.17L16.88 7.29C17.27 6.9 17.9 6.9 18.29 7.29C18.68 7.68 18.68 8.31 18.29 8.7L10.71 16.29Z" fill="currentColor"/>
</symbol>
<symbol id="check-indeterminate" viewBox="0 0 24 24">
<path d="M19 3H5C3.9 3 3 3.9 3 5V19C3 20.1 3.9 21 5 21H19C20.1 21 21 20.1 21 19V5C21 3.9 20.1 3 19 3ZM17 12C17 12.5523 16.5523 13 16 13H8C7.44772 13 7 12.5523 7 12C7 11.4477 7.44772 11 8 11H16C16.5523 11 17 11.4477 17 12Z" fill="currentColor"/>
</symbol>
<symbol id="check-plain" viewBox="0 0 24 24">
<path d="M9.00012 16.5446L5.50012 13.0446C5.11012 12.6546 4.49012 12.6546 4.10012 13.0446C3.71012 13.4346 3.71012 14.0546 4.10012 14.4446L8.29012 18.6346C8.68012 19.0246 9.31012 19.0246 9.70012 18.6346L20.3001 8.04455C20.6901 7.65455 20.6901 7.03455 20.3001 6.64455C19.9101 6.25455 19.2901 6.25455 18.9001 6.64455L9.00012 16.5446Z" fill="currentColor"/>
</symbol>
<symbol id="check-unchecked" viewBox="0 0 24 24">
<path d="M19 5V19H5V5H19ZM19 3H5C3.9 3 3 3.9 3 5V19C3 20.1 3.9 21 5 21H19C20.1 21 21 20.1 21 19V5C21 3.9 20.1 3 19 3Z" fill="currentColor"/>
</symbol>
<symbol id="chevron-down" viewBox="0 0 24 24">
<path d="M15.88 9.63479L12 13.5148L8.11998 9.63479C7.72998 9.24479 7.09998 9.24479 6.70998 9.63479C6.31998 10.0248 6.31998 10.6548 6.70998 11.0448L11.3 15.6348C11.69 16.0248 12.32 16.0248 12.71 15.6348L17.3 11.0448C17.69 10.6548 17.69 10.0248 17.3 9.63479C16.91 9.25479 16.27 9.24479 15.88 9.63479Z" fill="currentColor"/>
</symbol>
<symbol id="chevron-left" viewBox="0 0 24 24">
<path d="M14.71 7.05471C14.32 6.66471 13.69 6.66471 13.3 7.05471L8.70998 11.6447C8.31998 12.0347 8.31998 12.6647 8.70998 13.0547L13.3 17.6447C13.69 18.0347 14.32 18.0347 14.71 17.6447C15.1 17.2547 15.1 16.6247 14.71 16.2347L10.83 12.3447L14.71 8.46471C15.1 8.07471 15.09 7.43471 14.71 7.05471Z" fill="currentColor"/>
</symbol>
<symbol id="chevron-right" viewBox="0 0 24 24">
<path d="M9.29006 7.0545C8.90006 7.4445 8.90006 8.0745 9.29006 8.4645L13.1701 12.3445L9.29006 16.2245C8.90006 16.6145 8.90006 17.2445 9.29006 17.6345C9.68006 18.0245 10.3101 18.0245 10.7001 17.6345L15.2901 13.0445C15.6801 12.6545 15.6801 12.0245 15.2901 11.6345L10.7001 7.0445C10.3201 6.6645 9.68006 6.6645 9.29006 7.0545Z" fill="currentColor"/>
</symbol>
<symbol id="chevron-up" viewBox="0 0 24 24">
<path d="M11.2897 9.05471L6.69973 13.6447C6.30973 14.0347 6.30973 14.6647 6.69973 15.0547C7.08973 15.4447 7.71973 15.4447 8.10973 15.0547L11.9997 11.1747L15.8797 15.0547C16.2697 15.4447 16.8997 15.4447 17.2897 15.0547C17.6797 14.6647 17.6797 14.0347 17.2897 13.6447L12.6997 9.05471C12.3197 8.66471 11.6797 8.66471 11.2897 9.05471Z" fill="currentColor"/>
</symbol>
<symbol id="close" viewBox="0 0 24 24">
<path d="M18.3002 5.71022C17.9102 5.32022 17.2802 5.32022 16.8902 5.71022L12.0002 10.5902L7.11022 5.70021C6.72022 5.31021 6.09021 5.31021 5.70021 5.70021C5.31021 6.09021 5.31021 6.72022 5.70021 7.11022L10.5902 12.0002L5.70021 16.8902C5.31021 17.2802 5.31021 17.9102 5.70021 18.3002C6.09021 18.6902 6.72022 18.6902 7.11022 18.3002L12.0002 13.4102L16.8902 18.3002C17.2802 18.6902 17.9102 18.6902 18.3002 18.3002C18.6902 17.9102 18.6902 17.2802 18.3002 16.8902L13.4102 12.0002L18.3002 7.11022C18.6802 6.73022 18.6802 6.09022 18.3002 5.71022Z" fill="currentColor"/>
</symbol>
<symbol id="hamburger" viewBox="0 0 24 24">
<path d="M4 18H20C20.55 18 21 17.55 21 17C21 16.45 20.55 16 20 16H4C3.45 16 3 16.45 3 17C3 17.55 3.45 18 4 18ZM4 13H20C20.55 13 21 12.55 21 12C21 11.45 20.55 11 20 11H4C3.45 11 3 11.45 3 12C3 12.55 3.45 13 4 13ZM3 7C3 7.55 3.45 8 4 8H20C20.55 8 21 7.55 21 7C21 6.45 20.55 6 20 6H4C3.45 6 3 6.45 3 7Z" fill="currentColor"/>
</symbol>
<symbol id="help" viewBox="0 0 24 24">
<path d="M12 2C6.48 2 2 6.48 2 12C2 17.52 6.48 22 12 22C17.52 22 22 17.52 22 12C22 6.48 17.52 2 12 2ZM13 19H11V17H13V19ZM15.07 11.25L14.17 12.17C13.67 12.68 13.31 13.14 13.13 13.86C13.05 14.18 13 14.54 13 15H11V14.5C11 14.04 11.08 13.6 11.22 13.19C11.42 12.61 11.75 12.09 12.17 11.67L13.41 10.41C13.87 9.97 14.09 9.31 13.96 8.61C13.83 7.89 13.27 7.28 12.57 7.08C11.46 6.77 10.43 7.4 10.1 8.35C9.98 8.72 9.67 9 9.28 9H8.98C8.4 9 8 8.44 8.16 7.88C8.59 6.41 9.84 5.29 11.39 5.05C12.91 4.81 14.36 5.6 15.26 6.85C16.44 8.48 16.09 10.23 15.07 11.25Z" fill="currentColor"/>
</symbol>
<symbol id="info" viewBox="0 0 24 24">
<path d="M12 2C6.48 2 2 6.48 2 12C2 17.52 6.48 22 12 22C17.52 22 22 17.52 22 12C22 6.48 17.52 2 12 2ZM13 17H11V11H13V17ZM13 9H11V7H13V9Z" fill="currentColor"/>
</symbol>
<symbol id="link" viewBox="0 0 24 24">
<path d="M3.9 12C3.9 10.29 5.29 8.9 7 8.9H11V7H7C4.24 7 2 9.24 2 12C2 14.76 4.24 17 7 17H11V15.1H7C5.29 15.1 3.9 13.71 3.9 12ZM8 13H16V11H8V13ZM17 7H13V8.9H17C18.71 8.9 20.1 10.29 20.1 12C20.1 13.71 18.71 15.1 17 15.1H13V17H17C19.76 17 22 14.76 22 12C22 9.24 19.76 7 17 7Z" fill="currentColor"/>
</symbol>
<symbol id="more" viewBox="0 0 24 24">
<path d="M12 8C13.1 8 14 7.1 14 6C14 4.9 13.1 4 12 4C10.9 4 10 4.9 10 6C10 7.1 10.9 8 12 8ZM12 10C10.9 10 10 10.9 10 12C10 13.1 10.9 14 12 14C13.1 14 14 13.1 14 12C14 10.9 13.1 10 12 10ZM12 16C10.9 16 10 16.9 10 18C10 19.1 10.9 20 12 20C13.1 20 14 19.1 14 18C14 16.9 13.1 16 12 16Z" fill="currentColor"/>
</symbol>
<symbol id="profile" viewBox="0 0 24 24">
<path d="M12 2C6.48 2 2 6.48 2 12C2 17.52 6.48 22 12 22C17.52 22 22 17.52 22 12C22 6.48 17.52 2 12 2ZM12 5C13.66 5 15 6.34 15 8C15 9.66 13.66 11 12 11C10.34 11 9 9.66 9 8C9 6.34 10.34 5 12 5ZM12 19.2C9.5 19.2 7.29 17.92 6 15.98C6.03 13.99 10 12.9 12 12.9C13.99 12.9 17.97 13.99 18 15.98C16.71 17.92 14.5 19.2 12 19.2Z" fill="currentColor"/>
</symbol>
<symbol id="radio-checked" viewBox="0 0 24 24">
<path d="M12 7C9.24 7 7 9.24 7 12C7 14.76 9.24 17 12 17C14.76 17 17 14.76 17 12C17 9.24 14.76 7 12 7ZM12 2C6.48 2 2 6.48 2 12C2 17.52 6.48 22 12 22C17.52 22 22 17.52 22 12C22 6.48 17.52 2 12 2ZM12 20C7.58 20 4 16.42 4 12C4 7.58 7.58 4 12 4C16.42 4 20 7.58 20 12C20 16.42 16.42 20 12 20Z" fill="currentColor"/>
</symbol>
<symbol id="radio-unchecked" viewBox="0 0 24 24">
<path d="M12 2C6.48 2 2 6.48 2 12C2 17.52 6.48 22 12 22C17.52 22 22 17.52 22 12C22 6.48 17.52 2 12 2ZM12 20C7.58 20 4 16.42 4 12C4 7.58 7.58 4 12 4C16.42 4 20 7.58 20 12C20 16.42 16.42 20 12 20Z" fill="currentColor"/>
</symbol>
<symbol id="reload" viewBox="0 0 24 24">
<path d="M12 6.00018V7.79018C12 8.24018 12.54 8.46019 12.85 8.14018L15.64 5.35018C15.84 5.15018 15.84 4.84018 15.64 4.64018L12.85 1.85018C12.54 1.54018 12 1.76018 12 2.21018V4.00018C7.58 4.00018 4 7.58018 4 12.0002C4 13.0402 4.2 14.0402 4.57 14.9502C4.84 15.6202 5.7 15.8002 6.21 15.2902C6.48 15.0202 6.59 14.6102 6.44 14.2502C6.15 13.5602 6 12.7902 6 12.0002C6 8.69019 8.69 6.00018 12 6.00018ZM17.79 8.71018C17.52 8.98018 17.41 9.40019 17.56 9.75019C17.84 10.4502 18 11.2102 18 12.0002C18 15.3102 15.31 18.0002 12 18.0002V16.2102C12 15.7602 11.46 15.5402 11.15 15.8602L8.36 18.6502C8.16 18.8502 8.16 19.1602 8.36 19.3602L11.15 22.1502C11.46 22.4602 12 22.2402 12 21.8002V20.0002C16.42 20.0002 20 16.4202 20 12.0002C20 10.9602 19.8 9.96019 19.43 9.05018C19.16 8.38018 18.3 8.20018 17.79 8.71018Z" fill="currentColor"/>
</symbol>
<symbol id="search" viewBox="0 0 24 24">
<path d="M15.5001 14.0001H14.7101L14.4301 13.7301C15.6301 12.3301 16.2501 10.4201 15.9101 8.39014C15.4401 5.61014 13.1201 3.39014 10.3201 3.05014C6.09014 2.53014 2.53014 6.09014 3.05014 10.3201C3.39014 13.1201 5.61014 15.4401 8.39014 15.9101C10.4201 16.2501 12.3301 15.6301 13.7301 14.4301L14.0001 14.7101V15.5001L18.2501 19.7501C18.6601 20.1601 19.3301 20.1601 19.7401 19.7501C20.1501 19.3401 20.1501 18.6701 19.7401 18.2601L15.5001 14.0001ZM9.50014 14.0001C7.01014 14.0001 5.00014 11.9901 5.00014 9.50014C5.00014 7.01014 7.01014 5.00014 9.50014 5.00014C11.9901 5.00014 14.0001 7.01014 14.0001 9.50014C14.0001 11.9901 11.9901 14.0001 9.50014 14.0001Z" fill="currentColor"/>
</symbol>
<symbol id="toggle-off" viewBox="0 0 24 24">
<path d="M17 7H7C4.24 7 2 9.24 2 12C2 14.76 4.24 17 7 17H17C19.76 17 22 14.76 22 12C22 9.24 19.76 7 17 7ZM7 15C5.34 15 4 13.66 4 12C4 10.34 5.34 9 7 9C8.66 9 10 10.34 10 12C10 13.66 8.66 15 7 15Z" fill="currentColor"/>
</symbol>
<symbol id="toggle-on" viewBox="0 0 24 24">
<path d="M17 7H7C4.24 7 2 9.24 2 12C2 14.76 4.24 17 7 17H17C19.76 17 22 14.76 22 12C22 9.24 19.76 7 17 7ZM17 15C15.34 15 14 13.66 14 12C14 10.34 15.34 9 17 9C18.66 9 20 10.34 20 12C20 13.66 18.66 15 17 15Z" fill="currentColor"/>
</symbol>
<symbol id="visibility-off" viewBox="0 0 24 24">
<path d="M12 7C14.76 7 17 9.24 17 12C17 12.65 16.87 13.26 16.64 13.83L19.56 16.75C21.07 15.49 22.26 13.86 22.99 12C21.26 7.61 16.99 4.5 11.99 4.5C10.59 4.5 9.25 4.75 8.01 5.2L10.17 7.36C10.74 7.13 11.35 7 12 7ZM2 4.27L4.28 6.55L4.74 7.01C3.08 8.3 1.78 10.02 1 12C2.73 16.39 7 19.5 12 19.5C13.55 19.5 15.03 19.2 16.38 18.66L16.8 19.08L19.73 22L21 20.73L3.27 3L2 4.27ZM7.53 9.8L9.08 11.35C9.03 11.56 9 11.78 9 12C9 13.66 10.34 15 12 15C12.22 15 12.44 14.97 12.65 14.92L14.2 16.47C13.53 16.8 12.79 17 12 17C9.24 17 7 14.76 7 12C7 11.21 7.2 10.47 7.53 9.8ZM11.84 9.02L14.99 12.17L15.01 12.01C15.01 10.35 13.67 9.01 12.01 9.01L11.84 9.02Z" fill="currentColor"/>
</symbol>
<symbol id="visibility-on" viewBox="0 0 24 24">
<path d="M12 4.5C7 4.5 2.73 7.61 1 12C2.73 16.39 7 19.5 12 19.5C17 19.5 21.27 16.39 23 12C21.27 7.61 17 4.5 12 4.5ZM12 17C9.24 17 7 14.76 7 12C7 9.24 9.24 7 12 7C14.76 7 17 9.24 17 12C17 14.76 14.76 17 12 17ZM12 9C10.34 9 9 10.34 9 12C9 13.66 10.34 15 12 15C13.66 15 15 13.66 15 12C15 10.34 13.66 9 12 9Z" fill="currentColor"/>
</symbol>
<symbol id="warning" viewBox="0 0 24 24">
<path d="M2.72992 21.0001H21.2599C22.0299 21.0001 22.5099 20.1701 22.1299 19.5001L12.8599 3.50006C12.4699 2.83006 11.5099 2.83006 11.1299 3.50006L1.85992 19.5001C1.47992 20.1701 1.95992 21.0001 2.72992 21.0001ZM12.9999 18.0001H10.9999V16.0001H12.9999V18.0001ZM11.9999 14.0001C11.4499 14.0001 10.9999 13.5501 10.9999 13.0001V11.0001C10.9999 10.4501 11.4499 10.0001 11.9999 10.0001C12.5499 10.0001 12.9999 10.4501 12.9999 11.0001V13.0001C12.9999 13.5501 12.5499 14.0001 11.9999 14.0001Z" fill="currentColor"/>
</symbol>
</svg>