<svg xmlns="http://www.w3.org/2000/svg" style="display: none;">
<symbol id="add" viewBox="0 0 24 24">
<path d="M18 13H13V18C13 18.55 12.55 19 12 19C11.45 19 11 18.55 11 18V13H6C5.45 13 5 12.55 5 12C5 11.45 5.45 11 6 11H11V6C11 5.45 11.45 5 12 5C12.55 5 13 5.45 13 6V11H18C18.55 11 19 11.45 19 12C19 12.55 18.55 13 18 13Z" fill="currentColor"/>
</symbol>
<symbol id="check-plain" viewBox="0 0 24 24">
<path d="M9.00012 16.5447L5.50012 13.0447C5.11012 12.6547 4.49012 12.6547 4.10012 13.0447C3.71012 13.4347 3.71012 14.0547 4.10012 14.4447L8.29012 18.6347C8.68012 19.0247 9.31012 19.0247 9.70012 18.6347L20.3001 8.04473C20.6901 7.65473 20.6901 7.03473 20.3001 6.64473C19.9101 6.25473 19.2901 6.25473 18.9001 6.64473L9.00012 16.5447Z" fill="currentColor"/>
</symbol>
<symbol id="chevron-down" viewBox="0 0 24 24">
<path d="M15.8805 9.63472L12.0005 13.5147L8.12047 9.63472C7.73047 9.24472 7.10047 9.24472 6.71047 9.63472C6.32047 10.0247 6.32047 10.6547 6.71047 11.0447L11.3005 15.6347C11.6905 16.0247 12.3205 16.0247 12.7105 15.6347L17.3005 11.0447C17.6905 10.6547 17.6905 10.0247 17.3005 9.63472C16.9105 9.25472 16.2705 9.24472 15.8805 9.63472Z" fill="currentColor"/>
</symbol>
<symbol id="chevron-left" viewBox="0 0 24 24">
<path d="M14.71 7.05471C14.32 6.66471 13.69 6.66471 13.3 7.05471L8.70998 11.6447C8.31998 12.0347 8.31998 12.6647 8.70998 13.0547L13.3 17.6447C13.69 18.0347 14.32 18.0347 14.71 17.6447C15.1 17.2547 15.1 16.6247 14.71 16.2347L10.83 12.3447L14.71 8.46471C15.1 8.07471 15.09 7.43471 14.71 7.05471Z" fill="currentColor"/>
</symbol>
<symbol id="chevron-right" viewBox="0 0 24 24">
<path d="M9.29055 7.05475C8.90055 7.44475 8.90055 8.07475 9.29055 8.46475L13.1705 12.3447L9.29055 16.2247C8.90055 16.6147 8.90055 17.2447 9.29055 17.6347C9.68055 18.0247 10.3105 18.0247 10.7005 17.6347L15.2905 13.0447C15.6805 12.6547 15.6805 12.0247 15.2905 11.6347L10.7005 7.04475C10.3205 6.66475 9.68055 6.66475 9.29055 7.05475Z" fill="currentColor"/>
</symbol>
<symbol id="chevron-up" viewBox="0 0 24 24">
<path d="M11.2897 9.05471L6.69973 13.6447C6.30973 14.0347 6.30973 14.6647 6.69973 15.0547C7.08973 15.4447 7.71973 15.4447 8.10973 15.0547L11.9997 11.1747L15.8797 15.0547C16.2697 15.4447 16.8997 15.4447 17.2897 15.0547C17.6797 14.6647 17.6797 14.0347 17.2897 13.6447L12.6997 9.05471C12.3197 8.66471 11.6797 8.66471 11.2897 9.05471Z" fill="currentColor"/>
</symbol>
<symbol id="close" viewBox="0 0 24 24">
<path d="M18.3002 5.70997C17.9102 5.31997 17.2802 5.31997 16.8902 5.70997L12.0002 10.59L7.11022 5.69997C6.72022 5.30997 6.09021 5.30997 5.70021 5.69997C5.31021 6.08997 5.31021 6.71997 5.70021 7.10997L10.5902 12L5.70021 16.89C5.31021 17.28 5.31021 17.91 5.70021 18.3C6.09021 18.69 6.72022 18.69 7.11022 18.3L12.0002 13.41L16.8902 18.3C17.2802 18.69 17.9102 18.69 18.3002 18.3C18.6902 17.91 18.6902 17.28 18.3002 16.89L13.4102 12L18.3002 7.10997C18.6802 6.72997 18.6802 6.08997 18.3002 5.70997Z" fill="currentColor"/>
</symbol>
<symbol id="download" viewBox="0 0 24 24">
<path d="M12 16.575C11.8667 16.575 11.7417 16.5542 11.625 16.5125C11.5083 16.4708 11.4 16.4 11.3 16.3L6.7 11.7C6.51667 11.5167 6.425 11.2833 6.425 11C6.425 10.7167 6.51667 10.4833 6.7 10.3C6.88333 10.1167 7.12083 10.0208 7.4125 10.0125C7.70417 10.0042 7.94167 10.0917 8.125 10.275L11 13.15V4C11 3.71667 11.0958 3.47917 11.2875 3.2875C11.4792 3.09583 11.7167 3 12 3C12.2833 3 12.5208 3.09583 12.7125 3.2875C12.9042 3.47917 13 3.71667 13 4V13.15L15.875 10.275C16.0583 10.0917 16.2958 10.0042 16.5875 10.0125C16.8792 10.0208 17.1167 10.1167 17.3 10.3C17.4833 10.4833 17.575 10.7167 17.575 11C17.575 11.2833 17.4833 11.5167 17.3 11.7L12.7 16.3C12.6 16.4 12.4917 16.4708 12.375 16.5125C12.2583 16.5542 12.1333 16.575 12 16.575ZM5 21C4.45 21 3.97917 20.8042 3.5875 20.4125C3.19583 20.0208 3 19.55 3 19V17C3 16.7167 3.09583 16.4792 3.2875 16.2875C3.47917 16.0958 3.71667 16 4 16C4.28333 16 4.52083 16.0958 4.7125 16.2875C4.90417 16.4792 5 16.7167 5 17V19H19V17C19 16.7167 19.0958 16.4792 19.2875 16.2875C19.4792 16.0958 19.7167 16 20 16C20.2833 16 20.5208 16.0958 20.7125 16.2875C20.9042 16.4792 21 16.7167 21 17V19C21 19.55 20.8042 20.0208 20.4125 20.4125C20.0208 20.8042 19.55 21 19 21H5Z" fill="currentColor"/>
</symbol>
<symbol id="file" viewBox="0 0 24 24">
<path d="M6 22C5.45 22 4.97917 21.8042 4.5875 21.4125C4.19583 21.0208 4 20.55 4 20V4C4 3.45 4.19583 2.97917 4.5875 2.5875C4.97917 2.19583 5.45 2 6 2H13.175C13.4417 2 13.6958 2.05 13.9375 2.15C14.1792 2.25 14.3917 2.39167 14.575 2.575L19.425 7.425C19.6083 7.60833 19.75 7.82083 19.85 8.0625C19.95 8.30417 20 8.55833 20 8.825V20C20 20.55 19.8042 21.0208 19.4125 21.4125C19.0208 21.8042 18.55 22 18 22H6ZM12 9V4H6V20H18V10H13C12.7167 10 12.4792 9.90417 12.2875 9.7125C12.0958 9.52083 12 9.28333 12 9Z" fill="currentColor"/>
</symbol>
<symbol id="hamburger" viewBox="0 0 24 24">
<path d="M4 18H20C20.55 18 21 17.55 21 17C21 16.45 20.55 16 20 16H4C3.45 16 3 16.45 3 17C3 17.55 3.45 18 4 18ZM4 13H20C20.55 13 21 12.55 21 12C21 11.45 20.55 11 20 11H4C3.45 11 3 11.45 3 12C3 12.55 3.45 13 4 13ZM3 7C3 7.55 3.45 8 4 8H20C20.55 8 21 7.55 21 7C21 6.45 20.55 6 20 6H4C3.45 6 3 6.45 3 7Z" fill="currentColor"/>
</symbol>
<symbol id="help" viewBox="0 0 24 24">
<path d="M12 2C6.48 2 2 6.48 2 12C2 17.52 6.48 22 12 22C17.52 22 22 17.52 22 12C22 6.48 17.52 2 12 2ZM13 19H11V17H13V19ZM15.07 11.25L14.17 12.17C13.67 12.68 13.31 13.14 13.13 13.86C13.05 14.18 13 14.54 13 15H11V14.5C11 14.04 11.08 13.6 11.22 13.19C11.42 12.61 11.75 12.09 12.17 11.67L13.41 10.41C13.87 9.97 14.09 9.31 13.96 8.61C13.83 7.89 13.27 7.28 12.57 7.08C11.46 6.77 10.43 7.4 10.1 8.35C9.98 8.72 9.67 9 9.28 9H8.98C8.4 9 8 8.44 8.16 7.88C8.59 6.41 9.84 5.29 11.39 5.05C12.91 4.81 14.36 5.6 15.26 6.85C16.44 8.48 16.09 10.23 15.07 11.25Z" fill="currentColor"/>
</symbol>
<symbol id="info" viewBox="0 0 24 24">
<path d="M12 2C6.48 2 2 6.48 2 12C2 17.52 6.48 22 12 22C17.52 22 22 17.52 22 12C22 6.48 17.52 2 12 2ZM13 17H11V11H13V17ZM13 9H11V7H13V9Z" fill="currentColor"/>
</symbol>
<symbol id="link" viewBox="0 0 24 24">
<path d="M3.9 12C3.9 10.29 5.29 8.9 7 8.9H11V7H7C4.24 7 2 9.24 2 12C2 14.76 4.24 17 7 17H11V15.1H7C5.29 15.1 3.9 13.71 3.9 12ZM8 13H16V11H8V13ZM17 7H13V8.9H17C18.71 8.9 20.1 10.29 20.1 12C20.1 13.71 18.71 15.1 17 15.1H13V17H17C19.76 17 22 14.76 22 12C22 9.24 19.76 7 17 7Z" fill="currentColor"/>
</symbol>
<symbol id="more" viewBox="0 0 24 24">
<path d="M12 8C13.1 8 14 7.1 14 6C14 4.9 13.1 4 12 4C10.9 4 10 4.9 10 6C10 7.1 10.9 8 12 8ZM12 10C10.9 10 10 10.9 10 12C10 13.1 10.9 14 12 14C13.1 14 14 13.1 14 12C14 10.9 13.1 10 12 10ZM12 16C10.9 16 10 16.9 10 18C10 19.1 10.9 20 12 20C13.1 20 14 19.1 14 18C14 16.9 13.1 16 12 16Z" fill="currentColor"/>
</symbol>
<symbol id="profile" viewBox="0 0 24 24">
<path d="M12 2C6.48 2 2 6.48 2 12C2 17.52 6.48 22 12 22C17.52 22 22 17.52 22 12C22 6.48 17.52 2 12 2ZM12 5C13.66 5 15 6.34 15 8C15 9.66 13.66 11 12 11C10.34 11 9 9.66 9 8C9 6.34 10.34 5 12 5ZM12 19.2C9.5 19.2 7.29 17.92 6 15.98C6.03 13.99 10 12.9 12 12.9C13.99 12.9 17.97 13.99 18 15.98C16.71 17.92 14.5 19.2 12 19.2Z" fill="currentColor"/>
</symbol>
<symbol id="reload" viewBox="0 0 24 24">
<path d="M12 5.99994V7.78994C12 8.23994 12.54 8.45994 12.85 8.13994L15.64 5.34994C15.84 5.14994 15.84 4.83994 15.64 4.63994L12.85 1.84994C12.54 1.53994 12 1.75994 12 2.20994V3.99994C7.58 3.99994 4 7.57994 4 11.9999C4 13.0399 4.2 14.0399 4.57 14.9499C4.84 15.6199 5.7 15.7999 6.21 15.2899C6.48 15.0199 6.59 14.6099 6.44 14.2499C6.15 13.5599 6 12.7899 6 11.9999C6 8.68994 8.69 5.99994 12 5.99994ZM17.79 8.70994C17.52 8.97994 17.41 9.39994 17.56 9.74994C17.84 10.4499 18 11.2099 18 11.9999C18 15.3099 15.31 17.9999 12 17.9999V16.2099C12 15.7599 11.46 15.5399 11.15 15.8599L8.36 18.6499C8.16 18.8499 8.16 19.1599 8.36 19.3599L11.15 22.1499C11.46 22.4599 12 22.2399 12 21.7999V19.9999C16.42 19.9999 20 16.4199 20 11.9999C20 10.9599 19.8 9.95994 19.43 9.04994C19.16 8.37994 18.3 8.19994 17.79 8.70994Z" fill="currentColor"/>
</symbol>
<symbol id="search" viewBox="0 0 24 24">
<path d="M15.5001 14H14.7101L14.4301 13.73C15.6301 12.33 16.2501 10.42 15.9101 8.39002C15.4401 5.61002 13.1201 3.39002 10.3201 3.05002C6.09014 2.53002 2.53014 6.09001 3.05014 10.32C3.39014 13.12 5.61014 15.44 8.39014 15.91C10.4201 16.25 12.3301 15.63 13.7301 14.43L14.0001 14.71V15.5L18.2501 19.75C18.6601 20.16 19.3301 20.16 19.7401 19.75C20.1501 19.34 20.1501 18.67 19.7401 18.26L15.5001 14ZM9.50014 14C7.01014 14 5.00014 11.99 5.00014 9.50002C5.00014 7.01002 7.01014 5.00002 9.50014 5.00002C11.9901 5.00002 14.0001 7.01002 14.0001 9.50002C14.0001 11.99 11.9901 14 9.50014 14Z" fill="currentColor"/>
</symbol>
<symbol id="spinner" viewBox="0 0 24 24">
<path d="M2.5 12.3998C2.5 11.8496 2.69599 11.3788 3.08797 10.9876C3.47995 10.5963 3.9507 10.4003 4.50022 10.3996C5.04974 10.3988 5.52049 10.5948 5.91248 10.9876C6.30446 11.3803 6.50045 11.851 6.50045 12.3998C6.50045 12.9486 6.30446 13.4193 5.91248 13.8121C5.52049 14.2048 5.04974 14.4008 4.50022 14.4C3.9507 14.3993 3.47995 14.2033 3.08797 13.8121C2.69599 13.4208 2.5 12.9501 2.5 12.3998V12.3998ZM4.69957 6.80009C4.69957 6.19159 4.91423 5.67268 5.34354 5.24336C5.77286 4.81405 6.29176 4.59939 6.90027 4.59939C7.50877 4.59939 8.02768 4.81405 8.45699 5.24336C8.88631 5.67268 9.10096 6.19159 9.10096 6.80009C9.10096 7.40859 8.88631 7.9275 8.45699 8.35681C8.02768 8.78613 7.50877 9.00078 6.90027 9.00078C6.29176 9.00078 5.77286 8.78613 5.34354 8.35681C4.91423 7.9275 4.69957 7.40859 4.69957 6.80009ZM5.09939 17.9995C5.09939 17.4993 5.27448 17.0745 5.62465 16.7251C5.97482 16.3756 6.39965 16.2005 6.89915 16.1998C7.39043 16.1998 7.8134 16.3749 8.16805 16.7251C8.5227 17.0752 8.69965 17.5001 8.6989 17.9995C8.69815 18.499 8.5212 18.9239 8.16805 19.274C7.81489 19.6242 7.39192 19.7993 6.89915 19.7993C6.39891 19.7993 5.97407 19.6242 5.62465 19.274C5.27523 18.9239 5.10014 18.499 5.09939 17.9995ZM10.1 4.40004C10.1 3.7333 10.3333 3.16661 10.7999 2.69997C11.2666 2.23332 11.8333 2 12.5 2C13.1667 2 13.7334 2.23332 14.2001 2.69997C14.6667 3.16661 14.9 3.7333 14.9 4.40004C14.9 5.06679 14.6667 5.63348 14.2001 6.10012C13.7334 6.56677 13.1667 6.80009 12.5 6.80009C11.8333 6.80009 11.2666 6.56677 10.7999 6.10012C10.3333 5.63348 10.1 5.06679 10.1 4.40004ZM10.8996 20.3996C10.8996 19.9576 11.056 19.5805 11.3689 19.2684C11.6817 18.9564 12.0587 18.7999 12.5 18.7992C12.9413 18.7984 13.3183 18.9549 13.6311 19.2684C13.944 19.582 14.1004 19.9591 14.1004 20.3996C14.1004 20.8401 13.944 21.2172 13.6311 21.5307C13.3183 21.8443 12.9413 22.0007 12.5 22C12.0587 21.9992 11.6817 21.8428 11.3689 21.5307C11.056 21.2186 10.8996 20.8416 10.8996 20.3996ZM16.6998 17.9995C16.6998 17.6165 16.8372 17.2873 17.1119 17.0118C17.3867 16.7362 17.716 16.5989 18.0997 16.5996C18.4835 16.6004 18.8128 16.7377 19.0875 17.0118C19.3623 17.2858 19.4997 17.615 19.4997 17.9995C19.4997 18.3841 19.3623 18.7133 19.0875 18.9873C18.8128 19.2614 18.4835 19.3987 18.0997 19.3995C17.716 19.4002 17.3867 19.2628 17.1119 18.9873C16.8372 18.7118 16.6998 18.3826 16.6998 17.9995ZM17.0996 6.80009C17.0996 6.52533 17.1974 6.28977 17.393 6.0934C17.5887 5.89704 17.8242 5.79923 18.0997 5.79998C18.3752 5.80072 18.6108 5.89853 18.8064 6.0934C19.002 6.28827 19.0998 6.52384 19.0998 6.80009C19.0998 7.07634 19.002 7.3119 18.8064 7.50677C18.6108 7.70164 18.3752 7.79945 18.0997 7.8002C17.8242 7.80095 17.5887 7.70314 17.393 7.50677C17.1974 7.31041 17.0996 7.07485 17.0996 6.80009ZM19.2992 12.3998C19.2992 12.0668 19.416 11.7835 19.6497 11.5498C19.8834 11.3161 20.1668 11.1992 20.4998 11.1992C20.8328 11.1992 21.1161 11.3161 21.3498 11.5498C21.5835 11.7835 21.7004 12.0668 21.7004 12.3998C21.7004 12.7328 21.5835 13.0162 21.3498 13.2499C21.1161 13.4836 20.8328 13.6004 20.4998 13.6004C20.1668 13.6004 19.8834 13.4836 19.6497 13.2499C19.416 13.0162 19.2992 12.7328 19.2992 12.3998Z" fill="currentColor"/>
</symbol>
<symbol id="upload" viewBox="0 0 24 24">
<path d="M12.3752 3.0625C12.2585 3.02083 12.1335 3 12.0002 3C11.8669 3 11.7419 3.02083 11.6252 3.0625C11.5085 3.10417 11.4002 3.175 11.3002 3.275L6.7002 7.875C6.51686 8.05833 6.4252 8.29167 6.4252 8.575C6.4252 8.85833 6.51686 9.09167 6.7002 9.275C6.88353 9.45833 7.12103 9.55417 7.4127 9.5625C7.70436 9.57083 7.94186 9.48333 8.1252 9.3L11.0002 6.425L11.0002 15.575C11.0002 15.8583 11.096 16.0958 11.2877 16.2875C11.4794 16.4792 11.7169 16.575 12.0002 16.575C12.2835 16.575 12.521 16.4792 12.7127 16.2875C12.9044 16.0958 13.0002 15.8583 13.0002 15.575L13.0002 6.425L15.8752 9.3C16.0585 9.48333 16.296 9.57083 16.5877 9.5625C16.8794 9.55417 17.1169 9.45833 17.3002 9.275C17.4835 9.09167 17.5752 8.85833 17.5752 8.575C17.5752 8.29167 17.4835 8.05833 17.3002 7.875L12.7002 3.275C12.6002 3.175 12.4919 3.10417 12.3752 3.0625Z" fill="currentColor"/>
<path d="M3.5875 20.4125C3.97917 20.8042 4.45 21 5 21H19C19.55 21 20.0208 20.8042 20.4125 20.4125C20.8042 20.0209 21 19.55 21 19V17C21 16.7167 20.9042 16.4792 20.7125 16.2875C20.5208 16.0959 20.2833 16 20 16C19.7167 16 19.4792 16.0959 19.2875 16.2875C19.0958 16.4792 19 16.7167 19 17V19H5V17C5 16.7167 4.90417 16.4792 4.7125 16.2875C4.52083 16.0959 4.28333 16 4 16C3.71667 16 3.47917 16.0959 3.2875 16.2875C3.09583 16.4792 3 16.7167 3 17V19C3 19.55 3.19583 20.0209 3.5875 20.4125Z" fill="currentColor"/>
</symbol>
<symbol id="visibility-off" viewBox="0 0 24 24">
<path d="M12 7C14.76 7 17 9.24 17 12C17 12.65 16.87 13.26 16.64 13.83L19.56 16.75C21.07 15.49 22.26 13.86 22.99 12C21.26 7.61 16.99 4.5 11.99 4.5C10.59 4.5 9.25 4.75 8.01 5.2L10.17 7.36C10.74 7.13 11.35 7 12 7ZM2 4.27L4.28 6.55L4.74 7.01C3.08 8.3 1.78 10.02 1 12C2.73 16.39 7 19.5 12 19.5C13.55 19.5 15.03 19.2 16.38 18.66L16.8 19.08L19.73 22L21 20.73L3.27 3L2 4.27ZM7.53 9.8L9.08 11.35C9.03 11.56 9 11.78 9 12C9 13.66 10.34 15 12 15C12.22 15 12.44 14.97 12.65 14.92L14.2 16.47C13.53 16.8 12.79 17 12 17C9.24 17 7 14.76 7 12C7 11.21 7.2 10.47 7.53 9.8ZM11.84 9.02L14.99 12.17L15.01 12.01C15.01 10.35 13.67 9.01 12.01 9.01L11.84 9.02Z" fill="currentColor"/>
</symbol>
<symbol id="visibility-on" viewBox="0 0 24 24">
<path d="M12 4.5C7 4.5 2.73 7.61 1 12C2.73 16.39 7 19.5 12 19.5C17 19.5 21.27 16.39 23 12C21.27 7.61 17 4.5 12 4.5ZM12 17C9.24 17 7 14.76 7 12C7 9.24 9.24 7 12 7C14.76 7 17 9.24 17 12C17 14.76 14.76 17 12 17ZM12 9C10.34 9 9 10.34 9 12C9 13.66 10.34 15 12 15C13.66 15 15 13.66 15 12C15 10.34 13.66 9 12 9Z" fill="currentColor"/>
</symbol>
<symbol id="warning" viewBox="0 0 24 24">
<path d="M2.72992 21.0001H21.2599C22.0299 21.0001 22.5099 20.1701 22.1299 19.5001L12.8599 3.50006C12.4699 2.83006 11.5099 2.83006 11.1299 3.50006L1.85992 19.5001C1.47992 20.1701 1.95992 21.0001 2.72992 21.0001ZM12.9999 18.0001H10.9999V16.0001H12.9999V18.0001ZM11.9999 14.0001C11.4499 14.0001 10.9999 13.5501 10.9999 13.0001V11.0001C10.9999 10.4501 11.4499 10.0001 11.9999 10.0001C12.5499 10.0001 12.9999 10.4501 12.9999 11.0001V13.0001C12.9999 13.5501 12.5499 14.0001 11.9999 14.0001Z" fill="currentColor"/>
</symbol>
</svg>