<svg xmlns="http://www.w3.org/2000/svg" style="display: none;">
<symbol id="add" viewBox="0 0 24 24">
<path d="M18 13H13V18C13 18.55 12.55 19 12 19C11.45 19 11 18.55 11 18V13H6C5.45 13 5 12.55 5 12C5 11.45 5.45 11 6 11H11V6C11 5.45 11.45 5 12 5C12.55 5 13 5.45 13 6V11H18C18.55 11 19 11.45 19 12C19 12.55 18.55 13 18 13Z" fill="currentColor"/>
</symbol>
<symbol id="check-plain" viewBox="0 0 24 24">
<path d="M9.00012 16.5447L5.50012 13.0447C5.11012 12.6547 4.49012 12.6547 4.10012 13.0447C3.71012 13.4347 3.71012 14.0547 4.10012 14.4447L8.29012 18.6347C8.68012 19.0247 9.31012 19.0247 9.70012 18.6347L20.3001 8.04473C20.6901 7.65473 20.6901 7.03473 20.3001 6.64473C19.9101 6.25473 19.2901 6.25473 18.9001 6.64473L9.00012 16.5447Z" fill="currentColor"/>
</symbol>
<symbol id="chevron-down" viewBox="0 0 24 24">
<path d="M15.8805 9.63472L12.0005 13.5147L8.12047 9.63472C7.73047 9.24472 7.10047 9.24472 6.71047 9.63472C6.32047 10.0247 6.32047 10.6547 6.71047 11.0447L11.3005 15.6347C11.6905 16.0247 12.3205 16.0247 12.7105 15.6347L17.3005 11.0447C17.6905 10.6547 17.6905 10.0247 17.3005 9.63472C16.9105 9.25472 16.2705 9.24472 15.8805 9.63472Z" fill="currentColor"/>
</symbol>
<symbol id="chevron-left" viewBox="0 0 24 24">
<path d="M14.7105 7.05471C14.3205 6.66471 13.6905 6.66471 13.3005 7.05471L8.71047 11.6447C8.32047 12.0347 8.32047 12.6647 8.71047 13.0547L13.3005 17.6447C13.6905 18.0347 14.3205 18.0347 14.7105 17.6447C15.1005 17.2547 15.1005 16.6247 14.7105 16.2347L10.8305 12.3447L14.7105 8.46471C15.1005 8.07471 15.0905 7.43471 14.7105 7.05471Z" fill="currentColor"/>
</symbol>
<symbol id="chevron-right" viewBox="0 0 24 24">
<path d="M9.29055 7.05475C8.90055 7.44475 8.90055 8.07475 9.29055 8.46475L13.1705 12.3447L9.29055 16.2247C8.90055 16.6147 8.90055 17.2447 9.29055 17.6347C9.68055 18.0247 10.3105 18.0247 10.7005 17.6347L15.2905 13.0447C15.6805 12.6547 15.6805 12.0247 15.2905 11.6347L10.7005 7.04475C10.3205 6.66475 9.68055 6.66475 9.29055 7.05475Z" fill="currentColor"/>
</symbol>
<symbol id="chevron-up" viewBox="0 0 24 24">
<path d="M11.2897 9.05471L6.69973 13.6447C6.30973 14.0347 6.30973 14.6647 6.69973 15.0547C7.08973 15.4447 7.71973 15.4447 8.10973 15.0547L11.9997 11.1747L15.8797 15.0547C16.2697 15.4447 16.8997 15.4447 17.2897 15.0547C17.6797 14.6647 17.6797 14.0347 17.2897 13.6447L12.6997 9.05471C12.3197 8.66471 11.6797 8.66471 11.2897 9.05471Z" fill="currentColor"/>
</symbol>
<symbol id="close" viewBox="0 0 24 24">
<path d="M18.2997 5.70997C17.9097 5.31997 17.2797 5.31997 16.8897 5.70997L11.9997 10.59L7.10973 5.69997C6.71973 5.30997 6.08973 5.30997 5.69973 5.69997C5.30973 6.08997 5.30973 6.71997 5.69973 7.10997L10.5897 12L5.69973 16.89C5.30973 17.28 5.30973 17.91 5.69973 18.3C6.08973 18.69 6.71973 18.69 7.10973 18.3L11.9997 13.41L16.8897 18.3C17.2797 18.69 17.9097 18.69 18.2997 18.3C18.6897 17.91 18.6897 17.28 18.2997 16.89L13.4097 12L18.2997 7.10997C18.6797 6.72997 18.6797 6.08997 18.2997 5.70997Z" fill="currentColor"/>
</symbol>
<symbol id="hamburger" viewBox="0 0 24 24">
<path d="M4 18H20C20.55 18 21 17.55 21 17C21 16.45 20.55 16 20 16H4C3.45 16 3 16.45 3 17C3 17.55 3.45 18 4 18ZM4 13H20C20.55 13 21 12.55 21 12C21 11.45 20.55 11 20 11H4C3.45 11 3 11.45 3 12C3 12.55 3.45 13 4 13ZM3 7C3 7.55 3.45 8 4 8H20C20.55 8 21 7.55 21 7C21 6.45 20.55 6 20 6H4C3.45 6 3 6.45 3 7Z" fill="currentColor"/>
</symbol>
<symbol id="help" viewBox="0 0 24 24">
<path d="M12 2C6.48 2 2 6.48 2 12C2 17.52 6.48 22 12 22C17.52 22 22 17.52 22 12C22 6.48 17.52 2 12 2ZM13 19H11V17H13V19ZM15.07 11.25L14.17 12.17C13.67 12.68 13.31 13.14 13.13 13.86C13.05 14.18 13 14.54 13 15H11V14.5C11 14.04 11.08 13.6 11.22 13.19C11.42 12.61 11.75 12.09 12.17 11.67L13.41 10.41C13.87 9.97 14.09 9.31 13.96 8.61C13.83 7.89 13.27 7.28 12.57 7.08C11.46 6.77 10.43 7.4 10.1 8.35C9.98 8.72 9.67 9 9.28 9H8.98C8.4 9 8 8.44 8.16 7.88C8.59 6.41 9.84 5.29 11.39 5.05C12.91 4.81 14.36 5.6 15.26 6.85C16.44 8.48 16.09 10.23 15.07 11.25Z" fill="currentColor"/>
</symbol>
<symbol id="info" viewBox="0 0 24 24">
<path d="M12 2C6.48 2 2 6.48 2 12C2 17.52 6.48 22 12 22C17.52 22 22 17.52 22 12C22 6.48 17.52 2 12 2ZM13 17H11V11H13V17ZM13 9H11V7H13V9Z" fill="currentColor"/>
</symbol>
<symbol id="link" viewBox="0 0 24 24">
<path d="M3.9 12C3.9 10.29 5.29 8.9 7 8.9H11V7H7C4.24 7 2 9.24 2 12C2 14.76 4.24 17 7 17H11V15.1H7C5.29 15.1 3.9 13.71 3.9 12ZM8 13H16V11H8V13ZM17 7H13V8.9H17C18.71 8.9 20.1 10.29 20.1 12C20.1 13.71 18.71 15.1 17 15.1H13V17H17C19.76 17 22 14.76 22 12C22 9.24 19.76 7 17 7Z" fill="currentColor"/>
</symbol>
<symbol id="more" viewBox="0 0 24 24">
<path d="M12 8C13.1 8 14 7.1 14 6C14 4.9 13.1 4 12 4C10.9 4 10 4.9 10 6C10 7.1 10.9 8 12 8ZM12 10C10.9 10 10 10.9 10 12C10 13.1 10.9 14 12 14C13.1 14 14 13.1 14 12C14 10.9 13.1 10 12 10ZM12 16C10.9 16 10 16.9 10 18C10 19.1 10.9 20 12 20C13.1 20 14 19.1 14 18C14 16.9 13.1 16 12 16Z" fill="currentColor"/>
</symbol>
<symbol id="profile" viewBox="0 0 24 24">
<path d="M12 2C6.48 2 2 6.48 2 12C2 17.52 6.48 22 12 22C17.52 22 22 17.52 22 12C22 6.48 17.52 2 12 2ZM12 5C13.66 5 15 6.34 15 8C15 9.66 13.66 11 12 11C10.34 11 9 9.66 9 8C9 6.34 10.34 5 12 5ZM12 19.2C9.5 19.2 7.29 17.92 6 15.98C6.03 13.99 10 12.9 12 12.9C13.99 12.9 17.97 13.99 18 15.98C16.71 17.92 14.5 19.2 12 19.2Z" fill="currentColor"/>
</symbol>
<symbol id="reload" viewBox="0 0 24 24">
<path d="M12 5.99994V7.78994C12 8.23994 12.54 8.45994 12.85 8.13994L15.64 5.34994C15.84 5.14994 15.84 4.83994 15.64 4.63994L12.85 1.84994C12.54 1.53994 12 1.75994 12 2.20994V3.99994C7.58 3.99994 4 7.57994 4 11.9999C4 13.0399 4.2 14.0399 4.57 14.9499C4.84 15.6199 5.7 15.7999 6.21 15.2899C6.48 15.0199 6.59 14.6099 6.44 14.2499C6.15 13.5599 6 12.7899 6 11.9999C6 8.68994 8.69 5.99994 12 5.99994ZM17.79 8.70994C17.52 8.97994 17.41 9.39994 17.56 9.74994C17.84 10.4499 18 11.2099 18 11.9999C18 15.3099 15.31 17.9999 12 17.9999V16.2099C12 15.7599 11.46 15.5399 11.15 15.8599L8.36 18.6499C8.16 18.8499 8.16 19.1599 8.36 19.3599L11.15 22.1499C11.46 22.4599 12 22.2399 12 21.7999V19.9999C16.42 19.9999 20 16.4199 20 11.9999C20 10.9599 19.8 9.95994 19.43 9.04994C19.16 8.37994 18.3 8.19994 17.79 8.70994Z" fill="currentColor"/>
</symbol>
<symbol id="search" viewBox="0 0 24 24">
<path d="M15.4996 14H14.7096L14.4296 13.73C15.6296 12.33 16.2496 10.42 15.9096 8.39002C15.4396 5.61002 13.1196 3.39002 10.3196 3.05002C6.08965 2.53002 2.52965 6.09001 3.04965 10.32C3.38965 13.12 5.60965 15.44 8.38965 15.91C10.4196 16.25 12.3296 15.63 13.7296 14.43L13.9996 14.71V15.5L18.2496 19.75C18.6596 20.16 19.3296 20.16 19.7396 19.75C20.1496 19.34 20.1496 18.67 19.7396 18.26L15.4996 14ZM9.49965 14C7.00965 14 4.99965 11.99 4.99965 9.50002C4.99965 7.01002 7.00965 5.00002 9.49965 5.00002C11.9896 5.00002 13.9996 7.01002 13.9996 9.50002C13.9996 11.99 11.9896 14 9.49965 14Z" fill="currentColor"/>
</symbol>
<symbol id="visibility-off" viewBox="0 0 24 24">
<path d="M12 7C14.76 7 17 9.24 17 12C17 12.65 16.87 13.26 16.64 13.83L19.56 16.75C21.07 15.49 22.26 13.86 22.99 12C21.26 7.61 16.99 4.5 11.99 4.5C10.59 4.5 9.25 4.75 8.01 5.2L10.17 7.36C10.74 7.13 11.35 7 12 7ZM2 4.27L4.28 6.55L4.74 7.01C3.08 8.3 1.78 10.02 1 12C2.73 16.39 7 19.5 12 19.5C13.55 19.5 15.03 19.2 16.38 18.66L16.8 19.08L19.73 22L21 20.73L3.27 3L2 4.27ZM7.53 9.8L9.08 11.35C9.03 11.56 9 11.78 9 12C9 13.66 10.34 15 12 15C12.22 15 12.44 14.97 12.65 14.92L14.2 16.47C13.53 16.8 12.79 17 12 17C9.24 17 7 14.76 7 12C7 11.21 7.2 10.47 7.53 9.8ZM11.84 9.02L14.99 12.17L15.01 12.01C15.01 10.35 13.67 9.01 12.01 9.01L11.84 9.02Z" fill="currentColor"/>
</symbol>
<symbol id="visibility-on" viewBox="0 0 24 24">
<path d="M12 4.5C7 4.5 2.73 7.61 1 12C2.73 16.39 7 19.5 12 19.5C17 19.5 21.27 16.39 23 12C21.27 7.61 17 4.5 12 4.5ZM12 17C9.24 17 7 14.76 7 12C7 9.24 9.24 7 12 7C14.76 7 17 9.24 17 12C17 14.76 14.76 17 12 17ZM12 9C10.34 9 9 10.34 9 12C9 13.66 10.34 15 12 15C13.66 15 15 13.66 15 12C15 10.34 13.66 9 12 9Z" fill="currentColor"/>
</symbol>
<symbol id="warning" viewBox="0 0 24 24">
<path d="M2.73041 21.0001H21.2604C22.0304 21.0001 22.5104 20.1701 22.1304 19.5001L12.8604 3.50006C12.4704 2.83006 11.5104 2.83006 11.1304 3.50006L1.86041 19.5001C1.48041 20.1701 1.96041 21.0001 2.73041 21.0001ZM13.0004 18.0001H11.0004V16.0001H13.0004V18.0001ZM12.0004 14.0001C11.4504 14.0001 11.0004 13.5501 11.0004 13.0001V11.0001C11.0004 10.4501 11.4504 10.0001 12.0004 10.0001C12.5504 10.0001 13.0004 10.4501 13.0004 11.0001V13.0001C13.0004 13.5501 12.5504 14.0001 12.0004 14.0001Z" fill="currentColor"/>
</symbol>
</svg>