<svg xmlns="http://www.w3.org/2000/svg" width="800" height="460" fill="none" viewBox="0 0 800 460"><path fill="#fff" d="M0 0h800v460H0z"/><path fill="#7847FF" d="m248.944 228.935-18.708-32.22c.588-3.124 1.646-5.973 3.177-8.544l.002-.004.003-.004c2.578-4.179 6.178-7.464 10.782-9.856 4.607-2.479 9.908-3.844 15.89-4.108h.025c7.772 0 14.106.915 18.977 2.775 4.901 1.838 9.285 4.029 13.149 6.576l.434.285-7.671 15.481-.537-.294a70.473 70.473 0 0 0-11.116-4.912l-.004-.001c-3.686-1.286-7.14-1.922-10.364-1.922-4.012 0-7.094.812-9.307 2.369-2.165 1.523-3.27 3.805-3.27 6.949 0 2.087.795 3.984 2.435 5.711 1.772 1.685 4.019 3.214 6.752 4.581a100.072 100.072 0 0 0 8.808 3.756h.002a63.89 63.89 0 0 1 8.277 3.81 28.95 28.95 0 0 1 7.568 5.444c2.238 2.15 4.017 4.87 5.346 8.147 1.341 3.22 1.999 7.168 1.999 11.823 0 4.974-1.29 9.597-3.865 13.859-2.581 4.273-6.357 7.731-11.304 10.381l-.007.003a29.482 29.482 0 0 1-3.342 1.473l-9.582-16.502c2.069-.676 3.749-1.713 5.059-3.1l.005-.006.006-.006c1.428-1.427 2.174-3.434 2.174-6.102 0-1.764-.597-3.371-1.819-4.837l-.006-.008-.006-.008c-1.162-1.493-2.795-2.882-4.922-4.158l-.004-.003-.005-.002c-2.05-1.282-4.318-2.395-6.805-3.338l-.001-.001a129.276 129.276 0 0 1-8.225-3.487Z"/><path fill="#7847FF" fill-rule="evenodd" d="m350.548 238.536.004-.003c4.414-2.03 7.925-4.689 10.511-7.987 2.653-3.273 4.557-6.903 5.708-10.887 1.232-4.048 1.849-8.057 1.849-12.028 0-6.689-1.453-12.488-4.383-17.374-2.931-4.972-7.192-8.785-12.762-11.438-5.574-2.742-12.358-4.099-20.328-4.099h-29.652v97.103h20.073v-30.369h12.968c6.312 0 11.657-.963 16.012-2.918Zm-5.018-21.604-.004.006c-.98 1.388-2.379 2.59-4.224 3.597-1.805.901-4.095 1.368-6.896 1.368h-12.838v-27.761h12.968c3.245 0 5.734.556 7.522 1.612l.005.003.004.003c1.926 1.089 3.319 2.41 4.213 3.954.924 1.597 1.505 3.18 1.753 4.75l.003.018.003.018c.344 1.546.508 2.759.508 3.652 0 1.137-.245 2.509-.755 4.125l-.004.013-.004.014c-.414 1.573-1.161 3.115-2.254 4.628Z" clip-rule="evenodd"/><path fill="#7847FF" d="M398.171 174.72h-20.073v97.103h20.073V174.72Z"/><path fill="#7847FF" fill-rule="evenodd" d="M434.984 241.324h11.683l20.26 30.499h23.415l-22.569-35.219c2.868-1.726 5.277-3.785 7.221-6.182 2.741-3.273 4.691-6.905 5.844-10.892 1.232-3.962 1.849-7.929 1.849-11.899 0-5.018-.836-9.529-2.522-13.522-1.684-4.076-4.168-7.538-7.45-10.377-3.198-2.931-7.184-5.139-11.94-6.637-4.762-1.587-10.168-2.375-16.212-2.375H414.91v97.103h20.074v-30.499Zm23.971-24.274-.007.009-.006.009c-.978 1.385-2.374 2.542-4.215 3.463-1.807.903-4.1 1.372-6.906 1.372h-12.837v-27.761h12.968c3.244 0 5.734.556 7.521 1.612l.005.003.005.003c1.926 1.089 3.319 2.41 4.212 3.954.925 1.597 1.505 3.18 1.753 4.75l.003.018.004.018c.343 1.542.507 2.799.507 3.783 0 1.317-.247 2.778-.754 4.385l-.004.01-.002.009c-.412 1.483-1.156 2.937-2.247 4.363Z" clip-rule="evenodd"/><path fill="#7847FF" d="M517.491 174.72h-20.073v97.103h20.073V174.72ZM593.535 174.72h-65.822v19.422h22.418v77.681l20.074-.08v-77.601h23.33V174.72Z"/><path fill="#7847FF" fill-rule="evenodd" d="M207.548 158.317a.634.634 0 0 1 .866.232l81.562 141.269a.633.633 0 1 1-1.098.633l-81.561-141.269a.633.633 0 0 1 .231-.865Z" clip-rule="evenodd"/><path fill="#7847FF" d="M225.958 251.799h-8.294v10.663H207v8.293h10.664v10.664h8.294v-10.664h10.663v-8.293h-10.663v-10.663Z"/></svg>
