<svg width="806" height="573" viewBox="0 0 806 573" fill="none" xmlns="https://www.w3.org/2000/svg">
<g clip-path="url(#clip0_34_1)">
<rect width="806" height="573" fill="#293437"/>
<mask id="mask0_34_1" style="mask-type:alpha" maskUnits="userSpaceOnUse" x="-17" y="-740" width="843" height="1496">
<path d="M-16.7089 -739.752V755.987H825.031V-739.752H-16.7089Z" fill="url(#paint0_linear_34_1)"/>
</mask>
<g mask="url(#mask0_34_1)">
<path d="M-16.7089 -739.752V755.987H825.031V-739.752H-16.7089Z" fill="url(#paint1_linear_34_1)"/>
<path opacity="0.15" d="M1072.65 -585.5C933.442 -504.082 801.658 -406.458 683.126 -293.693L660.74 -272.646L639.299 -250.743C625.045 -236.078 610.361 -221.67 596.382 -206.783C569.427 -176.059 540.602 -146.395 515.476 -114.054L476.544 -66.1402L440.023 -16.3191C414.734 16.3908 393.703 51.8194 370.672 86.4027C358.882 103.472 349.393 121.857 338.89 139.696L307.931 193.657C289.535 230.718 270.392 267.858 252.88 305.68L228.641 363.307C220.807 382.624 211.892 401.703 205.011 421.473C190.047 460.585 177.392 500.612 164.951 540.766C116.911 702.006 90.7076 871.054 86.1785 1042.04C69.7223 871.852 74.617 698.109 103.477 526.571C111.069 483.811 119.099 440.904 129.505 398.601C134.06 377.267 140.777 356.409 146.473 335.407L164.342 272.167C177.682 230.512 192.875 189.264 207.484 147.726L232.997 86.8997C241.748 66.7325 249.52 45.864 259.591 26.3118C279.246 -13.1432 297.373 -53.7443 319.73 -91.8752L352.168 -149.961L387.394 -206.381C410.249 -244.564 436.958 -280.036 462.113 -316.903C475.163 -334.909 488.976 -352.342 502.549 -370.151L522.905 -396.664L544.299 -422.381C657.665 -560.484 788.285 -685.073 931.915 -794.897L1072.65 -585.5Z" fill="url(#paint2_linear_34_1)"/>
<path d="M-16.7091 281.943L-8.5659 275.613L-1.64221 280.371L24.2036 261.222L35.4546 261.615L56.1076 238.259H70.7418L79.239 224.143L92.7717 217.065L113.385 187.811L156.304 259.256L170.427 261.222L173.692 277.579L205.439 296.964L207.445 315.09L219.247 328.852L224.204 348.355L253.669 349.495L288.602 371.121L290.057 390.782L305.478 401.319L317.28 414.57L349.774 406.431L386.124 434.388H399.892L409.058 450.588L425.227 446.656L458.901 478.78H489.546L501.505 492.542L531.678 504.417L544.66 501.075L598.516 539.058L674.597 603.936L-22.9247 608.458L-16.7091 281.943Z" fill="url(#paint3_linear_34_1)"/>
<path opacity="0.5" d="M113.386 187.811L110.435 221.548L111.891 233.344L100.601 244.157L98.9484 258.587L87.8154 269.715L113.386 267.434L125.817 261.222L156.305 259.256L113.386 187.811Z" fill="#63BACD"/>
<path opacity="0.5" d="M173.692 277.579L151.741 292.678L144.857 307.383L126.171 315.601L120.663 329.049L161.733 320.005L174.007 303.294L195.329 317.567L207.445 315.09L205.439 296.963L173.692 277.579Z" fill="#63BACD"/>
<path opacity="0.5" d="M224.204 348.355L210.396 355.55H241.867L252.449 364.987L274.597 371.868L276.368 386.377L290.058 390.781L288.602 371.121L253.669 349.495L224.204 348.355Z" fill="#63BACD"/>
<path opacity="0.5" d="M317.28 414.57L337.619 417.834L348.437 414.57L357.603 422.434L386.124 434.387L349.774 406.431L317.28 414.57Z" fill="#63BACD"/>
<path opacity="0.5" d="M164.959 339.351L175.345 362.274H183.921L203.472 385.119L237.973 390.192L261.576 413.39L277.823 418.148L287.147 449.762L261.576 430.416H231.088L226.053 409.458L191.631 406.195L175.345 414.373L167.87 403.167L177.705 385.08L161.261 372.497L164.959 339.351Z" fill="#63BACD"/>
<path d="M-40.037 393.258L-12.4996 385.394L1.89848 393.258L17.2407 385.394L37.8938 406.706L65.5099 410.284L75.266 425.186L106.226 427.664L127.784 440.6L143.519 437.494L156.305 455.188L175.895 470.287L207.17 478.78L207.445 489.907H235.337L253.669 473.55L264.841 478.111L290.058 476.814L351.702 499.737L336.95 535.755V583.529H-51.2094L-40.037 393.258Z" fill="url(#paint4_linear_34_1)"/>
<path d="M192.575 524.627L230.066 511.848L240.923 518.257L254.653 511.848L277.273 518.257L295.959 499.069H322.513L331.128 489.829L345.408 474.179L368.5 468.95L379.318 459.867L417.241 457.468L431.01 460.732L441.946 451.57L461.144 434.387L474.283 437.808L490.019 430.495L506.266 419.446L515.274 402.42H524.794L553.512 368.33L617.871 364.398L691.317 317.882L751.86 341.159L774.716 321.145L841.75 307.383V570.828L545.093 637.594L334 640.975L137.383 544.641L173.024 525.61L192.575 524.627Z" fill="url(#paint5_linear_34_1)"/>
<path opacity="0.58" d="M524.794 402.42H536.793L544.661 391.607H560.2L577.588 373.245L617.871 364.397L553.512 368.329L524.794 402.42Z" fill="#63BACD"/>
<path opacity="0.58" d="M322.512 499.069L337.265 496.788L343.165 487.627L362.835 489.907L381.521 477.797H413.976L420.545 469.933H380.892L379.318 459.867L368.5 468.95L345.408 474.179L322.512 499.069Z" fill="#63BACD"/>
<path opacity="0.58" d="M431.01 460.732L449.067 458.137L456.934 448.307H480.223L497.257 449.958L507.092 439.46L504.141 431.596L506.266 419.446L490.019 430.495L474.283 437.808L461.144 434.387L431.01 460.732Z" fill="#63BACD"/>
<path d="M219.601 583.647L250.247 568.548H287.147L314.015 557.617L336.95 565.284L400.561 532.845L420.546 539.726H480.302L508.075 529.228L530.381 536.463L587.934 562.021L650.798 583.647L628.728 657.018L150.247 660.95L219.601 583.647Z" fill="url(#paint6_linear_34_1)"/>
<path d="M698.123 449.958L690.255 444.06L685.849 449.958H677.981L675.542 456.328H669.641L659.728 468.124H652.922L649.46 475.988H643.087V483.38H639.075L634.236 489.278H628.335L622.906 498.126H618.5L612.127 505.518H605.754L601.742 509.922H596.903L592.497 518.769H587.58L581.207 529.582H570.821L564.016 536.974C564.016 536.974 558.233 535.48 557.446 536.974C556.659 538.468 550.758 547.787 550.758 547.787L536.99 548.77C536.99 548.77 532.505 556.162 529.318 555.651C526.171 555.179 520.742 554.157 520.742 554.157L505.99 561.038H501.191L497.65 567.408L487.344 567.879L482.938 576.215C482.938 576.215 465.235 584.551 463.268 586.517C461.301 588.483 452.882 597.841 452.882 597.841H439.665C439.665 597.841 434.747 601.773 431.797 603.268C428.846 604.762 419.011 605.705 419.011 605.705H415.55H408.154L401.781 613.098H392.458H358.547L350.679 609.166L341.317 610.149L335.888 602.756L329.004 601.773L324.086 597.055H318.657L311.262 591.943L300.955 593.909L289.625 587.54L281.757 589.506L272.906 584.394H268.5L261.104 580.187L251.82 584.394L241.435 573.306L227.666 575.272L216.336 563.004L208.468 565.442L204.062 553.174L188.563 552.191L172.591 538.9L160.789 539.372L154.731 526.593L148.476 528.559L145.526 525.61L138.641 528.559L127.666 517.746L122.906 519.712L116.533 506.422L112.127 507.916L107.21 503.001L100.64 503.473L92.4573 491.677H80.1835L74.7547 482.83L70.8208 481.336L62.7563 482.83V473.826H52.1347L42.8113 458.255L5.36048 444.021L-16.5121 420.901V775.569H698.319V449.958H698.123Z" fill="#0B5D77"/>
<path d="M-20.8788 464.703L-15.2533 463.209V454.598L-12.0275 446.656L-9.03774 455.621V462.855L-6.28401 469.736L-2.66481 465.333L0.285625 453.89L2.3706 463.209L3.39342 474.062L10.3564 474.18L12.7561 469.54V467.456L14.9985 459.867L16.0213 468.832L14.4871 470.916L16.0213 474.18L18.9717 472.096V468.989L20.1912 463.799L21.5681 470.169V472.764L23.6531 476.028L25.8954 479.488V482.673L28.0591 481.886V478.623L29.79 477.089L29.1606 474.651L30.4194 471.388L32.0717 475.359L31.1275 476.5L31.8749 479.763L31.7176 481.375L32.8584 483.695L33.7632 481.847L33.5272 480.549L34.55 478.23L35.0221 481.218L34.55 482.319L35.2581 484.796L36.517 483.459L37.3037 479.96L37.6972 483.381L38.9167 486.054L39.4281 487.902L40.4509 485.779L41.7097 482.869L42.2211 487.902V490.222L42.8899 491.48L45.1716 494.665L45.6043 496.395L47.0599 495.452L47.4926 492.11L48.8695 489.514L49.3022 493.722V496.828C49.3022 496.828 50.5217 498.912 50.6004 499.148C50.6791 499.423 50.8758 501.9 50.8758 501.9L52.3313 499.934V498.204L52.764 495.452L53.3541 498.204L54.0622 500.092L53.6295 502.923L55.5178 506.619L56.3832 504.456L55.9505 501.861L56.8946 497.103L58.1142 501.861V503.591L58.9009 507.13L59.4123 510.511C59.4123 510.511 61.1433 507.68 61.1433 507.405C61.1433 507.13 60.7105 505.164 60.7105 505.164L62.2448 501.822L62.8349 507.523V510.118C62.8349 510.118 63.6216 512.792 63.7003 513.303C63.779 513.814 66.7294 513.303 66.7294 513.303V509.607L67.7523 506.855L68.3423 510.629L68.421 513.539L69.6405 516.999L71.1748 515.191V510.983L72.3943 516.999V520.184L73.2597 522.858L74.6366 519.752L75.8561 515.623V519.319L76.9576 521.993V523.723L79.554 522.858V519.673L80.2621 515.977L81.5603 519.948V523.133L82.9372 528.638L84.5894 526.987L85.1008 525.65L84.2353 523.762L86.0843 520.027L87.1071 524.509C87.1071 524.509 86.4383 526.161 86.4383 526.279C86.4383 526.397 87.2645 528.795 87.2645 528.795L88.6413 531.705L88.2873 532.531L89.1527 531.272V529.464L89.6248 528.009L90.2149 529.7L90.0182 531.155L90.6083 533.278H93.4014L94.8962 531.233L96.5091 526.947L98.004 532.098L96.9025 535.047L98.5941 540.277C98.5941 540.277 99.971 538.861 100.325 538.507C100.679 538.153 100.797 534.575 100.797 534.575L103.236 526.082V537.249V539.569L104.22 543.029L106.265 540.827L107.091 537.878L108.311 531.823L109.452 538.389C109.452 538.389 108.547 542.243 108.547 542.479C108.547 542.715 109.452 547.708 109.452 547.708L113.386 547.866V544.995L113.779 539.766C113.779 539.766 115.353 535.519 115.353 535.912C115.353 536.305 115.353 544.169 115.353 544.169V551.129C115.353 551.129 117.713 554.157 117.713 553.842C117.713 553.528 119.287 549.989 119.287 549.989L120.781 544.995L121.765 551.719V556.477L122.945 559.662C122.945 559.662 125.03 556.398 125.109 556.162C125.187 555.926 124.283 553.292 124.519 552.899C124.755 552.505 126.643 546.607 126.643 546.607L128.295 553.882L126.643 557.066L128.138 561.746L130.498 565.088C130.498 565.088 134.039 561.824 134.039 561.549C134.039 561.274 133.291 558.679 133.567 557.774C133.803 556.87 134.865 551.64 134.865 551.64L135.927 560.33C135.927 560.33 135.18 561.628 135.258 562.532C135.337 563.436 135.927 569.177 135.927 569.177C135.927 569.177 138.72 567.604 138.72 567.132C138.72 566.661 138.956 562.139 138.956 561.824C138.956 561.51 140.018 557.735 140.018 557.735L141.08 562.493L141.002 565.678L142.143 569.767L141.985 573.856L144.11 578.614L146.981 574.603V567.88C146.981 567.88 150.758 558.521 150.994 557.971C151.23 557.381 151.899 566.739 151.977 566.975C152.056 567.211 150.482 571.654 150.482 571.89C150.482 572.126 151.859 577.631 151.859 577.631L151.623 580.816L154.574 583.608L158.626 579.676L157.76 573.424L159.609 562.964L161.576 575.39L160.593 581.17C160.593 581.17 161.969 588.405 161.694 589.27C161.458 590.135 161.694 597.488 162.048 598.353C162.402 599.218 165.235 606.099 165.235 606.099L166.966 601.42L166.336 596.623L168.775 588.129V582.703L170.624 590.331V594.892L171.726 603.386V606.099L174.558 604.251L174.794 597.881L177.508 591V587.422L179.475 600.201C179.475 600.201 179.239 604.762 179.475 605.47C179.711 606.177 180.577 610.267 180.577 610.267L182.19 607.829L183.685 600.594L185.77 596.19L185.888 601.852L185.14 608.379L185.888 612.94L189.074 614.67L191.513 611.092L190.884 605.823L193.087 600.555L194.7 611.604L196.667 618.131L203.315 621.434C203.315 621.434 206.501 613.452 206.501 613.098C206.501 612.744 207.091 603.739 207.091 603.739L209.727 600.555V609.402L208.232 613.452L209.727 619.232L208.508 622.417L211.104 629.18L208.901 631.146L211.969 637.28L215.549 630.752L214.802 627.056C214.802 627.056 217.634 622.888 217.241 622.259C216.887 621.63 216.297 618.838 216.297 618.838C216.297 618.838 219.051 604.919 219.208 605.548C219.326 606.177 221.804 617.816 221.804 617.816C221.804 617.816 221.608 618.799 221.175 619.664C220.742 620.529 223.614 625.68 223.614 625.68L222.394 628.275L223.614 633.19C223.614 633.19 227.194 626.073 227.076 625.68C226.958 625.326 225.463 620.254 225.581 619.9C225.699 619.546 227.902 612.272 227.902 612.272L230.105 620.608L231.56 624.147V629.927L235.416 632.994L240.215 623.635V615.889L241.198 611.604C241.198 611.604 242.693 616.007 242.811 616.636C242.929 617.266 242.182 619.468 242.182 619.468L245.132 632.365L248.083 627.096C248.083 627.096 247.453 623.793 247.611 623.046C247.729 622.299 249.696 614.828 249.696 614.828L252.292 623.793L251.073 626.113L253.512 634.173L261.261 637.201L264.841 629.101V626.034L266.061 621.473L268.5 628.354C268.5 628.354 267.398 629.455 267.516 629.848C267.634 630.202 269.365 637.24 269.365 637.24L273.771 635.746V629.73C273.771 629.73 275.384 625.326 275.62 626.034C275.856 626.742 279.2 637.201 279.2 637.201V639.796L284.472 640.661C284.472 640.661 286.202 633.898 286.084 633.151C285.966 632.404 288.051 629.455 288.051 629.101C288.051 628.747 286.438 623.675 286.438 623.675L288.051 613.963L290.254 623.557V627.843V633.387V639.757C290.254 639.757 294.306 633.859 294.306 633.505C294.306 633.151 295.054 627.135 295.054 627.135L297.139 635.746L300.443 643.374L302.174 637.712L301.309 634.999C301.309 634.999 302.646 629.337 302.804 629.73C302.922 630.084 305.754 638.223 305.754 638.223L307.485 645.104H312.048L312.874 642.273L312.166 635.785L314.487 630.005L316.218 635.667V638.498L317.084 641.212V646.127L321.49 650.059C321.49 650.059 320.506 647.346 320.624 646.598C320.742 645.851 322.237 641.448 322.237 641.054C322.237 640.701 323.103 634.213 323.103 634.213L324.833 641.762V646.559L326.8 650.845L328.02 647.778V642.509L331.482 634.213L332.583 643.846L332.229 646.441L334.432 651.867L338.248 656.665L341.435 653.833L340.333 652.103C340.333 652.103 343.913 639.953 344.149 640.425C344.385 640.897 346.116 648.918 346.234 649.783C346.352 650.649 345.369 655.563 345.369 655.563L346.981 658.866L354.967 663.034V657.136L357.682 645.104L361.852 652.496L359.885 660.597C359.885 660.597 364.802 673.14 364.802 672.393C364.802 671.645 369.483 654.698 369.483 654.698V645.34L372.434 636.729L375.62 649.744L373.181 653.204L375.62 663.506V669.168L379.318 677.268L377.587 681.436L381.757 693.979L384.944 685.525C384.944 685.525 383.449 680.217 383.449 679.47C383.449 678.723 387.147 672.589 386.399 671.842C385.652 671.095 384.196 669.404 384.904 668.382C385.612 667.36 390.333 648.486 390.333 648.486L394.031 663.742L391.71 667.517L394.031 675.538L396.824 680.689L399.893 670.938L401.427 662.995L404.141 671.095V678.212L408.311 678.094L411.498 672.314C411.498 672.314 410.75 669.129 410.632 668.618C410.514 668.146 412.245 662.956 412.481 664.568C412.717 666.18 414.212 673.061 414.212 673.061L413.465 675.263L414.212 681.043L418.146 687.688C418.146 687.688 419.483 683.756 419.365 683.284C419.247 682.812 418.146 680.453 418.146 680.453C418.146 680.453 419.877 669.522 419.995 670.269C420.113 671.016 421.49 679.234 421.49 679.234L421.018 682.065C421.018 682.065 422.749 686.115 422.867 686.469C422.985 686.823 427.273 688.553 427.273 688.553L429.004 681.672L429.869 675.42L430.97 678.998V683.284L432.308 688.828L434.039 693.114L434.904 691.502L434.275 688.317L437.343 678.959L443.008 694.805L441.277 696.142L443.008 699.838L445.723 696.653C445.723 696.653 445.172 692.642 444.975 692.524C444.779 692.407 445.723 683.127 445.723 683.127L447.926 693.075L447.178 696.771L448.673 701.332L452.135 702.315L451.86 699.248L453.197 692.131L454.731 697.911V703.809L460.081 708.213L459.452 704.91L458.469 701.725L460.081 688.592L463.543 706.522V710.219L466.612 703.22L467.595 696.456L470.31 710.219L472.631 705.815L473.85 698.305L474.598 706.287L477.037 715.763L481.836 712.302C481.836 712.302 482.308 702.472 482.701 702.59C483.055 702.708 485.022 713.285 485.022 713.285L488.484 756.105H-40.037L-20.8788 464.703Z" fill="#0E4764"/>
<path d="M876.211 480.195L867.871 478.583V469.382L863.072 460.889L858.666 470.483V478.229L854.574 485.622L849.224 480.903L844.858 468.674L841.789 478.622L840.255 490.222L829.909 490.34L826.329 485.346V483.144L822.985 475.044L821.451 484.639L823.772 486.84L821.451 490.34L817.084 488.138V484.835L815.275 479.291L813.229 486.093V488.846L810.161 492.345L806.817 496.041V499.462L803.63 498.637V495.137L801.073 493.486L802.017 490.851L800.168 487.391L797.729 491.638L799.146 492.856L798.044 496.317L798.319 498.047L796.667 500.563L795.33 498.558L795.644 497.182L794.11 494.665L793.402 497.85L794.11 498.99L793.087 501.625L791.238 500.209L790.098 496.474L789.508 500.131L787.698 503.001L786.911 505.006L785.377 502.726L783.528 499.62L782.741 504.967V507.484L781.797 508.82L778.375 512.202L777.745 514.05L775.581 513.028L774.952 509.45L772.906 506.697L772.277 511.219V514.522C772.277 514.522 770.467 516.724 770.349 516.999C770.231 517.274 769.956 519.948 769.956 519.948L767.792 517.825V515.977L767.163 513.028L766.258 515.977L765.235 518.021L765.865 521.049L763.032 525.02L761.734 522.7L762.363 519.948L760.947 514.876L759.138 519.948V521.796L757.997 525.571L757.21 529.149C757.21 529.149 754.653 526.121 754.653 525.846C754.653 525.571 755.282 523.448 755.282 523.448L752.961 519.869L752.057 525.964V528.716C752.057 528.716 750.916 531.587 750.758 532.137C750.64 532.688 746.274 532.137 746.274 532.137V528.166L744.74 525.217L743.835 529.267L743.717 532.373L741.907 536.109L739.586 534.182V529.66L737.776 536.109V539.529L736.478 542.4L734.433 539.097L732.623 534.654V538.625L730.971 541.496V543.344L727.116 542.439V539.018L726.093 535.047L724.165 539.294V542.714L722.12 548.612L719.681 546.843L718.894 545.428L720.192 543.422L717.438 539.451L715.904 544.248C715.904 544.248 716.848 546.017 716.848 546.175C716.848 546.332 715.589 548.848 715.589 548.848L713.504 551.955L714.016 552.82L712.717 551.483V549.556L712.049 547.983L711.183 549.792L711.459 551.365L710.593 553.645H706.463L704.26 551.483L701.899 546.882L699.696 552.387L701.349 555.533L698.831 561.116C698.831 561.116 696.825 559.622 696.274 559.229C695.723 558.836 695.526 555.022 695.526 555.022L691.868 545.939V557.892V560.369L690.412 564.065L687.383 561.706L686.124 558.56L684.315 552.073L682.623 559.072C682.623 559.072 683.961 563.2 683.961 563.436C683.961 563.672 682.623 569.059 682.623 569.059L676.801 569.216V566.149L676.211 560.526C676.211 560.526 673.89 555.965 673.89 556.398C673.89 556.83 673.89 565.245 673.89 565.245V572.676C673.89 572.676 670.349 575.901 670.349 575.586C670.349 575.232 668.028 571.457 668.028 571.457L665.825 566.11L664.37 573.306V578.378L662.599 581.759C662.599 581.759 659.492 578.26 659.374 578.024C659.256 577.788 660.593 574.957 660.239 574.524C659.885 574.092 657.092 567.761 657.092 567.761L654.653 575.547L657.092 578.968L654.889 583.961L651.348 587.539C651.348 587.539 646.116 584.04 646.116 583.765C646.116 583.489 647.218 580.698 646.864 579.754C646.51 578.81 644.936 573.188 644.936 573.188L643.363 582.467C643.363 582.467 644.464 583.843 644.346 584.826C644.228 585.809 643.363 591.904 643.363 591.904C643.363 591.904 639.232 590.252 639.232 589.702C639.232 589.191 638.878 584.354 638.878 584.001C638.878 583.647 637.304 579.636 637.304 579.636L635.731 584.708L635.849 588.129L634.157 592.494L634.393 596.858L631.246 601.931L626.998 597.645V590.449C626.998 590.449 621.411 580.462 621.057 579.833C620.703 579.204 619.72 589.191 619.602 589.466C619.484 589.741 621.805 594.46 621.805 594.735C621.805 595.01 619.72 600.869 619.72 600.869L620.074 604.29L615.707 607.278L609.688 603.071L610.947 596.386L608.193 585.22L605.282 598.47L606.738 604.644C606.738 604.644 604.732 612.39 605.086 613.333C605.479 614.277 605.086 622.141 604.535 623.046C603.984 623.95 599.775 631.342 599.775 631.342L597.218 626.348L598.123 621.237L594.464 612.154V606.374L591.71 614.513V619.389L590.058 628.472V631.381L585.849 629.415L585.495 622.574L581.482 615.221V611.407L578.571 625.09C578.571 625.09 578.925 629.966 578.571 630.752C578.217 631.539 576.919 635.864 576.919 635.864L574.558 633.229L572.355 625.483L569.248 620.765L569.051 626.82L570.152 633.78L569.051 638.656L564.291 640.504L560.632 636.69L561.537 631.027L558.272 625.365L555.912 637.201L553.001 644.16L543.166 647.699C543.166 647.699 538.406 639.167 538.406 638.774C538.406 638.38 537.54 628.786 537.54 628.786L533.646 625.365V634.842L535.849 639.167L533.646 645.34L535.455 648.761L530.774 655.485C530.774 655.485 521.962 649.272 522.513 648.604C523.064 647.935 523.89 644.947 523.89 644.947C523.89 644.947 519.759 630.084 519.602 630.713C519.405 631.381 515.786 643.846 515.786 643.846C515.786 643.846 516.061 644.908 516.691 645.812C517.32 646.716 513.032 652.26 513.032 652.26L514.842 655.013L513.032 660.282C513.032 660.282 507.761 652.654 507.918 652.26C508.115 651.867 510.278 646.48 510.121 646.087C509.924 645.694 506.659 637.948 506.659 637.948L503.394 646.874L501.27 650.688V656.861L495.565 660.164L488.445 650.176V641.88L486.99 637.279C486.99 637.279 484.787 641.998 484.629 642.666C484.432 643.335 485.534 645.694 485.534 645.694L481.167 659.495L476.801 653.833C476.801 653.833 477.705 650.294 477.548 649.508C477.351 648.722 474.44 640.7 474.44 640.7L470.624 650.294L472.434 652.772L468.776 661.383L457.288 664.607L452.017 655.917V652.614L450.207 647.739L446.549 655.091C446.549 655.091 448.201 656.271 448.004 656.664C447.808 657.058 445.251 664.528 445.251 664.528L438.681 662.955V656.507C438.681 656.507 436.321 651.789 435.927 652.575C435.573 653.361 430.656 664.528 430.656 664.528V667.281L422.827 668.185C422.827 668.185 420.27 660.95 420.467 660.164C420.664 659.377 417.556 656.232 417.556 655.839C417.556 655.445 419.916 650.058 419.916 650.058L417.556 639.678L414.291 649.94V654.541V660.439V667.281C414.291 667.281 408.272 660.99 408.272 660.596C408.272 660.203 407.17 653.755 407.17 653.755L404.063 662.955L399.145 671.095L396.588 665.039L397.847 662.13C397.847 662.13 395.841 656.074 395.644 656.468C395.447 656.861 391.277 665.551 391.277 665.551L388.72 672.903H381.954L380.734 669.876L381.797 662.916L378.335 656.743L375.778 662.798V665.826L374.519 668.736V674.004L367.949 678.212C367.949 678.212 369.405 675.302 369.208 674.516C369.011 673.729 366.848 669.011 366.848 668.618C366.848 668.224 365.589 661.304 365.589 661.304L363.032 669.404V674.516L360.121 679.116L358.311 675.813V670.151L353.197 661.265L351.545 671.567L352.096 674.319L348.83 680.099L343.166 685.211L338.406 682.183L340.058 680.335C340.058 680.335 334.786 667.32 334.393 667.87C334.039 668.382 331.482 676.953 331.285 677.858C331.088 678.762 332.544 684.031 332.544 684.031L330.184 687.57L318.343 692.052V685.761L314.33 672.903L308.114 680.767L311.026 689.457C311.026 689.457 303.748 702.865 303.748 702.079C303.748 701.293 296.824 683.166 296.824 683.166V673.179L292.457 663.978L287.697 677.897L291.356 681.593L287.697 692.642V698.697L282.229 707.387L284.786 711.87L278.571 725.278L273.811 716.234C273.811 716.234 276.014 710.572 276.014 709.786C276.014 708.999 270.546 702.433 271.647 701.646C272.749 700.86 274.912 699.012 273.85 697.95C272.749 696.889 265.825 676.678 265.825 676.678L260.357 692.957L263.819 697.007L260.357 705.578L256.226 711.083L251.702 700.624L249.42 692.131L245.408 700.821V708.449L239.192 708.331L234.432 702.158C234.432 702.158 235.534 698.737 235.691 698.226C235.888 697.714 233.331 692.17 232.937 693.9C232.583 695.591 230.38 702.983 230.38 702.983L231.482 705.343L230.38 711.516L224.558 718.594C224.558 718.594 222.552 714.386 222.749 713.875C222.945 713.364 224.558 710.848 224.558 710.848C224.558 710.848 222.001 699.169 221.804 699.956C221.608 700.742 219.601 709.55 219.601 709.55L220.349 712.577C220.349 712.577 217.792 716.903 217.595 717.296C217.398 717.689 211.025 719.537 211.025 719.537L208.468 712.184L207.21 705.5L205.557 709.314V713.914L203.551 719.812L200.994 724.413L199.735 722.722L200.64 719.301L196.077 709.314L187.697 726.261L190.254 727.716L187.697 731.648L183.685 728.227C183.685 728.227 184.511 723.941 184.786 723.823C185.101 723.705 183.685 713.757 183.685 713.757L180.42 724.413L181.521 728.345L179.318 733.221L174.165 734.282L174.597 730.979L172.591 723.351L170.309 729.525V735.816L162.363 740.534L163.268 736.995L164.723 733.575L162.363 719.498L157.249 738.686V742.618L152.685 735.147L151.23 727.912L147.217 742.618L143.756 737.9L141.946 729.878L140.844 738.411L137.186 748.516L130.065 744.82C130.065 744.82 129.318 734.322 128.807 734.44C128.256 734.558 125.345 745.882 125.345 745.882L120.231 755.987H904.22L876.211 480.195Z" fill="#083753"/>
<path d="M825.031 88.8418C681.168 95.4083 566.179 129.46 566.179 129.46L551.427 168.111C551.427 168.111 517.674 182.542 498.634 194.338C479.633 206.134 480.263 209.397 480.263 209.397V228.389C480.263 228.389 457.957 234.956 439.625 254.616C421.254 274.276 425.188 273.607 425.188 273.607L454.024 336.52L553.788 355.511C553.788 355.511 557.249 366.01 563.15 372.891C569.051 379.772 577.902 388.619 577.902 388.619L614.291 394.517L652.647 474.14L634.236 569.177L596.864 643.885L584.393 755.948H824.992V88.8418H825.031Z" fill="#073255"/>
<path d="M425.227 273.647L454.062 336.559L553.826 355.551L577.587 337.227V318.865L608.39 308.406L615.589 295.941L664.133 278.916V268.417L517.241 278.247L503.472 271.681L425.227 273.647Z" fill="#0E4266"/>
<path d="M480.302 228.428L539.232 223.867L549.381 211.088L590.687 203.853L593.323 197.326L480.302 209.437V228.428Z" fill="#0E4266"/>
<path d="M551.427 168.151L579.555 160.955L587.068 150.693L606.108 145.856L609.688 137.009L566.179 129.499L551.427 168.151Z" fill="#0E4266"/>
<path d="M614.33 394.556L653.63 398.842L661.104 413.902H671.765L674.598 434.23L652.686 474.179L614.33 394.556Z" fill="#0E4266"/>
<path d="M596.903 643.924L617.832 638.695L637.147 615.732L661.105 606.57L689.035 568.548H656.266L638.996 544.916L634.275 569.216L596.903 643.924Z" fill="#0E4266"/>
<path d="M601.498 134.737H533.398V139.609H601.498V134.737Z" fill="#02284C"/>
<path d="M603.2 102.316L551.726 94.7506V134.737H603.2V102.316Z" fill="#02284C"/>
<path d="M542.462 91.5798L541.946 95.0856L612.482 105.453L612.997 101.948L542.462 91.5798Z" fill="#02284C"/>
<path opacity="0.8" d="M575.194 109.19H563.088V121.29H575.194V109.19Z" fill="#FFED98"/>
<path d="M543.962 137.164H540.417V173.696H543.962V137.164Z" fill="#02284C"/>
<path d="M557.4 136.157L540.71 160.14L543.62 162.163L560.31 138.181L557.4 136.157Z" fill="#02284C"/>
<path opacity="0.5" d="M568.884 133.763C578.918 133.763 587.052 125.632 587.052 115.603C587.052 105.574 578.918 97.4436 568.884 97.4436C558.85 97.4436 550.716 105.574 550.716 115.603C550.716 125.632 558.85 133.763 568.884 133.763Z" fill="url(#paint7_radial_34_1)"/>
<path d="M738.76 102.604C738.091 99.6942 740.963 97.2563 742.025 94.4646C743.559 90.4539 741.395 86.0894 740.648 81.8428C739.507 75.4336 741.828 68.7885 745.526 63.4016C749.224 58.0541 754.259 53.7682 759.255 49.5216C754.731 51.9202 749.971 53.8468 745.015 55.1837C743.756 49.4823 742.536 43.3484 744.897 38.0008C746.038 35.4057 747.926 33.2431 749.224 30.766C754.023 21.6044 750.837 8.43209 758.901 1.94426C754.81 3.59571 750.719 5.24714 746.628 6.89858C749.381 -5.36931 752.45 -17.5586 755.872 -29.6692C753.748 -29.0401 751.624 -28.4503 749.499 -27.8211C750.483 -47.5992 758.115 -45.122 762.324 -79.0553C770.506 -49.8011 777.509 -42.173 781.561 -28.8828C778.178 -29.5512 774.912 -30.6522 771.805 -32.107C771.529 -20.3896 774.165 -8.63288 779.436 1.86561C782.505 7.96023 786.517 14.1728 786.006 20.9752C783.449 21.0538 780.853 21.1325 778.296 21.1718C780.971 26.9519 783.606 32.7319 786.281 38.512C789.547 45.5896 792.772 54.1614 788.642 60.8065C788.17 61.593 787.58 62.3793 787.619 63.2837C787.658 64.6206 789.035 65.4856 790.137 66.2327C798.909 72.0521 800.994 83.8088 802.332 94.268L738.76 102.604Z" fill="#073255"/>
<path d="M772.12 98.3967C771.018 94.3467 771.411 90.0608 772.12 85.9322C773.968 75.4337 777.981 65.4071 782.112 55.577C784.551 49.7577 787.029 44.0169 789.586 38.2368C790.727 35.7203 791.868 33.0466 791.789 30.2941C786.518 33.3611 780.381 34.9733 774.283 34.934C774.559 26.7554 783.843 21.3685 785.101 13.2685C785.574 10.3588 791.514 -10.1663 797.572 -14.9633C792.733 -12.958 787.54 -11.7391 782.308 -11.4246C790.216 -28.2143 795.054 -45.9476 796.156 -58.766C793.795 -57.2325 791.081 -56.3282 788.249 -56.1316C786.006 -62.8553 791.396 -69.3825 794.464 -75.7917C800.483 -88.3741 797.572 -114.404 804.024 -126.79C809.964 -115.859 811.498 -99.0299 813.622 -86.7227C814.134 -83.6557 817.596 -76.3422 818.815 -73.4718C821.057 -68.1242 826.053 -63.7203 826.25 -57.901C822.592 -60.85 817.871 -62.4228 813.19 -62.2262C815.157 -60.4175 816.848 -58.2549 818.146 -55.8957C819.563 -53.2612 820.507 -50.3515 821.293 -47.4418C824.48 -35.9603 826.132 -23.6924 832.977 -13.941C837.895 -6.90273 833.449 -1.3979 836.085 1.11858C831.915 -2.65615 825.739 -4.03236 820.349 -2.38091C830.577 11.9316 836.478 29.2719 837.108 46.848C832.859 45.8256 828.453 45.3538 824.086 45.3931C835.298 58.9585 842.064 76.1808 843.048 93.7569C826.604 93.1671 808.941 96.3127 792.497 96.2734C784.905 96.3913 778.689 94.7399 772.12 98.3967Z" fill="#073255"/>
<path d="M734.275 117.074C734.983 114.518 734.747 111.765 734.275 109.131C733.095 102.447 730.538 96.0767 727.941 89.8248C726.407 86.1287 724.794 82.4719 723.181 78.8152C722.473 77.203 721.726 75.5123 721.804 73.7429C725.188 75.7089 729.082 76.7312 732.937 76.6919C732.78 71.5016 726.84 68.0808 726.053 62.9298C725.778 61.0818 721.962 48.0275 718.107 44.9606C721.175 46.2581 724.48 47.0052 727.823 47.2018C722.788 36.5067 719.72 25.2611 719.011 17.0825C720.506 18.0655 722.237 18.6553 724.047 18.7733C725.502 14.4874 722.04 10.3194 720.074 6.26946C716.258 -1.75185 718.107 -18.3056 713.976 -26.1697C710.199 -19.21 709.216 -8.51488 707.878 -0.690165C707.524 1.27584 705.361 5.9156 704.574 7.76365C703.118 11.1845 699.971 13.9762 699.853 17.6723C702.174 15.785 705.203 14.8019 708.154 14.9199C706.895 16.0602 705.833 17.4364 705.007 18.9699C704.102 20.6607 703.512 22.5087 703 24.3568C700.994 31.6703 699.932 39.495 695.565 45.6683C692.418 50.1508 695.25 53.6503 693.598 55.2624C696.234 52.8639 700.168 51.9988 703.59 53.0211C697.099 62.1434 693.323 73.1531 692.929 84.3593C695.644 83.7302 698.437 83.4156 701.23 83.455C694.11 92.1054 689.822 103.036 689.153 114.203C699.617 113.81 710.829 115.815 721.332 115.815C726.171 115.815 730.105 114.754 734.275 117.074Z" fill="#073255"/>
<path d="M752.686 120.377C753.237 118.411 753.04 116.327 752.686 114.282C751.781 109.17 749.854 104.255 747.808 99.4582C746.628 96.6272 745.408 93.7962 744.149 91.0044C743.599 89.7855 743.048 88.4879 743.087 87.1117C745.684 88.6059 748.634 89.3923 751.624 89.3923C751.506 85.421 746.982 82.7865 746.352 78.8152C746.116 77.3996 743.205 67.373 740.255 65.0531C742.615 66.0361 745.133 66.6259 747.69 66.7832C743.835 58.6046 741.474 49.9542 740.924 43.663C742.064 44.4101 743.402 44.8426 744.779 44.9606C745.88 41.697 743.245 38.5121 741.75 35.3665C738.799 29.2325 740.255 16.5321 737.068 10.5161C734.157 15.8637 733.41 24.0816 732.387 30.0582C732.112 31.5524 730.459 35.1305 729.869 36.546C728.768 39.1412 726.329 41.3038 726.25 44.1348C728.02 42.7193 730.341 41.9329 732.623 42.0116C731.64 42.9159 730.853 43.9382 730.223 45.1178C729.515 46.4154 729.083 47.8309 728.689 49.2465C727.155 54.8299 726.329 60.8459 722.985 65.6037C720.585 69.0245 722.749 71.7376 721.49 72.9565C723.536 71.1085 726.526 70.44 729.161 71.2657C724.165 78.2647 721.293 86.7185 720.979 95.2903C723.064 94.7792 725.188 94.5433 727.312 94.5826C721.844 101.188 718.54 109.603 718.068 118.175C726.093 117.86 734.708 119.394 742.733 119.394C746.431 119.394 749.5 118.568 752.686 120.377Z" fill="#073255"/>
<path d="M37.1069 765.896C38.3658 761.216 37.9331 756.223 37.1069 751.426C34.9826 739.197 30.3013 727.598 25.5019 716.155C22.6695 709.432 19.7977 702.708 16.8079 696.024C15.5098 693.075 14.1722 690.008 14.2509 686.783C20.3878 690.361 27.5082 692.21 34.5892 692.17C34.2745 682.655 23.4956 676.403 22.04 667.045C21.5286 663.663 14.5656 639.835 7.56324 634.252C13.1887 636.572 19.2076 637.987 25.3052 638.38C16.0998 618.877 10.5137 598.313 9.21549 583.371C11.9299 585.141 15.1164 586.242 18.3815 586.438C21.0172 578.653 14.723 571.025 11.1431 563.633C4.14074 549.006 7.52391 518.808 0.0494728 504.417C-6.87421 517.117 -8.60513 536.698 -11.0835 550.932C-11.7129 554.51 -15.6862 563.004 -17.1024 566.346C-19.7381 572.558 -25.4816 577.67 -25.7177 584.433C-21.469 581.012 -16.0009 579.203 -10.5328 579.4C-12.8538 581.523 -14.7814 584 -16.2763 586.753C-17.9285 589.82 -19.03 593.201 -19.9348 596.583C-23.6327 609.912 -25.5603 624.186 -33.5068 635.51C-39.2503 643.688 -34.0575 650.098 -37.126 653.007C-32.2873 648.643 -25.0882 647.031 -18.8726 648.957C-30.7531 665.59 -37.5981 685.722 -38.3455 706.129C-33.3888 704.949 -28.314 704.399 -23.1999 704.477C-36.2212 720.245 -44.0497 740.219 -45.2299 760.627C-26.1504 759.919 -5.61536 763.576 13.4641 763.576C22.2367 763.576 29.4751 761.649 37.1069 765.896Z" fill="#02284C"/>
<path d="M851.624 761.964C848.162 735.541 841.278 709.55 831.167 684.857C836.085 686.784 840.963 688.71 845.88 690.637C838.721 674.437 830.931 658.512 822.552 642.902C825.699 644.043 828.886 645.183 832.033 646.323C831.443 637.712 825.66 630.32 823.575 621.905C822.08 615.968 822.513 609.716 821.333 603.739C820.113 597.763 816.612 591.55 810.711 590.017C812.442 587.657 816.101 587.068 818.5 588.758C822.71 579.557 813.937 569.963 811.301 560.173C808.902 551.129 811.734 540.631 806.581 532.806C800.68 539.294 803.984 548.259 801.742 556.752C800.798 560.33 798.87 563.515 797.257 566.818C793.363 574.682 791.081 583.372 790.57 592.14C792.576 591.707 794.543 591.275 796.549 590.842C792.615 596.701 792.379 604.172 791.199 611.132C789.429 621.551 785.18 631.539 778.965 640.071C783.607 641.447 788.524 641.801 793.323 641.172C785.849 646.48 785.259 657.097 784.393 666.219C784.079 669.601 783.567 673.061 781.797 675.931C777.548 682.852 766.651 685.407 765.747 693.468C772.356 695.198 779.397 695.355 786.085 693.861C781.758 707.269 775.699 720.088 768.186 732.002C763.426 739.512 758.036 746.668 751.467 752.645C757.367 752.881 763.229 753.156 769.13 753.392C768.225 758.582 769.326 764.087 772.198 768.491L851.624 761.964Z" fill="#02284C"/>
<path d="M692.183 597.212C692.065 600.358 691.947 603.543 690.766 606.452C689.94 608.418 688.681 610.149 687.737 612.036C685.18 617.108 683.017 623.163 682.977 628.865C684.866 628.865 688.839 628.039 690.216 626.742C685.928 661.304 677.627 656.586 673.89 669.994C681.325 668.067 683.253 664.371 689.075 662.405C686.006 666.494 684.236 671.527 684.079 676.6C684 679.509 684.393 682.458 683.725 685.289C682.899 688.907 680.46 691.934 679.279 695.434C677.824 699.759 678.217 704.91 675.188 708.37C672.71 711.201 667.91 713.285 668.776 716.942C673.182 717.217 677.627 716.234 681.482 714.111C671.648 731.923 661.537 750.679 661.105 771.047C685.77 769.788 710.475 768.53 735.141 767.233C733.961 758.543 727.391 751.701 723.969 743.601C719.681 733.496 720.349 721.424 714.213 712.342C717.714 714.819 722.041 716.077 726.329 715.92C721.49 713.128 719.13 707.505 717.32 702.236C712.875 689.497 709.453 676.403 707.092 663.113C710.79 666.887 716.298 668.814 721.569 668.224C712.285 660.911 705.755 646.048 705.558 644.436C704.653 636.178 704.181 632.128 703.276 623.871C706.463 625.994 710.436 626.899 714.213 626.388C708.351 623.242 706.463 615.889 705.165 609.362C701.742 592.1 699.657 574.839 696.235 557.617C695.094 565.088 694.622 572.991 693.796 578.732C692.773 585.77 692.419 590.095 692.183 597.212Z" fill="#02284C"/>
<path opacity="0.15" d="M974.544 -85.5448C917.856 -87.7467 860.303 -83.7361 803.812 -72.7264L793.19 -70.7211L782.687 -68.2832C775.684 -66.6318 768.603 -65.1376 761.64 -63.3682C747.832 -59.3575 733.67 -56.0153 720.098 -51.1789L699.485 -44.3373L679.225 -36.4732C665.535 -31.5582 652.592 -25.0311 639.217 -19.133C632.49 -16.302 626.196 -12.6452 619.705 -9.34229L600.311 0.802322C587.84 8.31248 575.134 15.7046 562.781 23.608L544.685 36.1118C538.705 40.3584 532.451 44.3297 526.668 48.8909C514.827 57.6593 503.497 67.1354 492.207 76.6902C447.439 115.421 407.667 160.599 373.953 210.457C401.294 156.864 435.637 106.259 476.668 60.8442C487.014 49.5986 497.517 38.3924 508.611 27.8153C514 22.3498 519.941 17.4348 525.606 12.2838L542.875 -3.09039C554.716 -12.9204 567.03 -22.2786 579.225 -31.8334L598.304 -45.045C604.717 -49.3702 610.971 -54.0887 617.659 -57.9814C630.956 -65.9634 644.016 -74.5744 657.864 -81.6521L678.477 -92.7404L699.603 -102.806C713.607 -109.805 728.241 -115.271 742.679 -121.444C749.957 -124.314 757.352 -126.87 764.748 -129.583L775.802 -133.594L787.014 -137.172C846.77 -156.675 909.084 -168.904 972.459 -174.29L974.544 -85.5448Z" fill="url(#paint8_linear_34_1)"/>
<path opacity="0.6" d="M-16.7356 -739.739L-16.7356 756H825.004L825.004 -739.739H-16.7356Z" fill="#293437"/>
</g>
<path d="M199.142 281.257L174.546 238.898C175.32 234.791 176.71 231.045 178.723 227.665L178.726 227.66L178.73 227.655C182.119 222.161 186.851 217.842 192.905 214.698C198.961 211.438 205.93 209.644 213.795 209.297L213.812 209.296H213.829C224.045 209.296 232.373 210.5 238.777 212.945C245.22 215.361 250.984 218.242 256.064 221.59L256.634 221.965L246.549 242.318L245.844 241.932C241.084 239.325 236.212 237.172 231.229 235.474L231.224 235.472C226.378 233.781 221.837 232.945 217.598 232.945C212.323 232.945 208.272 234.012 205.362 236.06C202.517 238.062 201.063 241.062 201.063 245.196C201.063 247.939 202.108 250.434 204.265 252.703C206.594 254.919 209.548 256.928 213.141 258.726C216.887 260.542 220.747 262.188 224.721 263.664L224.723 263.665C228.41 265.047 232.038 266.717 235.606 268.673C239.327 270.535 242.645 272.921 245.555 275.831C248.497 278.657 250.836 282.233 252.583 286.541C254.346 290.774 255.211 295.965 255.211 302.085C255.211 308.623 253.516 314.701 250.131 320.305C246.737 325.922 241.772 330.468 235.27 333.952L235.26 333.957C233.863 334.681 232.398 335.326 230.866 335.893L218.269 314.198C220.988 313.309 223.197 311.946 224.919 310.123L224.927 310.115L224.935 310.107C226.811 308.231 227.793 305.591 227.793 302.085C227.793 299.765 227.008 297.652 225.402 295.725L225.393 295.715L225.385 295.705C223.858 293.742 221.711 291.916 218.915 290.238L218.909 290.235L218.903 290.231C216.208 288.546 213.226 287.083 209.956 285.843L209.954 285.842C206.441 284.499 202.837 282.97 199.142 281.257Z" fill="white"/>
<path fill-rule="evenodd" clip-rule="evenodd" d="M332.718 293.879L332.725 293.876C338.527 291.207 343.142 287.711 346.543 283.375C350.03 279.072 352.534 274.299 354.047 269.062C355.666 263.741 356.478 258.469 356.478 253.249C356.478 244.455 354.568 236.831 350.716 230.408C346.863 223.871 341.26 218.858 333.938 215.371C326.609 211.766 317.691 209.982 307.213 209.982H268.229V337.642H294.619V297.716H311.668C319.967 297.716 326.994 296.449 332.718 293.879ZM326.122 265.478L326.117 265.484C324.829 267.309 322.988 268.89 320.564 270.215C318.19 271.398 315.18 272.012 311.497 272.012H294.619V235.515H311.668C315.934 235.515 319.207 236.247 321.557 237.635L321.563 237.639L321.57 237.643C324.102 239.074 325.933 240.811 327.108 242.841C328.323 244.941 329.086 247.021 329.412 249.086L329.416 249.109L329.421 249.133C329.873 251.166 330.088 252.76 330.088 253.935C330.088 255.43 329.767 257.233 329.096 259.357L329.09 259.375L329.085 259.393C328.541 261.46 327.558 263.488 326.122 265.478Z" fill="white"/>
<path d="M395.328 209.982H368.938V337.642H395.328V209.982Z" fill="white"/>
<path fill-rule="evenodd" clip-rule="evenodd" d="M443.725 297.545H459.085L485.72 337.642H516.505L486.832 291.34C490.603 289.071 493.771 286.363 496.326 283.213C499.93 278.91 502.494 274.135 504.009 268.893C505.629 263.684 506.441 258.469 506.441 253.249C506.441 246.652 505.341 240.722 503.124 235.472C500.91 230.113 497.645 225.562 493.331 221.829C489.125 217.977 483.886 215.073 477.633 213.104C471.373 211.018 464.264 209.982 456.319 209.982H417.335V337.642H443.725V297.545ZM475.24 265.632L475.231 265.644L475.223 265.656C473.937 267.476 472.102 268.998 469.682 270.208C467.306 271.396 464.292 272.012 460.603 272.012H443.725V235.515H460.774C465.039 235.515 468.313 236.247 470.663 237.635L470.669 237.639L470.675 237.643C473.207 239.074 475.038 240.811 476.213 242.841C477.429 244.941 478.192 247.021 478.518 249.086L478.521 249.109L478.527 249.133C478.977 251.16 479.194 252.813 479.194 254.106C479.194 255.838 478.869 257.758 478.201 259.871L478.197 259.884L478.194 259.897C477.652 261.845 476.674 263.757 475.24 265.632Z" fill="white"/>
<path d="M552.196 209.982H525.806V337.642H552.196V209.982Z" fill="white"/>
<path d="M652.171 209.982H565.635V235.515H595.108V337.642L621.498 337.537V235.515H652.171V209.982Z" fill="white"/>
<path fill-rule="evenodd" clip-rule="evenodd" d="M144.721 188.416C145.12 188.186 145.629 188.323 145.859 188.721L253.087 374.446C253.317 374.844 253.181 375.354 252.782 375.584C252.384 375.814 251.874 375.677 251.644 375.279L144.416 189.554C144.186 189.156 144.323 188.646 144.721 188.416Z" fill="#77A6C0"/>
<path d="M162.494 333.317H157.905V339.218L152.004 339.218L152.004 343.807H157.905V349.708H162.494V343.807H168.395V339.218L162.494 339.218V333.317Z" fill="#77A6C0"/>
</g>
<defs>
<linearGradient id="paint0_linear_34_1" x1="404.154" y1="755.987" x2="404.154" y2="-739.752" gradientUnits="userSpaceOnUse">
<stop offset="0.1537" stop-color="#0E4764"/>
<stop offset="0.2372" stop-color="#0F5771"/>
<stop offset="0.5294" stop-color="#13899A"/>
<stop offset="0.6732" stop-color="#149DAA"/>
<stop offset="0.7265" stop-color="#1396A5"/>
<stop offset="0.8015" stop-color="#118498"/>
<stop offset="0.8893" stop-color="#0D6683"/>
<stop offset="0.9861" stop-color="#083D65"/>
<stop offset="1" stop-color="#073660"/>
</linearGradient>
<linearGradient id="paint1_linear_34_1" x1="404.154" y1="755.987" x2="404.154" y2="-739.752" gradientUnits="userSpaceOnUse">
<stop offset="0.1537" stop-color="#0E4764"/>
<stop offset="0.2372" stop-color="#0F5771"/>
<stop offset="0.5294" stop-color="#13899A"/>
<stop offset="0.6732" stop-color="#149DAA"/>
<stop offset="0.7265" stop-color="#1396A5"/>
<stop offset="0.8015" stop-color="#118498"/>
<stop offset="0.8893" stop-color="#0D6683"/>
<stop offset="0.9861" stop-color="#083D65"/>
<stop offset="1" stop-color="#073660"/>
</linearGradient>
<linearGradient id="paint2_linear_34_1" x1="-248.691" y1="351.412" x2="1221.4" y2="-89.9202" gradientUnits="userSpaceOnUse">
<stop offset="0.104167" stop-color="#FFFCC5"/>
<stop offset="1" stop-color="white" stop-opacity="0"/>
</linearGradient>
<linearGradient id="paint3_linear_34_1" x1="103.413" y1="675.214" x2="396.356" y2="373.225" gradientUnits="userSpaceOnUse">
<stop stop-color="#1887A6"/>
<stop offset="0.4231" stop-color="#1989A8"/>
<stop offset="0.5964" stop-color="#1D90AF"/>
<stop offset="0.7239" stop-color="#239CBB"/>
<stop offset="0.829" stop-color="#2DADCD"/>
<stop offset="0.9193" stop-color="#38C4E3"/>
<stop offset="1" stop-color="#47DFFF"/>
</linearGradient>
<linearGradient id="paint4_linear_34_1" x1="-31.5811" y1="555.673" x2="345.75" y2="414.503" gradientUnits="userSpaceOnUse">
<stop stop-color="#0E4764"/>
<stop offset="0.0605" stop-color="#104C6A"/>
<stop offset="0.4593" stop-color="#1D688D"/>
<stop offset="0.7868" stop-color="#2579A2"/>
<stop offset="1" stop-color="#287FAA"/>
</linearGradient>
<linearGradient id="paint5_linear_34_1" x1="489.56" y1="640.966" x2="489.56" y2="307.399" gradientUnits="userSpaceOnUse">
<stop stop-color="#0E4764"/>
<stop offset="1" stop-color="#1B8EB8"/>
</linearGradient>
<linearGradient id="paint6_linear_34_1" x1="400.516" y1="660.963" x2="400.516" y2="529.241" gradientUnits="userSpaceOnUse">
<stop stop-color="#0E4764"/>
<stop offset="1" stop-color="#0E4764"/>
</linearGradient>
<radialGradient id="paint7_radial_34_1" cx="0" cy="0" r="1" gradientUnits="userSpaceOnUse" gradientTransform="translate(568.876 115.621) scale(18.1894 18.1807)">
<stop stop-color="#FFF800"/>
<stop offset="0.00220126" stop-color="#FEF700"/>
<stop offset="1" stop-color="white" stop-opacity="0"/>
</radialGradient>
<linearGradient id="paint8_linear_34_1" x1="405.415" y1="-57.7664" x2="924.812" y2="89.6472" gradientUnits="userSpaceOnUse">
<stop offset="0.104167" stop-color="#FFFCC5"/>
<stop offset="1" stop-color="white" stop-opacity="0"/>
</linearGradient>
<clipPath id="clip0_34_1">
<rect width="806" height="573" fill="white"/>
</clipPath>
</defs>
</svg>
